<svg width="18" height="18" viewBox="0 0 18 18" fill="none" xmlns="http://www.w3.org/2000/svg">
<path d="M12 1.5V4.5M6 1.5V4.5" stroke="#161616" stroke-width="1.5" stroke-linecap="round" stroke-linejoin="round"/>
<path d="M15.75 9C15.75 6.17157 15.75 4.75736 14.8713 3.87868C13.9927 3 12.5784 3 9.75 3H8.25C5.42157 3 4.00736 3 3.12868 3.87868C2.25 4.75736 2.25 6.17157 2.25 9V10.5C2.25 13.3284 2.25 14.7427 3.12868 15.6213C4.00736 16.5 5.42157 16.5 8.25 16.5" stroke="#161616" stroke-width="1.5" stroke-linecap="round" stroke-linejoin="round"/>
<path d="M2.25 7.5H15.75" stroke="#161616" stroke-width="1.5" stroke-linecap="round" stroke-linejoin="round"/>
<path d="M13.7003 14.0258L12.75 13.5V12.2001M15.75 13.5C15.75 15.1568 14.4068 16.5 12.75 16.5C11.0932 16.5 9.75 15.1568 9.75 13.5C9.75 11.8432 11.0932 10.5 12.75 10.5C14.4068 10.5 15.75 11.8432 15.75 13.5Z" stroke="#7A2530" stroke-width="1.5" stroke-linecap="round" stroke-linejoin="round"/>
</svg>
