<svg width="40" height="40" viewBox="0 0 40 40" fill="none" xmlns="http://www.w3.org/2000/svg">
<path d="M34.1665 17.5002V16.6668C34.1665 10.3814 34.1665 7.23875 32.214 5.28611C30.2614 3.3335 27.1187 3.3335 20.8332 3.3335H19.1667C12.8814 3.3335 9.73876 3.3335 7.78614 5.2861C5.83352 7.2387 5.83349 10.3814 5.83344 16.6667L5.83337 24.1668C5.83332 29.6458 5.83331 32.3855 7.34651 34.2293C7.62357 34.567 7.93314 34.8765 8.27074 35.1537C10.1147 36.6668 12.8542 36.6668 18.3332 36.6668" stroke="#161616" stroke-width="2.5" stroke-linecap="round" stroke-linejoin="round"/>
<path d="M12.5 11.6665H27.5" stroke="#161616" stroke-width="2.5" stroke-linecap="round" stroke-linejoin="round"/>
<path d="M12.5 20H22.5" stroke="#161616" stroke-width="2.5" stroke-linecap="round" stroke-linejoin="round"/>
<path d="M34.1666 33.3335V28.3335C34.1666 25.9512 31.9281 23.3335 29.1666 23.3335C26.4051 23.3335 24.1666 25.9512 24.1666 28.3335V34.1668C24.1666 35.5475 25.286 36.6668 26.6666 36.6668C28.0473 36.6668 29.1666 35.5475 29.1666 34.1668V28.3335" stroke="#161616" stroke-width="2.5" stroke-linecap="round" stroke-linejoin="round"/>
</svg>
