<svg width="20" height="20" viewBox="0 0 20 20" fill="none" xmlns="http://www.w3.org/2000/svg">
<path d="M2.10794 11.995C1.93073 13.1226 2.72301 13.9052 3.69305 14.2952C7.41202 15.7905 12.5873 15.7905 16.3063 14.2952C17.2763 13.9052 18.0686 13.1226 17.8914 11.995C17.7825 11.3021 17.244 10.7251 16.845 10.1617C16.3224 9.4146 16.2705 8.59977 16.2704 7.73286C16.2704 4.3826 13.4629 1.66669 9.99968 1.66669C6.53645 1.66669 3.72895 4.3826 3.72895 7.73286C3.72887 8.59977 3.67694 9.4146 3.15435 10.1617C2.75538 10.7251 2.21685 11.3021 2.10794 11.995Z" stroke="#161616" stroke-width="1.5" stroke-linecap="round" stroke-linejoin="round"/>
<path d="M7.5 17.5C8.16344 18.0183 9.03958 18.3333 10 18.3333C10.9604 18.3333 11.8366 18.0183 12.5 17.5" stroke="#7A2530" stroke-width="1.5" stroke-linecap="round" stroke-linejoin="round"/>
</svg>
