<svg width="66" height="104" viewBox="0 0 66 104" fill="none" xmlns="http://www.w3.org/2000/svg">
<g style="mix-blend-mode:multiply">
<path d="M14.7617 15.4488C14.7617 15.4488 17.4629 11.6457 20.0234 11.3783C21.562 11.2652 23.1079 11.4471 24.5782 11.9141C24.5782 11.9141 19.7643 15.356 17.4655 16.0303C17.0066 16.2035 16.5075 16.2407 16.028 16.1376C15.5485 16.0344 15.1089 15.7953 14.7617 15.4488Z" fill="url(#paint0_linear_6738_176795)"/>
<path d="M7.219 59.0601C7.219 59.0601 6.024 59.875 4.4992 58.493C2.5341 56.7117 0 49.5859 0 49.5859C1.42875 50.447 2.76898 51.4471 4.0012 52.5715C6.0404 54.4866 7.219 59.0601 7.219 59.0601Z" fill="url(#paint1_linear_6738_176795)"/>
<path d="M10.0144 66.7111C7.30426 60.8183 5.7695 54.4535 5.49612 47.9732C5.28362 48.0386 4.09683 48.3159 2.96423 46.7694C1.35363 44.5705 0.140625 37.0243 0.140625 37.0243C1.38932 38.2 2.52568 39.4896 3.53493 40.8763C4.84933 42.7347 5.33363 46.0845 5.47893 47.4015C5.45363 46.7203 5.43222 46.038 5.43222 45.3494C5.43544 42.3658 5.67156 39.3871 6.13843 36.4403C5.67795 36.3254 5.25647 36.0897 4.91749 35.7575C4.57852 35.4254 4.33433 35.0088 4.21012 34.5507C3.17832 31.9546 3.82413 24.3319 3.82413 24.3319C4.74305 25.8324 5.52824 27.4109 6.17063 29.049C6.61055 30.4657 6.78664 31.951 6.69012 33.4313C7.27545 30.6866 8.0685 27.9904 9.06243 25.3659C8.59332 25.1719 8.18696 24.852 7.88826 24.4415C7.58956 24.0311 7.41014 23.546 7.36983 23.04C6.80693 20.2658 8.81123 12.9363 8.81123 12.9363C9.44125 14.606 9.92876 16.3261 10.2685 18.0781C10.46 19.9658 10.2735 21.8728 9.71983 23.6877C10.9694 20.688 12.49 17.8084 14.2626 15.0849C13.8141 14.8049 13.4536 14.404 13.2226 13.9283C12.9916 13.4526 12.8995 12.9214 12.9568 12.3957C12.9182 9.5539 16.336 2.8252 16.336 2.8252C16.6293 4.59484 16.7749 6.38582 16.7712 8.1796C16.7371 10.4122 15.3823 13.1869 14.7032 14.4412C15.8422 12.7448 17.08 11.117 18.4103 9.5661C19.1558 7.37557 20.6374 5.51106 22.6028 4.2899C25.4237 2.61859 28.3781 1.18372 31.4357 0C31.4357 0 25.5344 5.6331 22.4831 7.9383C21.3167 8.85767 19.9903 9.55331 18.5708 9.9901C15.0112 14.1708 12.1297 18.8842 10.0317 23.9584C10.8176 22.6426 12.0705 20.9314 13.5044 20.4446C14.956 19.9979 16.4807 19.8381 17.9933 19.9739C17.9933 19.9739 14.0118 24.3931 11.9042 25.5577C11.5277 25.8014 11.094 25.9424 10.6462 25.9665C10.1983 25.9907 9.75195 25.8972 9.35143 25.6954C8.12177 28.9815 7.20823 32.3774 6.62323 35.837C7.04293 34.4659 8.08993 31.5974 9.75053 30.5947C11.0743 29.8411 12.5308 29.3495 14.0405 29.1468C14.0405 29.1468 10.9461 34.3527 9.08573 35.9588C8.75863 36.2973 8.34398 36.5384 7.88796 36.6551C7.43194 36.7719 6.95246 36.7598 6.50293 36.6201C6.05146 39.508 5.82302 42.4264 5.81963 45.3494C5.81963 46.2241 5.84243 47.0923 5.88333 47.9548C5.93283 47.3521 6.34243 43.0891 8.14753 41.4185C9.30909 40.3916 10.6512 39.5894 12.1057 39.0527C12.1057 39.0527 9.95373 44.8419 8.39553 46.8285C8.13564 47.2471 7.76178 47.5829 7.31779 47.7966C6.87381 48.0102 6.37811 48.0929 5.88882 48.0348C6.06344 51.6775 6.62848 55.291 7.57423 58.8131C7.50423 57.8438 7.32292 53.9581 8.72652 52.0454C9.69408 50.7832 10.8766 49.7014 12.2198 48.8499C12.2198 48.8499 11.0651 55.0073 9.86483 57.3011C9.68316 57.7641 9.38011 58.1697 8.98753 58.4752C8.59494 58.7806 8.12733 58.9747 7.63383 59.037C8.51877 62.2802 9.74387 65.4209 11.2887 68.4067C10.9838 66.935 10.5554 64.0343 11.4327 62.2194C12.1731 60.7645 13.1518 59.4439 14.3282 58.3122C14.3282 58.3122 14.2258 64.61 13.439 67.1257C13.3327 67.5837 13.1253 68.0121 12.8321 68.3796C12.5389 68.7471 12.1672 69.0445 11.7443 69.2499C13.5881 72.6317 15.8276 75.7822 18.4156 78.6349C17.8735 77.3708 16.7648 74.3899 17.3437 72.2885C17.82 70.6912 18.551 69.1814 19.5086 67.8172C19.5086 67.8172 20.5134 74.0158 20.1955 76.655C20.1717 77.1388 20.0419 77.6115 19.8153 78.0396C19.5886 78.4677 19.2707 78.8408 18.8839 79.1325C19.2277 79.502 19.5661 79.875 19.923 80.2365C21.7291 82.0556 23.6633 83.7428 25.7108 85.285C24.7831 84.0358 23.5346 82.0186 23.5519 80.2241C23.6067 78.533 23.9301 76.8613 24.5101 75.2718C24.5101 75.2718 27.0793 80.9227 27.4703 83.5502C27.5643 84.0051 27.5658 84.4743 27.4749 84.9299C27.384 85.3855 27.2024 85.8181 26.941 86.2022C29.2482 87.8475 31.6669 89.3306 34.1796 90.6407C33.1832 89.91 30.5099 87.7677 30.0563 85.5085C29.7638 83.8391 29.7475 82.133 30.0082 80.4584C30.0082 80.4584 33.7481 85.3949 34.7098 87.8656C34.9362 88.3362 35.0435 88.8551 35.0224 89.3769C35.0012 89.8987 34.8522 90.4073 34.5885 90.858C37.1969 92.196 39.8901 93.362 42.6507 94.3485C41.3201 93.678 38.5172 92.0677 37.7345 90.0579C37.1589 88.4621 36.8669 86.7779 36.8718 85.0815C36.8718 85.0815 41.5611 89.3801 43.0005 91.6664C43.3156 92.0821 43.5178 92.5722 43.5875 93.089C43.6572 93.6059 43.5921 94.1321 43.3985 94.6164C46.7002 95.7592 50.0808 96.6597 53.5135 97.3107C59.9898 98.539 63.7719 101.064 65.8902 103.143C65.7463 103.19 65.6035 103.236 65.4626 103.281C63.3563 101.273 59.6687 98.888 53.4439 97.7078C50.023 97.0593 46.6534 96.1644 43.3615 95.0299C43.25 95.5498 42.9812 96.0229 42.5915 96.3847C42.2018 96.7466 41.7102 96.9797 41.1834 97.0524C38.4297 97.779 31.0902 95.7607 31.0902 95.7607C32.639 95.0133 34.2589 94.4233 35.9255 93.9995C37.9246 93.7332 39.9576 93.904 41.8841 94.5002C39.3537 93.567 36.8815 92.4829 34.4809 91.2538C34.3224 91.7556 34.0093 92.1945 33.5863 92.5075C33.1633 92.8206 32.6521 92.9919 32.1258 92.9969C29.4617 93.316 22.878 90.2499 22.878 90.2499C24.4486 89.7389 26.0676 89.3911 27.7094 89.212C29.5459 89.0415 31.96 90.0022 33.3563 90.6554C30.9618 89.3713 28.6554 87.9292 26.4524 86.3387C26.2137 86.763 25.8528 87.1056 25.4166 87.3219C24.9805 87.5383 24.4893 87.6183 24.007 87.5516C21.4271 87.4279 15.5524 83.3136 15.5524 83.3136C17.1433 83.0669 18.7558 82.9894 20.3629 83.0824C21.6483 83.2689 22.8793 83.7271 23.9739 84.4263C22.4635 83.2058 21.021 81.9037 19.6528 80.5257C19.283 80.151 18.9319 79.7647 18.576 79.3814C18.2787 79.7568 17.8714 80.0299 17.4112 80.1624C16.9509 80.2949 16.4608 80.2802 16.0093 80.1204C13.5267 79.5115 8.39973 74.361 8.39973 74.361C10.0017 74.4184 11.593 74.646 13.1468 75.0397C14.4849 75.5177 15.7037 76.2798 16.7193 77.2736C14.6831 74.8256 12.892 72.1837 11.3718 69.3859C10.9845 69.6597 10.5209 69.8047 10.0466 69.8003C9.57236 69.7959 9.11148 69.6424 8.72932 69.3615C6.48542 68.0706 2.73403 61.6595 2.73403 61.6595C4.27817 62.1719 5.76515 62.8426 7.17123 63.6611C8.31801 64.4721 9.28579 65.5103 10.0144 66.7111Z" fill="url(#paint2_linear_6738_176795)"/>
</g>
<defs>
<linearGradient id="paint0_linear_6738_176795" x1="76.9626" y1="127.662" x2="-19.7175" y2="-64.6774" gradientUnits="userSpaceOnUse">
<stop stop-color="#C4BD86"/>
<stop offset="0.17063" stop-color="#7B5915"/>
<stop offset="0.37266" stop-color="#9C8648"/>
<stop offset="0.57347" stop-color="#B9AE75"/>
<stop offset="0.67456" stop-color="#C4BD86"/>
</linearGradient>
<linearGradient id="paint1_linear_6738_176795" x1="47.8527" y1="142.291" x2="-48.8257" y2="-50.0452" gradientUnits="userSpaceOnUse">
<stop stop-color="#C4BD86"/>
<stop offset="0.17063" stop-color="#7B5915"/>
<stop offset="0.37266" stop-color="#9C8648"/>
<stop offset="0.57347" stop-color="#B9AE75"/>
<stop offset="0.67456" stop-color="#C4BD86"/>
</linearGradient>
<linearGradient id="paint2_linear_6738_176795" x1="67.7294" y1="132.299" x2="-28.9492" y2="-60.0372" gradientUnits="userSpaceOnUse">
<stop stop-color="#8D7835"/>
<stop offset="0.22791" stop-color="#BBA259"/>
<stop offset="0.41395" stop-color="#F4E899"/>
<stop offset="0.58605" stop-color="#D0BA72"/>
<stop offset="0.77209" stop-color="#EAD483"/>
<stop offset="1" stop-color="#9F8B4C"/>
</linearGradient>
</defs>
</svg>
