<?xml version="1.0" standalone="no"?>
<!DOCTYPE svg PUBLIC "-//W3C//DTD SVG 1.1//EN" "http://www.w3.org/Graphics/SVG/1.1/DTD/svg11.dtd" >
<svg xmlns="http://www.w3.org/2000/svg" xmlns:xlink="http://www.w3.org/1999/xlink" version="1.1">
<metadata>
Created by FontForge 20201107 at Mon Jun 23 08:13:22 2025
 By 
Copyright (c) 2022 by Eugene Tantsurin. All rights reserved.
</metadata>
<defs>
<font id="JUSTSans-ExLt" horiz-adv-x="1167" >
  <font-face 
    font-family="JUST Sans ExLight"
    font-weight="200"
    font-stretch="normal"
    units-per-em="2048"
    panose-1="0 0 3 0 0 0 0 0 0 0"
    ascent="1638"
    descent="-410"
    x-height="1044"
    cap-height="1434"
    bbox="-1122 -461 2499 1966"
    underline-thickness="61"
    underline-position="-204"
    unicode-range="U+0020-FB02"
  />
<missing-glyph horiz-adv-x="1228" 
d="M1065 82h-901v1270h901v-1270zM301 1270l299 -473h29l299 473h-627zM256 1194v-954l295 477zM678 717l295 -477v954zM600 639l-299 -475h627l-299 475h-29z" />
    <glyph glyph-name="fl" unicode="fl" horiz-adv-x="1236" 
d="M410 0h-123v932h-209v112h209v144q0 122 72.5 194t197.5 72q130 0 229 -68l-49 -92q-81 49 -170 49q-71 0 -114 -40.5t-43 -126.5v-132h307v-112h-307v-932zM1083 0h-122v1434h122v-1434z" />
    <glyph glyph-name="f_f" unicode="ff" horiz-adv-x="1509" 
d="M416 0h-123v932h-215v112h215v130q0 129 74 204.5t206 75.5q139 0 242 -72l-51 -96q-84 57 -180 57q-75 0 -121.5 -44.5t-46.5 -135.5v-119h573v142q0 123 72.5 195.5t198.5 72.5q137 0 229 -68l-49 -92q-81 49 -170 49q-71 0 -114.5 -40.5t-43.5 -126.5v-132h307v-112
h-307v-932h-123v932h-573v-932z" />
    <glyph glyph-name="f_f_i" unicode="ffi" horiz-adv-x="1961" 
d="M416 0h-123v932h-215v112h215v130q0 129 74 204.5t206 75.5q139 0 242 -72l-51 -96q-84 57 -180 57q-75 0 -121.5 -44.5t-46.5 -135.5v-119h573v144q0 122 73 194t198 72q130 0 229 -68l-49 -92q-81 49 -170 49q-71 0 -114.5 -40.5t-43.5 -126.5v-132h696v-1044h-122v932
h-574v-932h-123v932h-573v-932zM1747 1208q-46 0 -78.5 31t-32.5 76t32.5 76.5t78.5 31.5t78.5 -31.5t32.5 -76.5t-32.5 -76t-78.5 -31z" />
    <glyph glyph-name="f_i" unicode="fi" horiz-adv-x="1265" 
d="M416 0h-123v932h-215v112h215v144q0 122 72.5 194t197.5 72q131 0 230 -68l-50 -92q-81 49 -170 49q-71 0 -114 -40.5t-43 -126.5v-132h696v-1044h-123v932h-573v-932zM1051 1208q-46 0 -78.5 31t-32.5 76t32.5 76.5t78.5 31.5t78 -31t32 -77q0 -45 -32 -76t-78 -31z" />
    <glyph glyph-name=".notdef" horiz-adv-x="1228" 
d="M1065 82h-901v1270h901v-1270zM301 1270l299 -473h29l299 473h-627zM256 1194v-954l295 477zM678 717l295 -477v954zM600 639l-299 -475h627l-299 475h-29z" />
    <glyph glyph-name=".null" horiz-adv-x="0" 
 />
    <glyph glyph-name="nonmarkingreturn" horiz-adv-x="682" 
 />
    <glyph glyph-name="space" unicode=" " horiz-adv-x="522" 
 />
    <glyph glyph-name="exclam" unicode="!" horiz-adv-x="581" 
d="M350 389h-114l-15 1045h144zM291 -20q-50 0 -83.5 31t-33.5 81t33.5 81.5t83.5 31.5t83.5 -31.5t33.5 -81.5t-33.5 -81t-83.5 -31z" />
    <glyph glyph-name="quotedbl" unicode="&#x22;" horiz-adv-x="471" 
d="M170 1014h-94l-15 440h123zM395 1014h-94l-14 440h123z" />
    <glyph glyph-name="numbersign" unicode="#" horiz-adv-x="1478" 
d="M412 0h-127l104 424h-287l31 113h283l90 360h-289l31 113h284l105 424h127l-105 -424h304l104 424h127l-104 -424h286l-28 -113h-285l-90 -360h291l-33 -113h-285l-104 -424h-127l104 424h-303zM633 897l-90 -360h303l90 360h-303z" />
    <glyph glyph-name="dollar" unicode="$" horiz-adv-x="1228" 
d="M680 -205h-123v191q-158 21 -276 104.5t-168 218.5l110 45q55 -131 170 -196.5t262 -65.5q166 0 257.5 73t91.5 195q0 67 -29.5 118t-79.5 83.5t-114.5 57.5t-136.5 45.5t-143.5 42.5t-136 54t-114.5 74t-79.5 108.5t-29.5 152.5q0 152 113 249t303 107v186h123v-188
q147 -19 255 -98.5t155 -208.5l-109 -43q-41 116 -145 178.5t-236 62.5q-159 0 -247.5 -69t-88.5 -176q0 -65 29.5 -114.5t79.5 -81t114.5 -56t136 -45t143 -43t136 -55t114.5 -75.5t79.5 -111t29.5 -155q0 -172 -123 -273t-323 -107v-185z" />
    <glyph glyph-name="percent" unicode="%" horiz-adv-x="1738" 
d="M416 719q-156 0 -255.5 106t-99.5 262q0 155 99.5 261t255.5 106t255 -106t99 -261q0 -156 -99 -262t-255 -106zM1464 1378l-1093 -1398l-97 75l1094 1399zM416 831q96 0 160.5 74t64.5 182t-64.5 181t-160.5 73q-99 0 -162.5 -73t-63.5 -181q0 -109 63.5 -182.5
t162.5 -73.5zM1323 -20q-156 0 -255 106t-99 262q0 155 99 261t255 106t255 -106t99 -261q0 -156 -99 -262t-255 -106zM1323 92q96 0 160.5 74t64.5 182t-64.5 181t-160.5 73q-99 0 -162 -72.5t-63 -181.5t63.5 -182.5t161.5 -73.5z" />
    <glyph glyph-name="ampersand" unicode="&#x26;" horiz-adv-x="1470" 
d="M1266 113h82v-113h-84q-77 0 -129.5 26.5t-106.5 88.5l-55 65q-187 -200 -422 -200q-169 0 -273 92t-104 247q0 59 17 114.5t42.5 98.5t66.5 87.5t78 76t89 70.5q-85 105 -127.5 196.5t-42.5 182.5q0 137 87 223t224 86q134 0 218.5 -81.5t84.5 -213.5q0 -63 -22 -120
t-66.5 -109t-85.5 -89t-106 -87l344 -400q11 15 84 123l145 223l94 -61l-149 -227q-42 -65 -100 -144l69 -80q32 -37 65 -56t83 -19zM416 1145q0 -77 36 -149t107 -158q55 41 90.5 72.5t72 72t54 84.5t17.5 92q0 84 -54 134t-131 50q-84 0 -138 -54t-54 -144zM555 90
q187 0 346 172l-362 420q-56 -44 -93.5 -79.5t-74.5 -81t-55.5 -96.5t-18.5 -106q0 -105 70 -167t188 -62z" />
    <glyph glyph-name="quotesingle" unicode="'" horiz-adv-x="245" 
d="M170 1014h-94l-15 440h123z" />
    <glyph glyph-name="parenleft" unicode="(" horiz-adv-x="614" 
d="M532 -358l-71 -41q-369 390 -369 942t369 942l71 -41q-327 -395 -327 -901t327 -901z" />
    <glyph glyph-name="parenright" unicode=")" horiz-adv-x="614" 
d="M154 -399l-72 41q328 396 328 901t-328 901l72 41q368 -389 368 -942t-368 -942z" />
    <glyph glyph-name="asterisk" unicode="*" horiz-adv-x="808" 
d="M403 1077l-127 -217l-94 68l166 188l-246 58l35 108l230 -96l-21 248h117l-23 -250l230 98l37 -108l-248 -58l166 -188l-93 -68z" />
    <glyph glyph-name="plus" unicode="+" horiz-adv-x="1036" 
d="M571 170h-108v389h-385v113h385v389h108v-389h387v-113h-387v-389z" />
    <glyph glyph-name="comma" unicode="," horiz-adv-x="419" 
d="M328 166l-197 -432l-100 33l155 448z" />
    <glyph glyph-name="hyphen" unicode="-" horiz-adv-x="839" 
d="M748 522h-656v103h656v-103z" />
    <glyph glyph-name="period" unicode="." horiz-adv-x="417" 
d="M209 -20q-50 0 -83.5 31t-33.5 81t33.5 81.5t83.5 31.5t83.5 -31.5t33.5 -81.5t-33.5 -81t-83.5 -31z" />
    <glyph glyph-name="slash" unicode="/" horiz-adv-x="763" 
d="M119 -410h-119l645 1905h119z" />
    <glyph glyph-name="zero" unicode="0" horiz-adv-x="1363" 
d="M682 -20q-248 0 -408.5 205t-160.5 532t160.5 532t408.5 205t408.5 -204.5t160.5 -532.5t-160.5 -532.5t-408.5 -204.5zM682 92q201 0 323.5 168.5t122.5 456.5t-122.5 456t-323.5 168t-323.5 -168t-122.5 -456t122.5 -456.5t323.5 -168.5z" />
    <glyph glyph-name="one" unicode="1" horiz-adv-x="718" 
d="M532 0h-122v1278h-11l-317 -193v132l369 217h81v-1434z" />
    <glyph glyph-name="two" unicode="2" horiz-adv-x="1198" 
d="M1065 0h-930v98l445 404q105 95 163 154.5t105.5 126t65.5 127.5t18 137q0 134 -97 214t-237 80q-133 0 -234 -70t-151 -196l-111 43q59 161 187.5 248.5t308.5 87.5q197 0 327 -112t130 -295q0 -156 -87.5 -290.5t-305.5 -332.5l-334 -303v-8h737v-113z" />
    <glyph glyph-name="three" unicode="3" horiz-adv-x="1157" 
d="M559 850h21q212 0 343.5 -120t131.5 -314q0 -195 -131.5 -315.5t-343.5 -120.5q-177 0 -313 84t-195 229l114 47q46 -115 150.5 -181.5t241.5 -66.5q158 0 256 89.5t98 234.5q0 151 -97 236t-268 85h-178v92l451 484v8h-719v113h883v-107z" />
    <glyph glyph-name="four" unicode="4" horiz-adv-x="1208" 
d="M932 0h-123v317h-727v123l717 994h133v-1004h215v-113h-215v-317zM809 1255l-596 -825h596v825z" />
    <glyph glyph-name="five" unicode="5" horiz-adv-x="1212" 
d="M610 -20q-180 0 -317 86.5t-191 232.5l115 45q40 -118 145 -185t248 -67q168 0 272.5 98.5t104.5 260.5q0 161 -102.5 259.5t-253.5 98.5q-114 0 -205.5 -38t-183.5 -116l-88 17l49 762h794v-113h-690l-35 -512h11q154 113 352 113q135 0 242 -54t170 -162t63 -255
q0 -209 -138.5 -340t-361.5 -131z" />
    <glyph glyph-name="six" unicode="6" horiz-adv-x="1179" 
d="M592 952q218 0 362 -136.5t144 -350.5q0 -141 -66 -252t-181.5 -172t-258.5 -61q-145 0 -261 60.5t-182.5 171.5t-66.5 253q0 101 33.5 189.5t113.5 197.5l428 582h142v-13l-373 -495q83 26 166 26zM592 92q167 0 275 105t108 268t-107.5 269t-275.5 106
q-170 0 -278.5 -105.5t-108.5 -269.5q0 -163 109 -268t278 -105z" />
    <glyph glyph-name="seven" unicode="7" horiz-adv-x="1083" 
d="M375 0h-133l624 1313v8h-784v113h919v-107z" />
    <glyph glyph-name="eight" unicode="8" horiz-adv-x="1187" 
d="M594 -20q-211 0 -351.5 113.5t-140.5 291.5q0 126 74.5 224t202.5 141q-110 48 -173 132t-63 197q0 162 125.5 268.5t325.5 106.5t325 -106.5t125 -268.5q0 -113 -62.5 -197.5t-172.5 -131.5q128 -43 202 -141t74 -224q0 -178 -140 -291.5t-351 -113.5zM594 805
q146 0 237 74t91 194q0 121 -90.5 194.5t-237.5 73.5t-237.5 -73.5t-90.5 -194.5q0 -120 91 -194t237 -74zM594 92q163 0 266 81.5t103 217.5q0 135 -103 218t-266 83t-266 -83t-103 -218q0 -136 103 -217.5t266 -81.5z" />
    <glyph glyph-name="nine" unicode="9" horiz-adv-x="1179" 
d="M588 1454q145 0 261 -60.5t182.5 -171.5t66.5 -253q0 -101 -34 -189.5t-114 -197.5l-428 -582h-141v12l373 496q-86 -27 -166 -27q-218 0 -362 137t-144 351q0 141 66 252t181.5 172t258.5 61zM588 594q170 0 278.5 105.5t108.5 269.5q0 163 -109 267.5t-278 104.5
q-167 0 -275 -104.5t-108 -267.5t107.5 -269t275.5 -106z" />
    <glyph glyph-name="colon" unicode=":" horiz-adv-x="417" 
d="M209 840q-50 0 -83.5 31t-33.5 81t33.5 81.5t83.5 31.5t83.5 -31.5t33.5 -81.5t-33.5 -81t-83.5 -31zM209 -20q-50 0 -83.5 31t-33.5 81t33.5 81.5t83.5 31.5t83.5 -31.5t33.5 -81.5t-33.5 -81t-83.5 -31z" />
    <glyph glyph-name="semicolon" unicode=";" horiz-adv-x="436" 
d="M227 840q-50 0 -83 31t-33 81t33 81.5t83 31.5t83.5 -31.5t33.5 -81.5t-33.5 -81t-83.5 -31zM328 166l-197 -432l-100 33l155 448z" />
    <glyph glyph-name="less" unicode="&#x3c;" horiz-adv-x="1036" 
d="M958 317v-122l-880 376v86l880 377v-123l-706 -297z" />
    <glyph glyph-name="equal" unicode="=" horiz-adv-x="1036" 
d="M958 768h-880v113h880v-113zM958 348h-880v113h880v-113z" />
    <glyph glyph-name="greater" unicode="&#x3e;" horiz-adv-x="1036" 
d="M958 571l-880 -376v122l706 297l-706 297v123l880 -377v-86z" />
    <glyph glyph-name="question" unicode="?" horiz-adv-x="1105" 
d="M608 389h-114v25q0 66 20.5 124t54 100.5t73.5 82.5t80 78t73.5 78t54 92t20.5 110q0 118 -92.5 190t-228.5 72q-141 0 -234 -67t-141 -213l-113 45q50 163 178.5 255.5t307.5 92.5q194 0 320 -105t126 -270q0 -74 -21 -136.5t-55 -106.5t-75.5 -83.5t-82.5 -75.5
t-75 -73t-55 -86t-21 -106v-23zM551 -20q-50 0 -83.5 31t-33.5 81t33.5 81.5t83.5 31.5t83.5 -31.5t33.5 -81.5t-33.5 -81t-83.5 -31z" />
    <glyph glyph-name="at" unicode="@" horiz-adv-x="1787" 
d="M1104 -317h-219q-167 0 -312 66t-245 178t-157.5 264t-57.5 321q0 227 100 417t277.5 301t394.5 111q171 0 319 -61.5t251 -167.5t161.5 -251.5t58.5 -309.5q0 -205 -71.5 -320.5t-196.5 -115.5q-79 0 -137.5 43t-87.5 123h-8q-93 -166 -300 -166q-155 0 -259.5 111.5
t-104.5 285.5q0 175 105 287t259 112q173 0 281 -137h4l15 123h94v-455q0 -102 34.5 -158.5t104.5 -56.5q71 0 108 84t37 240q0 188 -83 342t-236.5 245t-347.5 91q-138 0 -259.5 -57t-206.5 -154t-134 -228.5t-49 -277.5q0 -143 47.5 -274t130.5 -229.5t206 -157t265 -58.5
h219v-110zM889 227q114 0 186 79.5t72 205.5t-72 206.5t-186 80.5q-117 0 -187.5 -80t-70.5 -207t70.5 -206t187.5 -79z" />
    <glyph glyph-name="A" unicode="A" horiz-adv-x="1325" 
d="M1280 0h-131l-127 348h-723l-127 -348h-127l530 1434h173zM655 1325l-315 -864h641l-317 864h-9z" />
    <glyph glyph-name="B" unicode="B" horiz-adv-x="1314" 
d="M748 0h-572v1434h526q199 0 318 -93t119 -280q0 -125 -52 -205.5t-141 -116.5v-6q122 -39 188 -128.5t66 -223.5q0 -181 -118 -281t-334 -100zM299 1321v-537h412q152 0 231.5 68.5t79.5 200.5q0 131 -79.5 199.5t-231.5 68.5h-412zM299 672v-559h449q156 0 242.5 71.5
t86.5 206.5q0 134 -87 207.5t-242 73.5h-449z" />
    <glyph glyph-name="C" unicode="C" horiz-adv-x="1384" 
d="M731 -20q-184 0 -325 93.5t-217 261t-76 382.5t76 382.5t217 261t325 93.5q175 0 321 -98t220 -301l-115 -45q-119 331 -426 331q-222 0 -358.5 -168.5t-136.5 -455.5t136.5 -456t358.5 -169q315 0 436 332l115 -45q-41 -106 -103 -184.5t-135.5 -124.5t-151.5 -68
t-161 -22z" />
    <glyph glyph-name="D" unicode="D" horiz-adv-x="1372" 
d="M598 0h-422v1434h422q192 0 342.5 -89t235 -252.5t84.5 -375.5t-84.5 -375.5t-235 -252.5t-342.5 -89zM299 1321v-1208h299q244 0 391.5 162.5t147.5 441.5t-147.5 441.5t-391.5 162.5h-299z" />
    <glyph glyph-name="E" unicode="E" horiz-adv-x="1220" 
d="M1087 0h-911v1434h911v-113h-788v-526h707v-113h-707v-569h788v-113z" />
    <glyph glyph-name="F" unicode="F" horiz-adv-x="1189" 
d="M299 0h-123v1434h901v-113h-778v-553h707v-113h-707v-655z" />
    <glyph glyph-name="G" unicode="G" horiz-adv-x="1429" 
d="M745 -20q-144 0 -263 54.5t-200 151.5t-125 233t-44 298q0 216 76 383t217.5 260.5t328.5 93.5q400 0 551 -375l-112 -43q-60 156 -172.5 230.5t-266.5 74.5q-226 0 -362.5 -168t-136.5 -456q0 -289 137.5 -457t371.5 -168q264 0 414 180v346l-389 19v102h512v-503
q-93 -126 -231 -191t-306 -65z" />
    <glyph glyph-name="H" unicode="H" horiz-adv-x="1413" 
d="M299 0h-123v1434h123v-650h815v650h123v-1434h-123v672h-815v-672z" />
    <glyph glyph-name="I" unicode="I" horiz-adv-x="475" 
d="M299 0h-123v1434h123v-1434z" />
    <glyph glyph-name="J" unicode="J" horiz-adv-x="1105" 
d="M498 -20q-160 0 -276 78t-167 223l115 43q78 -232 328 -232q145 0 227 86t82 250v1006h123v-1004q0 -213 -119.5 -331.5t-312.5 -118.5z" />
    <glyph glyph-name="K" unicode="K" horiz-adv-x="1234" 
d="M299 0h-123v1434h123v-699l702 699h156l-711 -703l738 -731h-172l-713 715v-715z" />
    <glyph glyph-name="L" unicode="L" horiz-adv-x="1120" 
d="M1049 0h-873v1434h123v-1321h750v-113z" />
    <glyph glyph-name="M" unicode="M" horiz-adv-x="1724" 
d="M291 0h-115v1434h193l493 -1305l494 1305h192v-1434h-123v1300h-6l-493 -1300h-135l-492 1300h-8v-1300z" />
    <glyph glyph-name="N" unicode="N" horiz-adv-x="1447" 
d="M299 0h-123v1434h133l840 -1235h8q-8 213 -8 446v789h123v-1434h-133l-840 1235h-8q8 -216 8 -447v-788z" />
    <glyph glyph-name="O" unicode="O" horiz-adv-x="1458" 
d="M731 -20q-183 0 -324 93.5t-217.5 261t-76.5 382.5t76.5 382.5t217.5 261t324 93.5t323 -93t216 -260.5t76 -383.5t-76 -383.5t-216 -260.5t-323 -93zM731 92q220 0 356 169t136 456t-136 455.5t-356 168.5q-221 0 -358 -168.5t-137 -455.5t137 -456t358 -169z" />
    <glyph glyph-name="P" unicode="P" horiz-adv-x="1220" 
d="M299 0h-123v1434h492q221 0 351 -116.5t130 -316.5t-130 -314t-351 -114h-369v-573zM299 1321v-635h363q173 0 268.5 82t95.5 233q0 152 -96 236t-268 84h-363z" />
    <glyph glyph-name="Q" unicode="Q" horiz-adv-x="1458" 
d="M1290 -156l-24 -120l-609 110l27 148q-258 19 -414.5 221t-156.5 514q0 215 76.5 382.5t217.5 261t324 93.5t323 -93t216 -260.5t76 -383.5q0 -301 -144 -500t-385 -231l-8 -64zM731 92q220 0 356 169t136 456t-136 455.5t-356 168.5q-221 0 -358 -168.5t-137 -455.5
t137 -456t358 -169z" />
    <glyph glyph-name="R" unicode="R" horiz-adv-x="1282" 
d="M299 0h-123v1434h545q192 0 310 -114t118 -312q0 -160 -81.5 -263.5t-221.5 -136.5l323 -608h-139l-307 596h-424v-596zM299 1321v-614h416q141 0 226 79t85 224t-85.5 228t-225.5 83h-416z" />
    <glyph glyph-name="S" unicode="S" horiz-adv-x="1228" 
d="M655 -20q-189 0 -337 86.5t-205 242.5l110 45q55 -131 170 -196.5t262 -65.5q166 0 257.5 73t91.5 195q0 67 -29.5 118t-79.5 83.5t-114.5 57.5t-136.5 45.5t-143.5 42.5t-136 54t-114.5 74t-79.5 108.5t-29.5 152.5q0 161 125.5 259.5t333.5 98.5q174 0 305.5 -82
t184.5 -229l-109 -43q-41 116 -145 178.5t-236 62.5q-159 0 -247.5 -69t-88.5 -176q0 -65 29.5 -114.5t79.5 -81t114.5 -56t136 -45t143 -43t136 -55t114.5 -75.5t79.5 -111t29.5 -155q0 -178 -130.5 -279t-340.5 -101z" />
    <glyph glyph-name="T" unicode="T" horiz-adv-x="1224" 
d="M674 0h-123v1321h-490v113h1102v-113h-489v-1321z" />
    <glyph glyph-name="U" unicode="U" horiz-adv-x="1413" 
d="M707 -20q-112 0 -207 36.5t-168 107t-114.5 184t-41.5 259.5v867h123v-867q0 -103 22 -185t60 -135.5t90.5 -89t111 -50.5t124.5 -15t124 15t111 50.5t90.5 89t59.5 135.5t22 185v867h123v-867q0 -146 -41.5 -259.5t-114 -184t-167.5 -107t-207 -36.5z" />
    <glyph glyph-name="V" unicode="V" horiz-adv-x="1335" 
d="M756 0h-176l-529 1434h131l484 -1332h8l485 1332h125z" />
    <glyph glyph-name="W" unicode="W" horiz-adv-x="1884" 
d="M600 0h-162l-387 1434h125l344 -1319h6l344 1319h150l344 -1319h6l344 1319h119l-387 -1434h-162l-340 1305h-4z" />
    <glyph glyph-name="X" unicode="X" horiz-adv-x="1325" 
d="M195 0h-138l510 723l-479 711h145l426 -635h9l432 635h137l-479 -705l510 -729h-148l-454 653h-9z" />
    <glyph glyph-name="Y" unicode="Y" horiz-adv-x="1259" 
d="M694 0h-123v567l-520 867h144l438 -754h8l432 754h135l-514 -865v-569z" />
    <glyph glyph-name="Z" unicode="Z" horiz-adv-x="1208" 
d="M1106 0h-1004v113l838 1200v8h-821v113h971v-113l-838 -1200v-8h854v-113z" />
    <glyph glyph-name="bracketleft" unicode="[" horiz-adv-x="624" 
d="M522 -379h-348v1843h348v-112h-225v-1618h225v-113z" />
    <glyph glyph-name="backslash" unicode="\" horiz-adv-x="763" 
d="M764 -410h-119l-645 1905h119z" />
    <glyph glyph-name="bracketright" unicode="]" horiz-adv-x="624" 
d="M451 1464v-1843h-349v113h226v1618h-226v112h349z" />
    <glyph glyph-name="asciicircum" unicode="^" horiz-adv-x="933" 
d="M229 788h-137l328 646h88l334 -646h-137l-236 476h-8z" />
    <glyph glyph-name="underscore" unicode="_" horiz-adv-x="768" 
d="M788 -256h-808v102h808v-102z" />
    <glyph glyph-name="grave" unicode="`" horiz-adv-x="413" 
d="M352 1198h-104l-187 246h172z" />
    <glyph glyph-name="a" unicode="a" horiz-adv-x="1085" 
d="M938 709v-146q0 -375 10 -563h-98l-23 201h-12q-49 -107 -143.5 -164t-222.5 -57q-153 0 -245.5 81.5t-92.5 214.5q0 149 115 235.5t317 98.5l272 17v78q0 121 -79.5 184t-198.5 63q-112 0 -190 -55t-114 -154l-112 45q26 88 90 152t147.5 94.5t178.5 30.5
q184 0 292.5 -91.5t108.5 -264.5zM463 92q159 0 255.5 115t96.5 285v28l-264 -18q-148 -9 -233 -65.5t-85 -160.5q0 -84 62.5 -134t167.5 -50z" />
    <glyph glyph-name="b" unicode="b" horiz-adv-x="1196" 
d="M643 -20q-235 0 -354 194h-13l-18 -174h-115q11 205 11 557v877h122v-564h13q119 195 354 195q202 0 326.5 -151.5t124.5 -391.5t-124.5 -391t-326.5 -151zM623 92q158 0 253 118t95 312t-95 312t-253 118t-252.5 -118t-94.5 -312t94.5 -312t252.5 -118z" />
    <glyph glyph-name="c" unicode="c" horiz-adv-x="1107" 
d="M584 -20q-212 0 -347 151.5t-135 390.5t135 391t347 152q144 0 254.5 -73t165.5 -224l-113 -45q-48 121 -123.5 175t-183.5 54q-163 0 -261 -117.5t-98 -312.5t98 -312.5t261 -117.5q223 0 321 230l111 -46q-56 -148 -173 -222t-259 -74z" />
    <glyph glyph-name="d" unicode="d" horiz-adv-x="1196" 
d="M553 -20q-202 0 -326.5 151t-124.5 391t124.5 391.5t326.5 151.5q235 0 354 -195h13v564h122v-877q0 -352 11 -557h-115l-18 174h-13q-119 -194 -354 -194zM573 92q158 0 252.5 118t94.5 312t-94.5 312t-252.5 118t-253 -118t-95 -312t95 -312t253 -118z" />
    <glyph glyph-name="e" unicode="e" horiz-adv-x="1136" 
d="M1034 547q0 -30 -4 -70h-803q11 -176 107 -280.5t250 -104.5q211 0 301 199l114 -45q-57 -131 -165.5 -198.5t-249.5 -67.5q-144 0 -255 72t-169 194.5t-58 275.5t57 275.5t167 195t254 72.5q203 0 328.5 -136.5t125.5 -381.5zM580 952q-148 0 -242 -98t-109 -264h682
q-9 166 -99 264t-232 98z" />
    <glyph glyph-name="f" unicode="f" horiz-adv-x="806" 
d="M410 0h-123v932h-209v112h209v144q0 122 72.5 194t197.5 72q130 0 229 -68l-49 -92q-81 49 -170 49q-71 0 -114 -40.5t-43 -126.5v-132h307v-112h-307v-932z" />
    <glyph glyph-name="g" unicode="g" horiz-adv-x="1196" 
d="M610 -430q-162 0 -283 67t-173 201l116 45q71 -200 340 -200q141 0 225.5 77.5t84.5 210.5v244h-13q-119 -195 -354 -195q-202 0 -326.5 146t-124.5 377t124.5 376.5t326.5 145.5q235 0 354 -195h13l18 174h115q-11 -205 -11 -557v-522q0 -174 -115 -284.5t-317 -110.5z
M573 133q158 0 252.5 112.5t94.5 297.5t-94.5 297t-252.5 112q-157 0 -252.5 -112.5t-95.5 -296.5q0 -185 95.5 -297.5t252.5 -112.5z" />
    <glyph glyph-name="h" unicode="h" horiz-adv-x="1175" 
d="M635 1065q188 0 292.5 -112t104.5 -328v-625h-123v610q0 170 -74.5 254t-211.5 84q-154 0 -250.5 -104t-96.5 -256v-588h-122v1434h122v-328l-4 -234h19q52 89 146 141t198 52z" />
    <glyph glyph-name="i" unicode="i" horiz-adv-x="430" 
d="M215 1208q-46 0 -78.5 31t-32.5 76t32.5 76.5t78.5 31.5t78.5 -31.5t32.5 -76.5t-32.5 -76t-78.5 -31zM276 0h-122v1044h122v-1044z" />
    <glyph glyph-name="j" unicode="j" horiz-adv-x="526" 
d="M311 1208q-46 0 -78 31t-32 76q0 46 32 77t78 31t78.5 -31.5t32.5 -76.5t-32.5 -76t-78.5 -31zM125 -430q-121 0 -207 59l53 97q66 -45 144 -45q62 0 98.5 37.5t36.5 109.5v1216h123v-1222q0 -122 -68.5 -187t-179.5 -65z" />
    <glyph glyph-name="k" unicode="k" horiz-adv-x="1052" 
d="M276 0h-122v1434h122v-887l547 497h164l-557 -501l571 -543h-176l-549 526v-526z" />
    <glyph glyph-name="l" unicode="l" horiz-adv-x="430" 
d="M276 0h-122v1434h122v-1434z" />
    <glyph glyph-name="m" unicode="m" horiz-adv-x="1771" 
d="M276 0h-122v487q0 352 -11 557h115l18 -163h13q49 88 130 136t179 48q229 0 322 -203h12q51 96 138.5 149.5t203.5 53.5q169 0 261.5 -102t92.5 -306v-657h-123v643q0 150 -64 227.5t-181 77.5q-132 0 -220 -95.5t-88 -240.5v-612h-123v637q0 152 -64 231.5t-181 79.5
q-132 0 -220 -95.5t-88 -240.5v-612z" />
    <glyph glyph-name="n" unicode="n" horiz-adv-x="1175" 
d="M276 0h-122v487q0 352 -11 557h117l19 -172h12q52 88 146 140.5t198 52.5q188 0 292.5 -112t104.5 -328v-625h-123v610q0 170 -74.5 254t-211.5 84q-154 0 -250.5 -104t-96.5 -256v-588z" />
    <glyph glyph-name="o" unicode="o" 
d="M584 -20q-212 0 -347 151.5t-135 390.5t135 391t347 152t346.5 -152t134.5 -391t-134.5 -390.5t-346.5 -151.5zM584 92q163 0 260.5 117.5t97.5 312.5t-97.5 312.5t-260.5 117.5t-261 -117.5t-98 -312.5t98 -312.5t261 -117.5z" />
    <glyph glyph-name="p" unicode="p" horiz-adv-x="1196" 
d="M276 -410h-122v897q0 352 -11 557h115l18 -174h13q119 195 354 195q202 0 326.5 -151.5t124.5 -391.5t-124.5 -391t-326.5 -151q-235 0 -354 194h-13v-584zM623 92q158 0 253 118t95 312t-95 312t-253 118t-252.5 -118t-94.5 -312t94.5 -312t252.5 -118z" />
    <glyph glyph-name="q" unicode="q" horiz-adv-x="1196" 
d="M1042 -410h-122v584h-13q-119 -194 -354 -194q-202 0 -326.5 151t-124.5 391t124.5 391.5t326.5 151.5q235 0 354 -195h13l18 174h115q-11 -205 -11 -557v-897zM573 92q158 0 252.5 118t94.5 312t-94.5 312t-252.5 118t-253 -118t-95 -312t95 -312t253 -118z" />
    <glyph glyph-name="r" unicode="r" horiz-adv-x="768" 
d="M651 1065q33 0 56 -2v-119q-27 2 -56 2q-56 0 -107 -12.5t-101 -44t-86 -79.5t-58.5 -125t-22.5 -175v-510h-122v487q0 352 -11 557h117l21 -192h12q47 102 140.5 157.5t217.5 55.5z" />
    <glyph glyph-name="s" unicode="s" horiz-adv-x="993" 
d="M524 -20q-158 0 -271 70.5t-151 193.5l109 43q28 -90 112.5 -144.5t200.5 -54.5q117 0 180.5 48t63.5 132q0 58 -35 97.5t-91.5 61t-124.5 39t-136.5 39.5t-125 53t-91.5 89t-35 139q0 124 99.5 201.5t254.5 77.5q138 0 239.5 -65t139.5 -179l-108 -43q-29 84 -100.5 131
t-170.5 47q-111 0 -171 -48t-60 -122q0 -50 27.5 -87t72.5 -57t102.5 -38.5t117 -31.5t117 -37.5t102.5 -55.5t72.5 -85t27.5 -126q0 -133 -103.5 -210.5t-263.5 -77.5z" />
    <glyph glyph-name="t" unicode="t" horiz-adv-x="849" 
d="M545 -20q-119 0 -188.5 74t-69.5 208v670h-209v112h217l43 277h74v-277h325v-112h-327v-662q0 -90 40.5 -135t108.5 -45q87 0 154 45l51 -92q-95 -63 -219 -63z" />
    <glyph glyph-name="u" unicode="u" horiz-adv-x="1175" 
d="M541 -20q-188 0 -293 112t-105 328v624h123v-610q0 -169 75 -253.5t212 -84.5q154 0 250 104t96 257v587h123v-487q0 -371 10 -557h-117l-18 172h-12q-52 -88 -146 -140t-198 -52z" />
    <glyph glyph-name="v" unicode="v" horiz-adv-x="1013" 
d="M586 0h-158l-383 1044h131l328 -923h8l330 923h127z" />
    <glyph glyph-name="w" unicode="w" horiz-adv-x="1439" 
d="M489 0h-145l-299 1044h127l244 -901h6l227 901h154l221 -901h8l244 901h119l-299 -1044h-146l-223 911h-8z" />
    <glyph glyph-name="x" unicode="x" horiz-adv-x="1013" 
d="M193 0h-138l365 526l-344 518h141l291 -448h6l289 448h135l-338 -516l358 -528h-141l-305 457h-8z" />
    <glyph glyph-name="y" unicode="y" horiz-adv-x="1034" 
d="M416 -410h-127l162 404l-406 1050h133l336 -901h8l338 901h129z" />
    <glyph glyph-name="z" unicode="z" horiz-adv-x="974" 
d="M872 0h-770v100l605 828v8h-588v108h737v-100l-604 -827v-8h620v-109z" />
    <glyph glyph-name="braceleft" unicode="{" horiz-adv-x="675" 
d="M573 -379h-86q-119 0 -180 69t-61 183v442q0 90 -28.5 131t-92.5 41h-74v113h74q65 0 93 39.5t28 130.5v442q0 114 61 183t180 69h86v-112h-71q-66 0 -99.5 -38t-33.5 -106v-458q0 -167 -107 -201v-8q107 -37 107 -205v-459q0 -68 33.5 -105.5t99.5 -37.5h71v-113z" />
    <glyph glyph-name="bar" unicode="|" horiz-adv-x="491" 
d="M307 -410h-123v1844h123v-1844z" />
    <glyph glyph-name="braceright" unicode="}" horiz-adv-x="675" 
d="M188 -379h-86v113h72q66 0 99.5 37.5t33.5 105.5v459q0 168 107 205v8q-107 34 -107 201v458q0 68 -33.5 106t-99.5 38h-72v112h86q119 0 180.5 -69t61.5 -183v-442q0 -91 28 -130.5t93 -39.5h74v-113h-74q-64 0 -92.5 -41t-28.5 -131v-442q0 -114 -61.5 -183t-180.5 -69
z" />
    <glyph glyph-name="asciitilde" unicode="~" horiz-adv-x="1036" 
d="M201 461h-123v69q0 63 20 111t54 74.5t73 39.5t82 13q47 0 96 -20t89.5 -49t79 -57.5t80 -48.5t77.5 -20q48 0 77.5 31.5t29.5 93.5v70h122v-70q0 -51 -14 -92t-36.5 -67.5t-53 -44.5t-61.5 -25.5t-64 -7.5q-65 0 -127.5 30.5t-104 66.5t-93 66.5t-97.5 30.5
q-48 0 -77 -31.5t-29 -93.5v-69z" />
    <glyph glyph-name="uni00A0" unicode="&#xa0;" horiz-adv-x="522" 
 />
    <glyph glyph-name="exclamdown" unicode="&#xa1;" horiz-adv-x="581" 
d="M291 1065q50 0 83.5 -31.5t33.5 -81.5t-33.5 -81t-83.5 -31t-83.5 31t-33.5 81t33.5 81.5t83.5 31.5zM221 -389l15 1044h114l15 -1044h-144z" />
    <glyph glyph-name="cent" unicode="&#xa2;" horiz-adv-x="1105" 
d="M643 -205h-123v189q-187 23 -302.5 170.5t-115.5 367.5t115.5 368t302.5 171v188h123v-188q124 -13 218 -85t143 -208l-113 -45q-48 121 -123.5 175t-183.5 54q-163 0 -261 -117.5t-98 -312.5t98 -312.5t261 -117.5q221 0 319 230l111 -46q-50 -132 -148.5 -205
t-222.5 -87v-189z" />
    <glyph glyph-name="sterling" unicode="&#xa3;" horiz-adv-x="1208" 
d="M1032 180l84 -80q-60 -66 -120 -93t-144 -27q-74 0 -188.5 37.5t-186.5 37.5q-116 0 -315 -86l-60 94q234 198 234 435q0 55 -14 116h-220v103h181q-4 10 -33 73t-38.5 88.5t-21.5 79.5t-12 105q0 179 121 285t319 106q173 0 293.5 -85t178.5 -241l-113 -43
q-104 256 -361 256q-146 0 -230.5 -79t-84.5 -199q0 -47 12 -96.5t25 -81.5t38 -86.5t36 -81.5h385v-103h-353q15 -56 15 -116q0 -203 -142 -363l7 -8q109 41 190 41q65 0 175.5 -38t152.5 -38q59 0 102 19.5t88 68.5z" />
    <glyph glyph-name="currency" unicode="&#xa4;" horiz-adv-x="1146" 
d="M313 367l-125 -125l-86 86l123 127q-82 116 -82 262t82 262l-123 127l86 86l125 -125q115 78 260 78q146 0 261 -78l124 125l86 -90l-122 -123q79 -112 79 -262q0 -153 -81 -260l124 -125l-86 -90l-124 125q-115 -78 -261 -78q-145 0 -260 78zM573 401q134 0 220 89
t86 227q0 139 -86 227t-220 88t-220.5 -88t-86.5 -227t86.5 -227.5t220.5 -88.5z" />
    <glyph glyph-name="yen" unicode="&#xa5;" horiz-adv-x="1259" 
d="M694 0h-123v256h-368v113h368v184h-368v113h309l-461 768h144l438 -754h8l432 754h135l-456 -768h311v-113h-369v-184h369v-113h-369v-256z" />
    <glyph glyph-name="brokenbar" unicode="&#xa6;" horiz-adv-x="491" 
d="M307 707h-123v727h123v-727zM307 -410h-123v727h123v-727z" />
    <glyph glyph-name="section" unicode="&#xa7;" horiz-adv-x="997" 
d="M524 -205q-91 0 -173 25.5t-151.5 87t-97.5 151.5l111 45q18 -66 69 -113t113 -67t129 -20q119 0 183.5 47.5t64.5 130.5q0 64 -35.5 108t-92 69t-124.5 45.5t-136.5 45t-125 58t-92 95t-35.5 146.5q0 78 50.5 141t137.5 99v8q-91 49 -139.5 112t-48.5 162
q0 125 100.5 204t255.5 79q133 0 237 -62.5t142 -181.5l-110 -45q-28 92 -100.5 136.5t-168.5 44.5q-111 0 -172 -49.5t-61 -125.5q0 -63 35.5 -108t92 -71.5t124.5 -48t136.5 -46.5t125 -58.5t92 -92.5t35.5 -140q0 -156 -184 -244v-8q184 -79 184 -272q0 -135 -104 -211
t-267 -76zM578 397q194 64 194 209q0 33 -10 60.5t-23.5 48t-40 39t-47.5 30t-59.5 25t-61.5 20.5t-67 19q-95 -15 -152 -68.5t-57 -130.5q0 -39 11.5 -71t37 -56t51 -41.5t69 -34t73.5 -26t82 -23.5z" />
    <glyph glyph-name="dieresis" unicode="&#xa8;" horiz-adv-x="665" 
d="M168 1212q-45 0 -76 29.5t-31 73.5t31 73t76 29t76.5 -29t31.5 -73t-31.5 -73.5t-76.5 -29.5zM504 1212q-45 0 -76 29.5t-31 73.5t31 73t76 29t76.5 -29t31.5 -73t-31.5 -73.5t-76.5 -29.5z" />
    <glyph glyph-name="copyright" unicode="&#xa9;" horiz-adv-x="1482" 
d="M741 -20q-149 0 -277 58t-216 158t-137.5 235t-49.5 286q0 152 49.5 287t137.5 234.5t216 157.5t277 58t277 -58t216 -157.5t137.5 -234.5t49.5 -287q0 -151 -49.5 -286t-137.5 -235t-216 -158t-277 -58zM741 61q129 0 240 51.5t186.5 140.5t118.5 209t43 255
q0 136 -43 256.5t-119 208.5t-186.5 139t-239.5 51q-171 0 -306 -87t-208 -236t-73 -332q0 -181 73 -330t208 -237.5t306 -88.5zM748 348q-140 0 -229 102.5t-89 266.5t89 266t229 102q98 0 173 -51t109 -155l-82 -31q-53 160 -200 160q-102 0 -165 -78.5t-63 -212.5
t63 -212.5t165 -78.5q149 0 204 160l82 -31q-35 -105 -111 -156t-175 -51z" />
    <glyph glyph-name="ordfeminine" unicode="&#xaa;" horiz-adv-x="667" 
d="M274 803q-92 0 -147 50t-55 130q0 91 67.5 141t194.5 58l158 10v43q0 68 -45.5 103.5t-112.5 35.5q-132 0 -174 -123l-82 31q23 83 92 127.5t164 44.5q113 0 179.5 -56.5t66.5 -160.5v-86q0 -223 6 -336h-72l-14 119h-8q-59 -131 -218 -131zM287 883q90 0 147.5 66
t57.5 169l-150 -10q-180 -13 -180 -123q0 -47 34 -74.5t91 -27.5z" />
    <glyph glyph-name="guillemotleft" unicode="&#xab;" horiz-adv-x="962" 
d="M514 211h-168l-295 321l295 322h168l-301 -322zM881 211h-168l-295 321l295 322h168l-301 -322z" />
    <glyph glyph-name="logicalnot" unicode="&#xac;" horiz-adv-x="1036" 
d="M958 410h-122v297h-758v112h880v-409z" />
    <glyph glyph-name="uni00AD" unicode="&#xad;" horiz-adv-x="839" 
d="M748 522h-656v103h656v-103z" />
    <glyph glyph-name="registered" unicode="&#xae;" horiz-adv-x="1482" 
d="M741 -20q-149 0 -277 58t-216 158t-137.5 235t-49.5 286q0 152 49.5 287t137.5 234.5t216 157.5t277 58t277 -58t216 -157.5t137.5 -234.5t49.5 -287q0 -151 -49.5 -286t-137.5 -235t-216 -158t-277 -58zM741 61q129 0 240 51.5t186.5 140.5t118.5 209t43 255
q0 136 -43 256.5t-119 208.5t-186.5 139t-239.5 51q-171 0 -306 -87t-208 -236t-73 -332q0 -181 73 -330t208 -237.5t306 -88.5zM590 358h-86v717h276q103 0 165.5 -56t62.5 -155q0 -77 -40 -127.5t-110 -68.5v-15l164 -295h-98l-158 299h-176v-299zM590 997v-266h186
q67 0 105.5 34t38.5 99q0 64 -38.5 98.5t-105.5 34.5h-186z" />
    <glyph glyph-name="macron" unicode="&#xaf;" horiz-adv-x="634" 
d="M573 1270h-512v108h512v-108z" />
    <glyph glyph-name="degree" unicode="&#xb0;" horiz-adv-x="716" 
d="M358 840q-128 0 -212.5 88t-84.5 219t84.5 219t212.5 88t212.5 -88t84.5 -219t-84.5 -219t-212.5 -88zM358 952q76 0 125 55.5t49 139.5t-49 139t-125 55t-125 -55t-49 -139t49 -139.5t125 -55.5z" />
    <glyph glyph-name="plusminus" unicode="&#xb1;" horiz-adv-x="1036" 
d="M571 348h-108v328h-385v112h385v328h108v-328h387v-112h-387v-328zM958 113h-880v112h880v-112z" />
    <glyph glyph-name="uni00B2" unicode="&#xb2;" horiz-adv-x="632" 
d="M561 922h-485v82l211 186q100 87 139 136.5t39 109.5q0 59 -42 93t-101 34q-57 0 -103 -32t-69 -91l-89 30q28 84 98 131.5t163 47.5q103 0 171 -57.5t68 -155.5q0 -42 -14 -80t-48 -79t-63.5 -69.5t-87.5 -79.5l-123 -108v-6h336v-92z" />
    <glyph glyph-name="uni00B3" unicode="&#xb3;" horiz-adv-x="649" 
d="M551 1559l-201 -207q103 -3 165.5 -63t62.5 -156q0 -100 -68 -161t-180 -61q-99 0 -171 46t-98 126l91 33q19 -55 67.5 -87t110.5 -32q68 0 108.5 37.5t40.5 100.5q0 64 -41.5 100.5t-115.5 36.5h-107v65l203 209v6h-334v86h467v-79z" />
    <glyph glyph-name="acute" unicode="&#xb4;" horiz-adv-x="413" 
d="M166 1198h-105l119 246h172z" />
    <glyph glyph-name="uni00B5" unicode="&#xb5;" horiz-adv-x="1257" 
d="M266 -410h-123v1454h123v-610q0 -169 75 -253.5t212 -84.5q154 0 250 104t96 257v587h123v-819q0 -112 98 -112h76v-113h-82q-89 0 -143 48.5t-60 144.5h-10q-116 -213 -356 -213q-206 0 -281 149h-8l10 -266v-273z" />
    <glyph glyph-name="paragraph" unicode="&#xb6;" horiz-adv-x="1398" 
d="M756 -410h-123v883h-115q-72 0 -134.5 14.5t-121 49.5t-100 89t-66 137.5t-24.5 190.5q0 106 24.5 189.5t66 137.5t100 89t121 49.5t134.5 14.5h778v-113h-163v-1731h-121v1731h-256v-1731z" />
    <glyph glyph-name="periodcentered" unicode="&#xb7;" horiz-adv-x="417" 
d="M209 430q-50 0 -83.5 31.5t-33.5 81.5t33.5 81t83.5 31t83.5 -31t33.5 -81t-33.5 -81.5t-83.5 -31.5z" />
    <glyph glyph-name="cedilla" unicode="&#xb8;" horiz-adv-x="563" 
d="M291 -104h10q92 0 146.5 -46t54.5 -124q0 -81 -61 -134t-171 -53q-107 0 -209 60l60 92q69 -49 149 -49q49 0 81 22.5t32 63.5q0 43 -30.5 64.5t-76.5 21.5q-31 0 -75 -13l-27 39l59 170h97z" />
    <glyph glyph-name="uni00B9" unicode="&#xb9;" horiz-adv-x="436" 
d="M324 922h-99v594h-6l-158 -93v109l191 106h72v-716z" />
    <glyph glyph-name="ordmasculine" unicode="&#xba;" horiz-adv-x="718" 
d="M360 803q-132 0 -213 92t-81 233q0 142 81 234t213 92q130 0 211.5 -92.5t81.5 -233.5t-81 -233t-212 -92zM360 885q89 0 144 66.5t55 176.5t-55 177t-144 67q-91 0 -145.5 -67t-54.5 -177t54.5 -176.5t145.5 -66.5z" />
    <glyph glyph-name="guillemotright" unicode="&#xbb;" horiz-adv-x="962" 
d="M545 532l-295 -321h-168l301 321l-301 322h168zM911 532l-295 -321h-167l301 321l-301 322h167z" />
    <glyph glyph-name="onequarter" unicode="&#xbc;" horiz-adv-x="1339" 
d="M324 717h-99v594h-6l-158 -92v108l191 107h72v-717zM213 0h-104l911 1434h106zM1176 0h-97v147h-352v103l340 467h109v-477h102v-93h-102v-147zM1079 586l-254 -346h254v346z" />
    <glyph glyph-name="onehalf" unicode="&#xbd;" horiz-adv-x="1390" 
d="M324 717h-99v594h-6l-158 -92v108l191 107h72v-717zM213 0h-104l911 1434h106zM1319 0h-485v82l210 186q101 88 140 137.5t39 108.5t-42.5 93t-101.5 34q-57 0 -103 -32t-69 -91l-88 31q27 84 97 131t163 47q103 0 171.5 -57.5t68.5 -155.5q0 -42 -14 -80t-48.5 -79
t-63.5 -68.5t-87 -79.5l-123 -109v-6h336v-92z" />
    <glyph glyph-name="threequarters" unicode="&#xbe;" horiz-adv-x="1531" 
d="M578 928q0 -100 -68 -160.5t-180 -60.5q-99 0 -171 46t-98 126l91 32q19 -55 67.5 -86.5t110.5 -31.5q68 0 108.5 37t40.5 100q0 64 -41.5 100.5t-115.5 36.5h-107v66l203 208v7h-334v86h467v-80l-201 -207q103 -3 165.5 -63t62.5 -156zM301 0l911 1434h107l-913 -1434
h-105zM1368 717v-477h102v-93h-102v-147h-96v147h-352v103l340 467h108zM1018 240h254v346z" />
    <glyph glyph-name="questiondown" unicode="&#xbf;" horiz-adv-x="1105" 
d="M555 1065q50 0 83.5 -31.5t33.5 -81.5t-33.5 -81t-83.5 -31t-83.5 31t-33.5 81t33.5 81.5t83.5 31.5zM498 655h114v-24q0 -66 -20.5 -124t-54 -101t-73.5 -82.5t-80 -78t-73.5 -78.5t-54 -92t-20.5 -110q0 -118 92.5 -190t228.5 -72q141 0 233.5 67.5t141.5 213.5
l112 -45q-50 -163 -178 -256t-307 -93q-194 0 -320 105t-126 270q0 74 21 136.5t55 107t75 84t82.5 75.5t75.5 73t55 86t21 106v22z" />
    <glyph glyph-name="Agrave" unicode="&#xc0;" horiz-adv-x="1325" 
d="M594 1833l119 -246h-105l-186 246h172zM1280 0h-131l-127 348h-723l-127 -348h-127l530 1434h173zM655 1325l-315 -864h641l-317 864h-9z" />
    <glyph glyph-name="Aacute" unicode="&#xc1;" horiz-adv-x="1325" 
d="M733 1833h172l-186 -246h-105zM1280 0h-131l-127 348h-723l-127 -348h-127l530 1434h173zM655 1325l-315 -864h641l-317 864h-9z" />
    <glyph glyph-name="Acircumflex" unicode="&#xc2;" horiz-adv-x="1325" 
d="M791 1587l-129 166l-136 -166h-149l219 246h135l219 -246h-159zM1280 0h-131l-127 348h-723l-127 -348h-127l530 1434h173zM655 1325l-315 -864h641l-317 864h-9z" />
    <glyph glyph-name="Atilde" unicode="&#xc3;" horiz-adv-x="1325" 
d="M543 1720q-36 0 -55 -32t-19 -111h-102v39q0 52 11 93t27.5 65.5t39 40.5t44 22t43.5 6q40 0 79.5 -22.5t65.5 -49t55.5 -49t51.5 -22.5q74 0 74 143h103v-47q0 -66 -15.5 -112t-42.5 -68t-53 -30.5t-55 -8.5q-41 0 -80.5 22.5t-65.5 49t-55 49t-51 22.5zM1280 0h-131
l-127 348h-723l-127 -348h-127l530 1434h173zM655 1325l-315 -864h641l-317 864h-9z" />
    <glyph glyph-name="Adieresis" unicode="&#xc4;" horiz-adv-x="1325" 
d="M494 1602q-45 0 -76 29t-31 73t31 73t76 29t76.5 -29t31.5 -73t-31.5 -73t-76.5 -29zM829 1602q-45 0 -75.5 29t-30.5 73t30.5 73t75.5 29t77 -29t32 -73t-32 -73t-77 -29zM1280 0h-131l-127 348h-723l-127 -348h-127l530 1434h173zM655 1325l-315 -864h641l-317 864h-9z
" />
    <glyph glyph-name="Aring" unicode="&#xc5;" horiz-adv-x="1325" 
d="M664 1552q-86 0 -143.5 53.5t-57.5 135.5t57.5 136t143.5 54t143 -54t57 -136t-57 -135.5t-143 -53.5zM664 1849q-46 0 -77.5 -31.5t-31.5 -76.5q0 -46 31.5 -76.5t77.5 -30.5q47 0 77.5 30.5t30.5 76.5q0 45 -30.5 76.5t-77.5 31.5zM1280 0h-131l-127 348h-723
l-127 -348h-127l530 1434h173zM655 1325l-315 -864h641l-317 864h-9z" />
    <glyph glyph-name="AE" unicode="&#xc6;" horiz-adv-x="1966" 
d="M186 0h-141l813 1434h975v-113h-690v-526h608v-113h-608v-569h690v-113h-813v348h-639zM922 1321l-480 -860h578v860h-98z" />
    <glyph glyph-name="Ccedilla" unicode="&#xc7;" horiz-adv-x="1384" 
d="M1167 424l115 -45q-74 -193 -210.5 -290t-299.5 -107l-29 -86h11q92 0 146 -46t54 -124q0 -82 -60.5 -134.5t-170.5 -52.5q-107 0 -209 60l59 92q69 -49 150 -49q49 0 81 22.5t32 63.5q0 43 -30.5 64.5t-76.5 21.5q-32 0 -76 -13l-26 39l49 142q-256 22 -409.5 223.5
t-153.5 511.5q0 215 76 382.5t217 261t325 93.5q175 0 321 -98t220 -301l-115 -45q-119 331 -426 331q-222 0 -358.5 -168.5t-136.5 -455.5t136.5 -456t358.5 -169q315 0 436 332z" />
    <glyph glyph-name="Egrave" unicode="&#xc8;" horiz-adv-x="1220" 
d="M692 1587h-104l-187 246h172zM1087 0h-911v1434h911v-113h-788v-526h707v-113h-707v-569h788v-113z" />
    <glyph glyph-name="Eacute" unicode="&#xc9;" horiz-adv-x="1220" 
d="M698 1587h-104l119 246h172zM1087 0h-911v1434h911v-113h-788v-526h707v-113h-707v-569h788v-113z" />
    <glyph glyph-name="Ecircumflex" unicode="&#xca;" horiz-adv-x="1220" 
d="M506 1587h-150l219 246h136l219 -246h-160l-129 166zM1087 0h-911v1434h911v-113h-788v-526h707v-113h-707v-569h788v-113z" />
    <glyph glyph-name="Edieresis" unicode="&#xcb;" horiz-adv-x="1220" 
d="M473 1602q-45 0 -75.5 29t-30.5 73t30.5 73t75.5 29t77 -29t32 -73t-32 -73t-77 -29zM809 1602q-45 0 -76 29t-31 73t31 73t76 29t77 -29t32 -73t-32 -73t-77 -29zM1087 0h-911v1434h911v-113h-788v-526h707v-113h-707v-569h788v-113z" />
    <glyph glyph-name="Igrave" unicode="&#xcc;" horiz-adv-x="475" 
d="M287 1587h-105l-186 246h172zM299 0h-123v1434h123v-1434z" />
    <glyph glyph-name="Iacute" unicode="&#xcd;" horiz-adv-x="475" 
d="M293 1587h-105l119 246h172zM299 0h-123v1434h123v-1434z" />
    <glyph glyph-name="Icircumflex" unicode="&#xce;" horiz-adv-x="475" 
d="M100 1587h-149l219 246h135l219 -246h-159l-129 166zM299 0h-123v1434h123v-1434z" />
    <glyph glyph-name="Idieresis" unicode="&#xcf;" horiz-adv-x="475" 
d="M113 1602q-45 0 -72 29t-27 73q0 43 27.5 72.5t71.5 29.5t71 -29.5t27 -72.5q0 -44 -26.5 -73t-71.5 -29zM360 1602q-45 0 -71.5 29t-26.5 73q0 43 27 72.5t71 29.5t71.5 -29.5t27.5 -72.5q0 -44 -27 -73t-72 -29zM299 0h-123v1434h123v-1434z" />
    <glyph glyph-name="Eth" unicode="&#xd0;" horiz-adv-x="1492" 
d="M297 1434h422q192 0 342 -89t234.5 -252.5t84.5 -375.5t-84.5 -375.5t-234.5 -252.5t-342 -89h-422v666h-266v102h266v666zM420 113h299q244 0 391 162.5t147 441.5t-147 441.5t-391 162.5h-299v-553h420v-102h-420v-553z" />
    <glyph glyph-name="Ntilde" unicode="&#xd1;" horiz-adv-x="1447" 
d="M530 1577h-102v39q0 65 16 112t42 70.5t53 34t55 10.5q40 0 79.5 -22.5t65.5 -49t55.5 -49t51.5 -22.5q74 0 74 143h102v-47q0 -66 -15.5 -112t-42.5 -68t-53 -30.5t-55 -8.5q-41 0 -80.5 22.5t-65.5 49t-55 49t-51 22.5q-36 0 -55 -32t-19 -111zM299 0h-123v1434h133
l840 -1235h8q-8 213 -8 446v789h123v-1434h-133l-840 1235h-8q8 -216 8 -447v-788z" />
    <glyph glyph-name="Ograve" unicode="&#xd2;" horiz-adv-x="1458" 
d="M780 1587h-104l-187 246h173zM731 -20q-183 0 -324 93.5t-217.5 261t-76.5 382.5t76.5 382.5t217.5 261t324 93.5t323 -93t216 -260.5t76 -383.5t-76 -383.5t-216 -260.5t-323 -93zM731 92q220 0 356 169t136 456t-136 455.5t-356 168.5q-221 0 -358 -168.5t-137 -455.5
t137 -456t358 -169z" />
    <glyph glyph-name="Oacute" unicode="&#xd3;" horiz-adv-x="1458" 
d="M786 1587h-104l119 246h172zM731 -20q-183 0 -324 93.5t-217.5 261t-76.5 382.5t76.5 382.5t217.5 261t324 93.5t323 -93t216 -260.5t76 -383.5t-76 -383.5t-216 -260.5t-323 -93zM731 92q220 0 356 169t136 456t-136 455.5t-356 168.5q-221 0 -358 -168.5t-137 -455.5
t137 -456t358 -169z" />
    <glyph glyph-name="Ocircumflex" unicode="&#xd4;" horiz-adv-x="1458" 
d="M594 1587h-150l220 246h135l219 -246h-160l-129 166zM731 -20q-183 0 -324 93.5t-217.5 261t-76.5 382.5t76.5 382.5t217.5 261t324 93.5t323 -93t216 -260.5t76 -383.5t-76 -383.5t-216 -260.5t-323 -93zM731 92q220 0 356 169t136 456t-136 455.5t-356 168.5
q-221 0 -358 -168.5t-137 -455.5t137 -456t358 -169z" />
    <glyph glyph-name="Otilde" unicode="&#xd5;" horiz-adv-x="1458" 
d="M537 1577h-103v39q0 65 16 112t42 70.5t53 34t55 10.5q40 0 79.5 -22.5t65.5 -49t55.5 -49t51.5 -22.5q74 0 74 143h102v-47q0 -66 -15.5 -112t-42.5 -68t-53 -30.5t-55 -8.5q-41 0 -80.5 22.5t-65.5 49t-55 49t-51 22.5q-36 0 -54.5 -32t-18.5 -111zM731 -20
q-183 0 -324 93.5t-217.5 261t-76.5 382.5t76.5 382.5t217.5 261t324 93.5t323 -93t216 -260.5t76 -383.5t-76 -383.5t-216 -260.5t-323 -93zM731 92q220 0 356 169t136 456t-136 455.5t-356 168.5q-221 0 -358 -168.5t-137 -455.5t137 -456t358 -169z" />
    <glyph glyph-name="Odieresis" unicode="&#xd6;" horiz-adv-x="1458" 
d="M561 1602q-45 0 -75.5 29t-30.5 73t30.5 73t75.5 29t77 -29t32 -73t-32 -73t-77 -29zM897 1602q-45 0 -75.5 29t-30.5 73t30.5 73t75.5 29t77 -29t32 -73t-32 -73t-77 -29zM731 -20q-183 0 -324 93.5t-217.5 261t-76.5 382.5t76.5 382.5t217.5 261t324 93.5t323 -93
t216 -260.5t76 -383.5t-76 -383.5t-216 -260.5t-323 -93zM731 92q220 0 356 169t136 456t-136 455.5t-356 168.5q-221 0 -358 -168.5t-137 -455.5t137 -456t358 -169z" />
    <glyph glyph-name="multiply" unicode="&#xd7;" horiz-adv-x="1036" 
d="M520 537l-352 -359l-80 82l354 358l-352 353l78 78l352 -353l348 355l80 -80l-350 -353l350 -358l-80 -82z" />
    <glyph glyph-name="Oslash" unicode="&#xd8;" horiz-adv-x="1458" 
d="M1262 1528l-132 -228q103 -100 159.5 -250t56.5 -333q0 -216 -76 -383.5t-216 -260.5t-323 -93q-170 0 -311 86l-119 -209l-100 49l131 227q-105 99 -162 249.5t-57 334.5q0 215 76.5 382.5t217.5 261t324 93.5q170 0 309 -84l119 207zM236 717q0 -309 155 -477l592 1028
q-107 73 -252 73q-221 0 -358 -168.5t-137 -455.5zM731 92q220 0 356 169t136 456q0 302 -154 477l-590 -1028q109 -74 252 -74z" />
    <glyph glyph-name="Ugrave" unicode="&#xd9;" horiz-adv-x="1413" 
d="M758 1587h-105l-186 246h172zM707 -20q-112 0 -207 36.5t-168 107t-114.5 184t-41.5 259.5v867h123v-867q0 -103 22 -185t60 -135.5t90.5 -89t111 -50.5t124.5 -15t124 15t111 50.5t90.5 89t59.5 135.5t22 185v867h123v-867q0 -146 -41.5 -259.5t-114 -184t-167.5 -107
t-207 -36.5z" />
    <glyph glyph-name="Uacute" unicode="&#xda;" horiz-adv-x="1413" 
d="M764 1587h-105l119 246h172zM707 -20q-112 0 -207 36.5t-168 107t-114.5 184t-41.5 259.5v867h123v-867q0 -103 22 -185t60 -135.5t90.5 -89t111 -50.5t124.5 -15t124 15t111 50.5t90.5 89t59.5 135.5t22 185v867h123v-867q0 -146 -41.5 -259.5t-114 -184t-167.5 -107
t-207 -36.5z" />
    <glyph glyph-name="Ucircumflex" unicode="&#xdb;" horiz-adv-x="1413" 
d="M571 1587h-149l219 246h135l219 -246h-159l-129 166zM707 -20q-112 0 -207 36.5t-168 107t-114.5 184t-41.5 259.5v867h123v-867q0 -103 22 -185t60 -135.5t90.5 -89t111 -50.5t124.5 -15t124 15t111 50.5t90.5 89t59.5 135.5t22 185v867h123v-867q0 -146 -41.5 -259.5
t-114 -184t-167.5 -107t-207 -36.5z" />
    <glyph glyph-name="Udieresis" unicode="&#xdc;" horiz-adv-x="1413" 
d="M539 1602q-45 0 -76 29t-31 73t31 73t76 29t76.5 -29t31.5 -73t-31.5 -73t-76.5 -29zM874 1602q-45 0 -75.5 29t-30.5 73t30.5 73t75.5 29t77 -29t32 -73t-32 -73t-77 -29zM707 -20q-112 0 -207 36.5t-168 107t-114.5 184t-41.5 259.5v867h123v-867q0 -103 22 -185
t60 -135.5t90.5 -89t111 -50.5t124.5 -15t124 15t111 50.5t90.5 89t59.5 135.5t22 185v867h123v-867q0 -146 -41.5 -259.5t-114 -184t-167.5 -107t-207 -36.5z" />
    <glyph glyph-name="Yacute" unicode="&#xdd;" horiz-adv-x="1259" 
d="M686 1587h-104l118 246h172zM694 0h-123v567l-520 867h144l438 -754h8l432 754h135l-514 -865v-569z" />
    <glyph glyph-name="Thorn" unicode="&#xde;" horiz-adv-x="1210" 
d="M299 0h-123v1434h123v-334h406q204 0 319 -104.5t115 -278.5t-115 -278.5t-319 -104.5h-406v-334zM299 987v-541h399q158 0 238 71t80 200q0 123 -81 196.5t-237 73.5h-399z" />
    <glyph glyph-name="germandbls" unicode="&#xdf;" horiz-adv-x="1157" 
d="M637 -20q-162 0 -279 65l56 100q95 -57 215 -57q143 0 223 77t80 216q0 141 -91 221t-251 80h-105v113h76q142 0 222.5 75t80.5 197q0 120 -76.5 199.5t-209.5 79.5q-98 0 -168 -44.5t-102 -113.5t-32 -154v-1034h-122v1034q0 88 25.5 162.5t76 133t133 91.5t189.5 33
q186 0 295.5 -104.5t109.5 -272.5q0 -116 -55.5 -204t-151.5 -123v-9q134 -33 206.5 -129t72.5 -235q0 -183 -113 -290t-305 -107z" />
    <glyph glyph-name="agrave" unicode="&#xe0;" horiz-adv-x="1085" 
d="M477 1444l119 -246h-104l-187 246h172zM938 709v-146q0 -375 10 -563h-98l-23 201h-12q-49 -107 -143.5 -164t-222.5 -57q-153 0 -245.5 81.5t-92.5 214.5q0 149 115 235.5t317 98.5l272 17v78q0 121 -79.5 184t-198.5 63q-112 0 -190 -55t-114 -154l-112 45
q26 88 90 152t147.5 94.5t178.5 30.5q184 0 292.5 -91.5t108.5 -264.5zM463 92q159 0 255.5 115t96.5 285v28l-264 -18q-148 -9 -233 -65.5t-85 -160.5q0 -84 62.5 -134t167.5 -50z" />
    <glyph glyph-name="aacute" unicode="&#xe1;" horiz-adv-x="1085" 
d="M616 1444h172l-186 -246h-104zM938 709v-146q0 -375 10 -563h-98l-23 201h-12q-49 -107 -143.5 -164t-222.5 -57q-153 0 -245.5 81.5t-92.5 214.5q0 149 115 235.5t317 98.5l272 17v78q0 121 -79.5 184t-198.5 63q-112 0 -190 -55t-114 -154l-112 45q26 88 90 152
t147.5 94.5t178.5 30.5q184 0 292.5 -91.5t108.5 -264.5zM463 92q159 0 255.5 115t96.5 285v28l-264 -18q-148 -9 -233 -65.5t-85 -160.5q0 -84 62.5 -134t167.5 -50z" />
    <glyph glyph-name="acircumflex" unicode="&#xe2;" horiz-adv-x="1085" 
d="M674 1198l-129 166l-135 -166h-150l219 246h135l220 -246h-160zM938 709v-146q0 -375 10 -563h-98l-23 201h-12q-49 -107 -143.5 -164t-222.5 -57q-153 0 -245.5 81.5t-92.5 214.5q0 149 115 235.5t317 98.5l272 17v78q0 121 -79.5 184t-198.5 63q-112 0 -190 -55
t-114 -154l-112 45q26 88 90 152t147.5 94.5t178.5 30.5q184 0 292.5 -91.5t108.5 -264.5zM463 92q159 0 255.5 115t96.5 285v28l-264 -18q-148 -9 -233 -65.5t-85 -160.5q0 -84 62.5 -134t167.5 -50z" />
    <glyph glyph-name="atilde" unicode="&#xe3;" horiz-adv-x="1085" 
d="M426 1331q-36 0 -55 -32t-19 -111h-102v39q0 65 16 112t42 70.5t53 34t55 10.5q40 0 79.5 -22.5t65.5 -49t55.5 -49t51.5 -22.5q73 0 73 143h103v-47q0 -66 -15.5 -112t-42.5 -68t-53 -30.5t-55 -8.5q-41 0 -80.5 22.5t-65.5 49t-55 49t-51 22.5zM938 709v-146
q0 -375 10 -563h-98l-23 201h-12q-49 -107 -143.5 -164t-222.5 -57q-153 0 -245.5 81.5t-92.5 214.5q0 149 115 235.5t317 98.5l272 17v78q0 121 -79.5 184t-198.5 63q-112 0 -190 -55t-114 -154l-112 45q26 88 90 152t147.5 94.5t178.5 30.5q184 0 292.5 -91.5
t108.5 -264.5zM463 92q159 0 255.5 115t96.5 285v28l-264 -18q-148 -9 -233 -65.5t-85 -160.5q0 -84 62.5 -134t167.5 -50z" />
    <glyph glyph-name="adieresis" unicode="&#xe4;" horiz-adv-x="1085" 
d="M377 1212q-45 0 -76 29.5t-31 73.5t31 73t76 29t76.5 -29t31.5 -73t-31.5 -73.5t-76.5 -29.5zM713 1212q-45 0 -76 29.5t-31 73.5t31 73t76 29t76.5 -29t31.5 -73t-31.5 -73.5t-76.5 -29.5zM938 709v-146q0 -375 10 -563h-98l-23 201h-12q-49 -107 -143.5 -164
t-222.5 -57q-153 0 -245.5 81.5t-92.5 214.5q0 149 115 235.5t317 98.5l272 17v78q0 121 -79.5 184t-198.5 63q-112 0 -190 -55t-114 -154l-112 45q26 88 90 152t147.5 94.5t178.5 30.5q184 0 292.5 -91.5t108.5 -264.5zM463 92q159 0 255.5 115t96.5 285v28l-264 -18
q-148 -9 -233 -65.5t-85 -160.5q0 -84 62.5 -134t167.5 -50z" />
    <glyph glyph-name="aring" unicode="&#xe5;" horiz-adv-x="1085" 
d="M547 1163q-86 0 -143.5 53.5t-57.5 135.5t57.5 136t143.5 54t143.5 -54t57.5 -136t-57.5 -135.5t-143.5 -53.5zM547 1460q-45 0 -77 -32t-32 -76q0 -46 31.5 -76.5t77.5 -30.5q47 0 77.5 30.5t30.5 76.5q0 45 -30.5 76.5t-77.5 31.5zM938 709v-146q0 -375 10 -563h-98
l-23 201h-12q-49 -107 -143.5 -164t-222.5 -57q-153 0 -245.5 81.5t-92.5 214.5q0 149 115 235.5t317 98.5l272 17v78q0 121 -79.5 184t-198.5 63q-112 0 -190 -55t-114 -154l-112 45q26 88 90 152t147.5 94.5t178.5 30.5q184 0 292.5 -91.5t108.5 -264.5zM463 92
q159 0 255.5 115t96.5 285v28l-264 -18q-148 -9 -233 -65.5t-85 -160.5q0 -84 62.5 -134t167.5 -50z" />
    <glyph glyph-name="ae" unicode="&#xe6;" horiz-adv-x="1806" 
d="M1704 547q0 -40 -6 -70h-756q9 -173 94.5 -279t227.5 -106q99 0 170 46.5t122 152.5l115 -45q-57 -133 -163.5 -199.5t-243.5 -66.5q-133 0 -233 70t-148 192q-107 -262 -412 -262q-167 0 -263.5 83t-96.5 220q0 146 111.5 225.5t305.5 79.5h289v53q0 143 -85.5 227
t-201.5 84q-119 0 -191 -56t-110 -165l-114 45q43 140 153.5 214.5t261.5 74.5q122 0 218.5 -58t144.5 -169q50 107 146.5 167t224.5 60q196 0 318 -135.5t122 -382.5zM942 588h641q-12 175 -95.5 269.5t-221.5 94.5q-139 0 -224 -98.5t-100 -265.5zM477 92q151 0 245.5 93
t94.5 253v39h-293q-149 0 -220 -48t-71 -146q0 -85 65 -138t179 -53z" />
    <glyph glyph-name="ccedilla" unicode="&#xe7;" horiz-adv-x="1107" 
d="M905 322l111 -46q-52 -135 -155.5 -209t-231.5 -85l-29 -86h10q92 0 146.5 -46t54.5 -124q0 -82 -60.5 -134.5t-170.5 -52.5q-107 0 -209 60l59 92q69 -49 150 -49q49 0 80.5 22.5t31.5 63.5q0 43 -30 64.5t-76 21.5q-32 0 -76 -13l-27 39l49 142q-191 19 -310.5 168
t-119.5 372q0 239 135 391t347 152q144 0 254.5 -73t165.5 -224l-113 -45q-48 121 -123.5 175t-183.5 54q-163 0 -261 -117.5t-98 -312.5t98 -312.5t261 -117.5q223 0 321 230z" />
    <glyph glyph-name="egrave" unicode="&#xe8;" horiz-adv-x="1136" 
d="M514 1444l119 -246h-105l-186 246h172zM1034 547q0 -30 -4 -70h-803q11 -176 107 -280.5t250 -104.5q211 0 301 199l114 -45q-57 -131 -165.5 -198.5t-249.5 -67.5q-144 0 -255 72t-169 194.5t-58 275.5t57 275.5t167 195t254 72.5q203 0 328.5 -136.5t125.5 -381.5z
M580 952q-148 0 -242 -98t-109 -264h682q-9 166 -99 264t-232 98z" />
    <glyph glyph-name="eacute" unicode="&#xe9;" horiz-adv-x="1136" 
d="M653 1444h172l-186 -246h-104zM1034 547q0 -30 -4 -70h-803q11 -176 107 -280.5t250 -104.5q211 0 301 199l114 -45q-57 -131 -165.5 -198.5t-249.5 -67.5q-144 0 -255 72t-169 194.5t-58 275.5t57 275.5t167 195t254 72.5q203 0 328.5 -136.5t125.5 -381.5zM580 952
q-148 0 -242 -98t-109 -264h682q-9 166 -99 264t-232 98z" />
    <glyph glyph-name="ecircumflex" unicode="&#xea;" horiz-adv-x="1136" 
d="M711 1198l-129 166l-136 -166h-149l219 246h135l219 -246h-159zM1034 547q0 -30 -4 -70h-803q11 -176 107 -280.5t250 -104.5q211 0 301 199l114 -45q-57 -131 -165.5 -198.5t-249.5 -67.5q-144 0 -255 72t-169 194.5t-58 275.5t57 275.5t167 195t254 72.5
q203 0 328.5 -136.5t125.5 -381.5zM580 952q-148 0 -242 -98t-109 -264h682q-9 166 -99 264t-232 98z" />
    <glyph glyph-name="edieresis" unicode="&#xeb;" horiz-adv-x="1136" 
d="M414 1212q-45 0 -76 29.5t-31 73.5t31 73t76 29t76.5 -29t31.5 -73t-31.5 -73.5t-76.5 -29.5zM750 1212q-45 0 -76 29.5t-31 73.5t31 73t76 29t76.5 -29t31.5 -73t-31.5 -73.5t-76.5 -29.5zM1034 547q0 -30 -4 -70h-803q11 -176 107 -280.5t250 -104.5q211 0 301 199
l114 -45q-57 -131 -165.5 -198.5t-249.5 -67.5q-144 0 -255 72t-169 194.5t-58 275.5t57 275.5t167 195t254 72.5q203 0 328.5 -136.5t125.5 -381.5zM580 952q-148 0 -242 -98t-109 -264h682q-9 166 -99 264t-232 98z" />
    <glyph glyph-name="igrave" unicode="&#xec;" horiz-adv-x="430" 
d="M264 1198h-104l-187 246h172zM276 0h-122v1044h122v-1044z" />
    <glyph glyph-name="iacute" unicode="&#xed;" horiz-adv-x="430" 
d="M270 1198h-104l119 246h172zM276 0h-122v1044h122v-1044z" />
    <glyph glyph-name="icircumflex" unicode="&#xee;" horiz-adv-x="430" 
d="M78 1198h-150l219 246h136l219 -246h-160l-129 166zM276 0h-122v1044h122v-1044z" />
    <glyph glyph-name="idieresis" unicode="&#xef;" horiz-adv-x="430" 
d="M90 1212q-45 0 -71.5 29.5t-26.5 73.5q0 43 27 72.5t71 29.5t71 -29.5t27 -72.5q0 -44 -26.5 -73.5t-71.5 -29.5zM338 1212q-45 0 -71.5 29.5t-26.5 73.5q0 43 27 72.5t71 29.5t71 -29.5t27 -72.5q0 -44 -26.5 -73.5t-71.5 -29.5zM276 0h-122v1044h122v-1044z" />
    <glyph glyph-name="eth" unicode="&#xf0;" horiz-adv-x="1124" 
d="M563 -20q-203 0 -332 139.5t-129 355.5q0 222 125.5 360t315.5 138q97 0 167.5 -31t129.5 -94l12 6q-63 208 -309 354l-221 -131l-70 78l184 109q-96 43 -209 75l72 95q138 -44 254 -103l176 103l64 -80l-142 -84q371 -254 371 -744q0 -116 -28 -213.5t-83 -172.5
t-144 -117.5t-204 -42.5zM563 92q156 0 246 108t90 275q0 176 -89 280.5t-247 104.5q-161 0 -249.5 -105.5t-88.5 -279.5q0 -166 90 -274.5t248 -108.5z" />
    <glyph glyph-name="ntilde" unicode="&#xf1;" horiz-adv-x="1175" 
d="M399 1188h-102v39q0 65 16 112t42 70.5t53 34t55 10.5q40 0 79.5 -22.5t65.5 -49t55.5 -49t51.5 -22.5q73 0 73 143h103v-47q0 -66 -15.5 -112t-42.5 -68t-53 -30.5t-55 -8.5q-41 0 -80.5 22.5t-65.5 49t-55 49t-51 22.5q-36 0 -55 -32t-19 -111zM276 0h-122v487
q0 352 -11 557h117l19 -172h12q52 88 146 140.5t198 52.5q188 0 292.5 -112t104.5 -328v-625h-123v610q0 170 -74.5 254t-211.5 84q-154 0 -250.5 -104t-96.5 -256v-588z" />
    <glyph glyph-name="ograve" unicode="&#xf2;" 
d="M633 1198h-105l-186 246h172zM584 -20q-212 0 -347 151.5t-135 390.5t135 391t347 152t346.5 -152t134.5 -391t-134.5 -390.5t-346.5 -151.5zM584 92q163 0 260.5 117.5t97.5 312.5t-97.5 312.5t-260.5 117.5t-261 -117.5t-98 -312.5t98 -312.5t261 -117.5z" />
    <glyph glyph-name="oacute" unicode="&#xf3;" 
d="M639 1198h-104l118 246h172zM584 -20q-212 0 -347 151.5t-135 390.5t135 391t347 152t346.5 -152t134.5 -391t-134.5 -390.5t-346.5 -151.5zM584 92q163 0 260.5 117.5t97.5 312.5t-97.5 312.5t-260.5 117.5t-261 -117.5t-98 -312.5t98 -312.5t261 -117.5z" />
    <glyph glyph-name="ocircumflex" unicode="&#xf4;" 
d="M446 1198h-149l219 246h135l219 -246h-159l-129 166zM584 -20q-212 0 -347 151.5t-135 390.5t135 391t347 152t346.5 -152t134.5 -391t-134.5 -390.5t-346.5 -151.5zM584 92q163 0 260.5 117.5t97.5 312.5t-97.5 312.5t-260.5 117.5t-261 -117.5t-98 -312.5t98 -312.5
t261 -117.5z" />
    <glyph glyph-name="otilde" unicode="&#xf5;" 
d="M389 1188h-102v39q0 65 16 112t42 70.5t53 34t55 10.5q40 0 79.5 -22.5t65.5 -49t55.5 -49t51.5 -22.5q73 0 73 143h103v-47q0 -66 -15.5 -112t-42.5 -68t-53 -30.5t-55 -8.5q-41 0 -80.5 22.5t-65.5 49t-55 49t-51 22.5q-36 0 -55 -32t-19 -111zM584 -20
q-212 0 -347 151.5t-135 390.5t135 391t347 152t346.5 -152t134.5 -391t-134.5 -390.5t-346.5 -151.5zM584 92q163 0 260.5 117.5t97.5 312.5t-97.5 312.5t-260.5 117.5t-261 -117.5t-98 -312.5t98 -312.5t261 -117.5z" />
    <glyph glyph-name="odieresis" unicode="&#xf6;" 
d="M414 1212q-45 0 -76 29.5t-31 73.5t31 73t76 29t76.5 -29t31.5 -73t-31.5 -73.5t-76.5 -29.5zM750 1212q-45 0 -76 29.5t-31 73.5t31 73t76 29t76.5 -29t31.5 -73t-31.5 -73.5t-76.5 -29.5zM584 -20q-212 0 -347 151.5t-135 390.5t135 391t347 152t346.5 -152t134.5 -391
t-134.5 -390.5t-346.5 -151.5zM584 92q163 0 260.5 117.5t97.5 312.5t-97.5 312.5t-260.5 117.5t-261 -117.5t-98 -312.5t98 -312.5t261 -117.5z" />
    <glyph glyph-name="divide" unicode="&#xf7;" horiz-adv-x="1036" 
d="M518 834q-49 0 -82 32t-33 78t33 78.5t82 32.5t82 -32.5t33 -78.5t-33 -78t-82 -32zM958 559h-880v113h880v-113zM518 176q-49 0 -82 32.5t-33 78.5t33 78t82 32t82 -32t33 -78t-33 -78.5t-82 -32.5z" />
    <glyph glyph-name="oslash" unicode="&#xf8;" 
d="M989 1106l-92 -158q80 -74 124 -185t44 -241q0 -153 -58 -275.5t-168.5 -194.5t-254.5 -72q-115 0 -215 49l-80 -142l-96 52l86 149q-85 74 -131 186.5t-46 247.5q0 114 34 213.5t96 172.5t153 115t199 42q121 0 225 -55l84 147zM225 522q0 -214 115 -332l414 719
q-73 43 -170 43q-164 0 -261.5 -118t-97.5 -312zM584 92q164 0 261 118t97 312q0 204 -106 322l-412 -715q70 -37 160 -37z" />
    <glyph glyph-name="ugrave" unicode="&#xf9;" horiz-adv-x="1175" 
d="M633 1198h-105l-186 246h172zM541 -20q-188 0 -293 112t-105 328v624h123v-610q0 -169 75 -253.5t212 -84.5q154 0 250 104t96 257v587h123v-487q0 -371 10 -557h-117l-18 172h-12q-52 -88 -146 -140t-198 -52z" />
    <glyph glyph-name="uacute" unicode="&#xfa;" horiz-adv-x="1175" 
d="M639 1198h-104l118 246h172zM541 -20q-188 0 -293 112t-105 328v624h123v-610q0 -169 75 -253.5t212 -84.5q154 0 250 104t96 257v587h123v-487q0 -371 10 -557h-117l-18 172h-12q-52 -88 -146 -140t-198 -52z" />
    <glyph glyph-name="ucircumflex" unicode="&#xfb;" horiz-adv-x="1175" 
d="M446 1198h-149l219 246h135l219 -246h-159l-129 166zM541 -20q-188 0 -293 112t-105 328v624h123v-610q0 -169 75 -253.5t212 -84.5q154 0 250 104t96 257v587h123v-487q0 -371 10 -557h-117l-18 172h-12q-52 -88 -146 -140t-198 -52z" />
    <glyph glyph-name="udieresis" unicode="&#xfc;" horiz-adv-x="1175" 
d="M414 1212q-45 0 -76 29.5t-31 73.5t31 73t76 29t76.5 -29t31.5 -73t-31.5 -73.5t-76.5 -29.5zM750 1212q-45 0 -76 29.5t-31 73.5t31 73t76 29t76.5 -29t31.5 -73t-31.5 -73.5t-76.5 -29.5zM541 -20q-188 0 -293 112t-105 328v624h123v-610q0 -169 75 -253.5t212 -84.5
q154 0 250 104t96 257v587h123v-487q0 -371 10 -557h-117l-18 172h-12q-52 -88 -146 -140t-198 -52z" />
    <glyph glyph-name="yacute" unicode="&#xfd;" horiz-adv-x="1034" 
d="M573 1198h-104l119 246h172zM416 -410h-127l162 404l-406 1050h133l336 -901h8l338 901h129z" />
    <glyph glyph-name="thorn" unicode="&#xfe;" horiz-adv-x="1196" 
d="M276 -410h-122v1844h122v-564h13q119 195 354 195q202 0 326.5 -151.5t124.5 -391.5t-124.5 -391t-326.5 -151q-235 0 -354 194h-13v-584zM623 92q158 0 253 118t95 312t-95 312t-253 118t-252.5 -118t-94.5 -312t94.5 -312t252.5 -118z" />
    <glyph glyph-name="ydieresis" unicode="&#xff;" horiz-adv-x="1034" 
d="M348 1212q-45 0 -75.5 29.5t-30.5 73.5t30.5 73t75.5 29t77 -29t32 -73t-32 -73.5t-77 -29.5zM684 1212q-45 0 -75.5 29.5t-30.5 73.5t30.5 73t75.5 29t77 -29t32 -73t-32 -73.5t-77 -29.5zM416 -410h-127l162 404l-406 1050h133l336 -901h8l338 901h129z" />
    <glyph glyph-name="Amacron" unicode="&#x100;" horiz-adv-x="1325" 
d="M408 1767h512v-108h-512v108zM1280 0h-131l-127 348h-723l-127 -348h-127l530 1434h173zM655 1325l-315 -864h641l-317 864h-9z" />
    <glyph glyph-name="amacron" unicode="&#x101;" horiz-adv-x="1085" 
d="M291 1378h512v-108h-512v108zM938 709v-146q0 -375 10 -563h-98l-23 201h-12q-49 -107 -143.5 -164t-222.5 -57q-153 0 -245.5 81.5t-92.5 214.5q0 149 115 235.5t317 98.5l272 17v78q0 121 -79.5 184t-198.5 63q-112 0 -190 -55t-114 -154l-112 45q26 88 90 152
t147.5 94.5t178.5 30.5q184 0 292.5 -91.5t108.5 -264.5zM463 92q159 0 255.5 115t96.5 285v28l-264 -18q-148 -9 -233 -65.5t-85 -160.5q0 -84 62.5 -134t167.5 -50z" />
    <glyph glyph-name="Abreve" unicode="&#x102;" horiz-adv-x="1325" 
d="M664 1577q-126 0 -199.5 71t-73.5 185h113q0 -66 42 -106.5t118 -40.5q77 0 118 40t41 107h113q0 -114 -73 -185t-199 -71zM1280 0h-131l-127 348h-723l-127 -348h-127l530 1434h173zM655 1325l-315 -864h641l-317 864h-9z" />
    <glyph glyph-name="abreve" unicode="&#x103;" horiz-adv-x="1085" 
d="M547 1188q-126 0 -199.5 71t-73.5 185h113q0 -66 42 -107t118 -41q77 0 118.5 40.5t41.5 107.5h112q0 -114 -73 -185t-199 -71zM938 709v-146q0 -375 10 -563h-98l-23 201h-12q-49 -107 -143.5 -164t-222.5 -57q-153 0 -245.5 81.5t-92.5 214.5q0 149 115 235.5t317 98.5
l272 17v78q0 121 -79.5 184t-198.5 63q-112 0 -190 -55t-114 -154l-112 45q26 88 90 152t147.5 94.5t178.5 30.5q184 0 292.5 -91.5t108.5 -264.5zM463 92q159 0 255.5 115t96.5 285v28l-264 -18q-148 -9 -233 -65.5t-85 -160.5q0 -84 62.5 -134t167.5 -50z" />
    <glyph glyph-name="Aogonek" unicode="&#x104;" horiz-adv-x="1325" 
d="M1280 0h-25q-83 -54 -128.5 -120.5t-45.5 -121.5q0 -86 97 -86q31 0 77 11v-113q-33 -10 -100 -10q-89 0 -143 46t-54 142q0 134 189 256l-125 344h-723l-127 -348h-127l530 1434h173zM655 1325l-315 -864h641l-317 864h-9z" />
    <glyph glyph-name="aogonek" unicode="&#x105;" horiz-adv-x="1085" 
d="M948 0h-2q-83 -54 -128.5 -120.5t-45.5 -121.5q0 -86 96 -86q32 0 78 11v-113q-33 -10 -100 -10q-89 0 -143 46t-54 142q0 140 199 262l-21 191h-12q-49 -107 -143.5 -164t-222.5 -57q-153 0 -245.5 81.5t-92.5 214.5q0 149 115 235.5t317 98.5l272 17v78
q0 121 -79.5 184t-198.5 63q-112 0 -190 -55t-114 -154l-112 45q26 88 90 152t147.5 94.5t178.5 30.5q184 0 292.5 -91.5t108.5 -264.5v-146q0 -375 10 -563zM463 92q159 0 255.5 115t96.5 285v28l-264 -18q-148 -9 -233 -65.5t-85 -160.5q0 -84 62.5 -134t167.5 -50z" />
    <glyph glyph-name="Cacute" unicode="&#x106;" horiz-adv-x="1384" 
d="M784 1587h-104l119 246h172zM731 -20q-184 0 -325 93.5t-217 261t-76 382.5t76 382.5t217 261t325 93.5q175 0 321 -98t220 -301l-115 -45q-119 331 -426 331q-222 0 -358.5 -168.5t-136.5 -455.5t136.5 -456t358.5 -169q315 0 436 332l115 -45q-41 -106 -103 -184.5
t-135.5 -124.5t-151.5 -68t-161 -22z" />
    <glyph glyph-name="cacute" unicode="&#x107;" horiz-adv-x="1107" 
d="M641 1198h-104l118 246h172zM584 -20q-212 0 -347 151.5t-135 390.5t135 391t347 152q144 0 254.5 -73t165.5 -224l-113 -45q-48 121 -123.5 175t-183.5 54q-163 0 -261 -117.5t-98 -312.5t98 -312.5t261 -117.5q223 0 321 230l111 -46q-56 -148 -173 -222t-259 -74z" />
    <glyph glyph-name="Ccircumflex" unicode="&#x108;" horiz-adv-x="1384" 
d="M592 1587h-150l220 246h135l219 -246h-160l-129 166zM731 -20q-184 0 -325 93.5t-217 261t-76 382.5t76 382.5t217 261t325 93.5q175 0 321 -98t220 -301l-115 -45q-119 331 -426 331q-222 0 -358.5 -168.5t-136.5 -455.5t136.5 -456t358.5 -169q315 0 436 332l115 -45
q-41 -106 -103 -184.5t-135.5 -124.5t-151.5 -68t-161 -22z" />
    <glyph glyph-name="ccircumflex" unicode="&#x109;" horiz-adv-x="1107" 
d="M449 1198h-150l219 246h135l219 -246h-159l-129 166zM584 -20q-212 0 -347 151.5t-135 390.5t135 391t347 152q144 0 254.5 -73t165.5 -224l-113 -45q-48 121 -123.5 175t-183.5 54q-163 0 -261 -117.5t-98 -312.5t98 -312.5t261 -117.5q223 0 321 230l111 -46
q-56 -148 -173 -222t-259 -74z" />
    <glyph glyph-name="Cdotaccent" unicode="&#x10a;" horiz-adv-x="1384" 
d="M729 1597q-46 0 -78.5 31t-32.5 76t32.5 76.5t78.5 31.5t78.5 -31.5t32.5 -76.5t-32.5 -76t-78.5 -31zM731 -20q-184 0 -325 93.5t-217 261t-76 382.5t76 382.5t217 261t325 93.5q175 0 321 -98t220 -301l-115 -45q-119 331 -426 331q-222 0 -358.5 -168.5t-136.5 -455.5
t136.5 -456t358.5 -169q315 0 436 332l115 -45q-41 -106 -103 -184.5t-135.5 -124.5t-151.5 -68t-161 -22z" />
    <glyph glyph-name="cdotaccent" unicode="&#x10b;" horiz-adv-x="1107" 
d="M586 1208q-46 0 -78.5 31t-32.5 76t32.5 76.5t78.5 31.5t78 -31t32 -77q0 -45 -32 -76t-78 -31zM584 -20q-212 0 -347 151.5t-135 390.5t135 391t347 152q144 0 254.5 -73t165.5 -224l-113 -45q-48 121 -123.5 175t-183.5 54q-163 0 -261 -117.5t-98 -312.5t98 -312.5
t261 -117.5q223 0 321 230l111 -46q-56 -148 -173 -222t-259 -74z" />
    <glyph glyph-name="Ccaron" unicode="&#x10c;" horiz-adv-x="1384" 
d="M797 1587h-135l-220 246h160l129 -166l135 166h150zM731 -20q-184 0 -325 93.5t-217 261t-76 382.5t76 382.5t217 261t325 93.5q175 0 321 -98t220 -301l-115 -45q-119 331 -426 331q-222 0 -358.5 -168.5t-136.5 -455.5t136.5 -456t358.5 -169q315 0 436 332l115 -45
q-41 -106 -103 -184.5t-135.5 -124.5t-151.5 -68t-161 -22z" />
    <glyph glyph-name="ccaron" unicode="&#x10d;" horiz-adv-x="1107" 
d="M653 1198h-135l-219 246h160l129 -166l135 166h149zM584 -20q-212 0 -347 151.5t-135 390.5t135 391t347 152q144 0 254.5 -73t165.5 -224l-113 -45q-48 121 -123.5 175t-183.5 54q-163 0 -261 -117.5t-98 -312.5t98 -312.5t261 -117.5q223 0 321 230l111 -46
q-56 -148 -173 -222t-259 -74z" />
    <glyph glyph-name="Dcaron" unicode="&#x10e;" horiz-adv-x="1372" 
d="M725 1587h-135l-219 246h159l129 -166l136 166h149zM598 0h-422v1434h422q192 0 342.5 -89t235 -252.5t84.5 -375.5t-84.5 -375.5t-235 -252.5t-342.5 -89zM299 1321v-1208h299q244 0 391.5 162.5t147.5 441.5t-147.5 441.5t-391.5 162.5h-299z" />
    <glyph glyph-name="dcaron" unicode="&#x10f;" horiz-adv-x="1333" 
d="M553 -20q-202 0 -326.5 151t-124.5 391t124.5 391.5t326.5 151.5q235 0 354 -195h13v564h122v-877q0 -352 11 -557h-115l-18 174h-13q-119 -194 -354 -194zM1237 1055h-72l21 379h137zM573 92q158 0 252.5 118t94.5 312t-94.5 312t-252.5 118t-253 -118t-95 -312t95 -312
t253 -118z" />
    <glyph glyph-name="Dcroat" unicode="&#x110;" horiz-adv-x="1492" 
d="M297 1434h422q192 0 342 -89t234.5 -252.5t84.5 -375.5t-84.5 -375.5t-234.5 -252.5t-342 -89h-422v666h-266v102h266v666zM420 113h299q244 0 391 162.5t147 441.5t-147 441.5t-391 162.5h-299v-553h420v-102h-420v-553z" />
    <glyph glyph-name="dcroat" unicode="&#x111;" horiz-adv-x="1257" 
d="M1247 1280v-102h-205v-621q0 -352 11 -557h-115l-18 174h-13q-119 -194 -354 -194q-202 0 -326.5 151t-124.5 391t124.5 391.5t326.5 151.5q235 0 354 -195h13v308h-349v102h349v154h122v-154h205zM573 92q158 0 252.5 118t94.5 312t-94.5 312t-252.5 118t-253 -118
t-95 -312t95 -312t253 -118z" />
    <glyph glyph-name="Emacron" unicode="&#x112;" horiz-adv-x="1220" 
d="M899 1659h-512v108h512v-108zM1087 0h-911v1434h911v-113h-788v-526h707v-113h-707v-569h788v-113z" />
    <glyph glyph-name="emacron" unicode="&#x113;" horiz-adv-x="1136" 
d="M328 1378h512v-108h-512v108zM1034 547q0 -30 -4 -70h-803q11 -176 107 -280.5t250 -104.5q211 0 301 199l114 -45q-57 -131 -165.5 -198.5t-249.5 -67.5q-144 0 -255 72t-169 194.5t-58 275.5t57 275.5t167 195t254 72.5q203 0 328.5 -136.5t125.5 -381.5zM580 952
q-148 0 -242 -98t-109 -264h682q-9 166 -99 264t-232 98z" />
    <glyph glyph-name="Ebreve" unicode="&#x114;" horiz-adv-x="1220" 
d="M643 1577q-126 0 -199 71t-73 185h112q0 -66 42 -106.5t118 -40.5q77 0 118.5 40t41.5 107h112q0 -114 -73 -185t-199 -71zM1087 0h-911v1434h911v-113h-788v-526h707v-113h-707v-569h788v-113z" />
    <glyph glyph-name="ebreve" unicode="&#x115;" horiz-adv-x="1136" 
d="M584 1188q-126 0 -199.5 71t-73.5 185h113q0 -66 42 -107t118 -41q77 0 118 40.5t41 107.5h113q0 -114 -73 -185t-199 -71zM1034 547q0 -30 -4 -70h-803q11 -176 107 -280.5t250 -104.5q211 0 301 199l114 -45q-57 -131 -165.5 -198.5t-249.5 -67.5q-144 0 -255 72
t-169 194.5t-58 275.5t57 275.5t167 195t254 72.5q203 0 328.5 -136.5t125.5 -381.5zM580 952q-148 0 -242 -98t-109 -264h682q-9 166 -99 264t-232 98z" />
    <glyph glyph-name="Edotaccent" unicode="&#x116;" horiz-adv-x="1220" 
d="M643 1597q-46 0 -78.5 31t-32.5 76t32.5 76.5t78.5 31.5t78.5 -31.5t32.5 -76.5t-32.5 -76t-78.5 -31zM1087 0h-911v1434h911v-113h-788v-526h707v-113h-707v-569h788v-113z" />
    <glyph glyph-name="edotaccent" unicode="&#x117;" horiz-adv-x="1136" 
d="M584 1208q-46 0 -78.5 31t-32.5 76t32.5 76.5t78.5 31.5t78 -31t32 -77q0 -45 -32 -76t-78 -31zM1034 547q0 -30 -4 -70h-803q11 -176 107 -280.5t250 -104.5q211 0 301 199l114 -45q-57 -131 -165.5 -198.5t-249.5 -67.5q-144 0 -255 72t-169 194.5t-58 275.5t57 275.5
t167 195t254 72.5q203 0 328.5 -136.5t125.5 -381.5zM580 952q-148 0 -242 -98t-109 -264h682q-9 166 -99 264t-232 98z" />
    <glyph glyph-name="Eogonek" unicode="&#x118;" horiz-adv-x="1220" 
d="M1087 1434v-113h-788v-526h707v-113h-707v-569h788v-113q-83 -54 -128.5 -120.5t-45.5 -121.5q0 -86 97 -86q31 0 77 11v-113q-33 -10 -100 -10q-89 0 -142.5 46t-53.5 142q0 135 184 252h-799v1434h911z" />
    <glyph glyph-name="eogonek" unicode="&#x119;" horiz-adv-x="1136" 
d="M1034 547q0 -30 -4 -70h-803q11 -176 107 -280.5t250 -104.5q211 0 301 199l114 -45q-86 -199 -290 -252q-79 -53 -122.5 -118t-43.5 -118q0 -86 96 -86q32 0 78 11v-113q-33 -10 -101 -10q-89 0 -142.5 46t-53.5 142q0 121 153 232q-141 3 -249.5 75.5t-165 194
t-56.5 272.5q0 153 57 275.5t167 195t254 72.5q203 0 328.5 -136.5t125.5 -381.5zM580 952q-148 0 -242 -98t-109 -264h682q-9 166 -99 264t-232 98z" />
    <glyph glyph-name="Ecaron" unicode="&#x11a;" horiz-adv-x="1220" 
d="M711 1587h-136l-219 246h160l129 -166l135 166h150zM1087 0h-911v1434h911v-113h-788v-526h707v-113h-707v-569h788v-113z" />
    <glyph glyph-name="ecaron" unicode="&#x11b;" horiz-adv-x="1136" 
d="M870 1444l-219 -246h-135l-219 246h160l129 -166l135 166h149zM1034 547q0 -30 -4 -70h-803q11 -176 107 -280.5t250 -104.5q211 0 301 199l114 -45q-57 -131 -165.5 -198.5t-249.5 -67.5q-144 0 -255 72t-169 194.5t-58 275.5t57 275.5t167 195t254 72.5
q203 0 328.5 -136.5t125.5 -381.5zM580 952q-148 0 -242 -98t-109 -264h682q-9 166 -99 264t-232 98z" />
    <glyph glyph-name="Gcircumflex" unicode="&#x11c;" horiz-adv-x="1429" 
d="M592 1587h-150l220 246h135l219 -246h-160l-129 166zM745 -20q-144 0 -263 54.5t-200 151.5t-125 233t-44 298q0 216 76 383t217.5 260.5t328.5 93.5q400 0 551 -375l-112 -43q-60 156 -172.5 230.5t-266.5 74.5q-226 0 -362.5 -168t-136.5 -456q0 -289 137.5 -457
t371.5 -168q264 0 414 180v346l-389 19v102h512v-503q-93 -126 -231 -191t-306 -65z" />
    <glyph glyph-name="gcircumflex" unicode="&#x11d;" horiz-adv-x="1196" 
d="M438 1198h-149l219 246h135l219 -246h-160l-129 166zM610 -430q-162 0 -283 67t-173 201l116 45q71 -200 340 -200q141 0 225.5 77.5t84.5 210.5v244h-13q-119 -195 -354 -195q-202 0 -326.5 146t-124.5 377t124.5 376.5t326.5 145.5q235 0 354 -195h13l18 174h115
q-11 -205 -11 -557v-522q0 -174 -115 -284.5t-317 -110.5zM573 133q158 0 252.5 112.5t94.5 297.5t-94.5 297t-252.5 112q-157 0 -252.5 -112.5t-95.5 -296.5q0 -185 95.5 -297.5t252.5 -112.5z" />
    <glyph glyph-name="Gbreve" unicode="&#x11e;" horiz-adv-x="1429" 
d="M729 1577q-126 0 -199 71t-73 185h112q0 -66 42 -106.5t118 -40.5q77 0 118.5 40t41.5 107h112q0 -114 -73 -185t-199 -71zM745 -20q-144 0 -263 54.5t-200 151.5t-125 233t-44 298q0 216 76 383t217.5 260.5t328.5 93.5q400 0 551 -375l-112 -43q-60 156 -172.5 230.5
t-266.5 74.5q-226 0 -362.5 -168t-136.5 -456q0 -289 137.5 -457t371.5 -168q264 0 414 180v346l-389 19v102h512v-503q-93 -126 -231 -191t-306 -65z" />
    <glyph glyph-name="gbreve" unicode="&#x11f;" horiz-adv-x="1196" 
d="M575 1188q-126 0 -199 71t-73 185h113q0 -67 41.5 -107.5t117.5 -40.5q77 0 118.5 40.5t41.5 107.5h113q0 -114 -73.5 -185t-199.5 -71zM610 -430q-162 0 -283 67t-173 201l116 45q71 -200 340 -200q141 0 225.5 77.5t84.5 210.5v244h-13q-119 -195 -354 -195
q-202 0 -326.5 146t-124.5 377t124.5 376.5t326.5 145.5q235 0 354 -195h13l18 174h115q-11 -205 -11 -557v-522q0 -174 -115 -284.5t-317 -110.5zM573 133q158 0 252.5 112.5t94.5 297.5t-94.5 297t-252.5 112q-157 0 -252.5 -112.5t-95.5 -296.5q0 -185 95.5 -297.5
t252.5 -112.5z" />
    <glyph glyph-name="Gdotaccent" unicode="&#x120;" horiz-adv-x="1429" 
d="M729 1597q-46 0 -78.5 31t-32.5 76t32.5 76.5t78.5 31.5t78.5 -31.5t32.5 -76.5t-32.5 -76t-78.5 -31zM745 -20q-144 0 -263 54.5t-200 151.5t-125 233t-44 298q0 216 76 383t217.5 260.5t328.5 93.5q400 0 551 -375l-112 -43q-60 156 -172.5 230.5t-266.5 74.5
q-226 0 -362.5 -168t-136.5 -456q0 -289 137.5 -457t371.5 -168q264 0 414 180v346l-389 19v102h512v-503q-93 -126 -231 -191t-306 -65z" />
    <glyph glyph-name="gdotaccent" unicode="&#x121;" horiz-adv-x="1196" 
d="M575 1208q-46 0 -78 31t-32 76q0 46 32 77t78 31t78.5 -31.5t32.5 -76.5t-32.5 -76t-78.5 -31zM610 -430q-162 0 -283 67t-173 201l116 45q71 -200 340 -200q141 0 225.5 77.5t84.5 210.5v244h-13q-119 -195 -354 -195q-202 0 -326.5 146t-124.5 377t124.5 376.5
t326.5 145.5q235 0 354 -195h13l18 174h115q-11 -205 -11 -557v-522q0 -174 -115 -284.5t-317 -110.5zM573 133q158 0 252.5 112.5t94.5 297.5t-94.5 297t-252.5 112q-157 0 -252.5 -112.5t-95.5 -296.5q0 -185 95.5 -297.5t252.5 -112.5z" />
    <glyph glyph-name="uni0122" unicode="&#x122;" horiz-adv-x="1429" 
d="M745 -20q-144 0 -263 54.5t-200 151.5t-125 233t-44 298q0 216 76 383t217.5 260.5t328.5 93.5q400 0 551 -375l-112 -43q-60 156 -172.5 230.5t-266.5 74.5q-226 0 -362.5 -168t-136.5 -456q0 -289 137.5 -457t371.5 -168q264 0 414 180v346l-389 19v102h512v-503
q-93 -126 -231 -191t-306 -65zM721 -379h-111l78 266h150z" />
    <glyph glyph-name="uni0123" unicode="&#x123;" horiz-adv-x="1196" 
d="M647 1198h-143l110 246h105zM610 -430q-162 0 -283 67t-173 201l116 45q71 -200 340 -200q141 0 225.5 77.5t84.5 210.5v244h-13q-119 -195 -354 -195q-202 0 -326.5 146t-124.5 377t124.5 376.5t326.5 145.5q235 0 354 -195h13l18 174h115q-11 -205 -11 -557v-522
q0 -174 -115 -284.5t-317 -110.5zM573 133q158 0 252.5 112.5t94.5 297.5t-94.5 297t-252.5 112q-157 0 -252.5 -112.5t-95.5 -296.5q0 -185 95.5 -297.5t252.5 -112.5z" />
    <glyph glyph-name="Hcircumflex" unicode="&#x124;" horiz-adv-x="1413" 
d="M571 1587h-149l219 246h135l219 -246h-159l-129 166zM299 0h-123v1434h123v-650h815v650h123v-1434h-123v672h-815v-672z" />
    <glyph glyph-name="hcircumflex" unicode="&#x125;" horiz-adv-x="1175" 
d="M502 1587h-160l-129 166l-135 -166h-150l219 246h136zM635 1065q188 0 292.5 -112t104.5 -328v-625h-123v610q0 170 -74.5 254t-211.5 84q-154 0 -250.5 -104t-96.5 -256v-588h-122v1434h122v-328l-4 -234h19q52 89 146 141t198 52z" />
    <glyph glyph-name="Hbar" unicode="&#x126;" horiz-adv-x="1589" 
d="M387 0h-123v1067h-223v102h223v265h123v-265h815v265h123v-265h223v-102h-223v-1067h-123v672h-815v-672zM387 1067v-283h815v283h-815z" />
    <glyph glyph-name="hbar" unicode="&#x127;" horiz-adv-x="1236" 
d="M696 1065q188 0 293 -112t105 -328v-625h-123v610q0 169 -75 253.5t-212 84.5q-154 0 -250 -103.5t-96 -256.5v-588h-123v1178h-205v102h205v154h123v-154h348v-102h-348v-72l-4 -234h18q52 89 146 141t198 52z" />
    <glyph glyph-name="Itilde" unicode="&#x128;" horiz-adv-x="475" 
d="M43 1577h-102v39q0 52 11 93t27.5 65.5t39 40.5t44 22t43.5 6q40 0 79.5 -22.5t65.5 -49t55.5 -49t51.5 -22.5q74 0 74 143h103v-47q0 -66 -15.5 -112t-42.5 -68t-53 -30.5t-55 -8.5q-41 0 -80.5 22.5t-65.5 49t-55 49t-51 22.5q-36 0 -55 -32t-19 -111zM299 0h-123v1434
h123v-1434z" />
    <glyph glyph-name="itilde" unicode="&#x129;" horiz-adv-x="430" 
d="M20 1188h-102v39q0 65 16 112t42 70.5t53 34t55 10.5q40 0 79.5 -22.5t65.5 -49t55.5 -49t51.5 -22.5q74 0 74 143h102v-47q0 -66 -15.5 -112t-42.5 -68t-53 -30.5t-55 -8.5q-41 0 -80.5 22.5t-65.5 49t-55 49t-51 22.5q-36 0 -55 -32t-19 -111zM276 0h-122v1044h122
v-1044z" />
    <glyph glyph-name="Imacron" unicode="&#x12a;" horiz-adv-x="475" 
d="M494 1659h-512v108h512v-108zM299 0h-123v1434h123v-1434z" />
    <glyph glyph-name="imacron" unicode="&#x12b;" horiz-adv-x="430" 
d="M471 1270h-512v108h512v-108zM276 0h-122v1044h122v-1044z" />
    <glyph glyph-name="Ibreve" unicode="&#x12c;" horiz-adv-x="475" 
d="M238 1577q-126 0 -199.5 71t-73.5 185h113q0 -66 42 -106.5t118 -40.5q77 0 118 40t41 107h113q0 -114 -73 -185t-199 -71zM299 0h-123v1434h123v-1434z" />
    <glyph glyph-name="ibreve" unicode="&#x12d;" horiz-adv-x="430" 
d="M215 1188q-126 0 -199 71t-73 185h112q0 -66 42 -107t118 -41q77 0 118.5 40.5t41.5 107.5h112q0 -114 -73 -185t-199 -71zM276 0h-122v1044h122v-1044z" />
    <glyph glyph-name="Iogonek" unicode="&#x12e;" horiz-adv-x="475" 
d="M299 1434v-1434q-83 -54 -128.5 -120.5t-45.5 -121.5q0 -86 96 -86q32 0 78 11v-113q-33 -10 -100 -10q-89 0 -143 46t-54 142q0 135 184 252h-10v1434h123z" />
    <glyph glyph-name="iogonek" unicode="&#x12f;" horiz-adv-x="430" 
d="M215 1423q46 0 78.5 -31.5t32.5 -76.5t-32.5 -76t-78.5 -31t-78.5 31t-32.5 76t32.5 76.5t78.5 31.5zM164 0h-10v1044h122v-1044q-83 -54 -128.5 -120.5t-45.5 -121.5q0 -86 97 -86q31 0 77 11v-113q-33 -10 -100 -10q-89 0 -142.5 46t-53.5 142q0 135 184 252z" />
    <glyph glyph-name="Idotaccent" unicode="&#x130;" horiz-adv-x="475" 
d="M238 1597q-46 0 -78.5 31t-32.5 76t32.5 76.5t78.5 31.5t78 -31t32 -77q0 -45 -32 -76t-78 -31zM299 0h-123v1434h123v-1434z" />
    <glyph glyph-name="dotlessi" unicode="&#x131;" horiz-adv-x="430" 
d="M276 0h-122v1044h122v-1044z" />
    <glyph glyph-name="IJ" unicode="&#x132;" horiz-adv-x="1437" 
d="M299 0h-123v1434h123v-1434zM840 0h-265v113h256q143 0 225.5 89.5t82.5 266.5v965h123v-963q0 -227 -115.5 -349t-306.5 -122z" />
    <glyph glyph-name="ij" unicode="&#x133;" horiz-adv-x="925" 
d="M215 1208q-46 0 -78.5 31t-32.5 76t32.5 76.5t78.5 31.5t78.5 -31.5t32.5 -76.5t-32.5 -76t-78.5 -31zM711 1208q-46 0 -78.5 31t-32.5 76t32.5 76.5t78.5 31.5t78 -31t32 -77q0 -45 -32 -76t-78 -31zM276 0h-122v1044h122v-1044zM524 -430q-121 0 -207 59l54 97
q66 -45 143 -45q62 0 98.5 37.5t36.5 109.5v1216h123v-1222q0 -122 -68.5 -187t-179.5 -65z" />
    <glyph glyph-name="Jcircumflex" unicode="&#x134;" horiz-adv-x="1105" 
d="M731 1587h-149l219 246h135l219 -246h-160l-129 166zM498 -20q-160 0 -276 78t-167 223l115 43q78 -232 328 -232q145 0 227 86t82 250v1006h123v-1004q0 -213 -119.5 -331.5t-312.5 -118.5z" />
    <glyph glyph-name="jcircumflex" unicode="&#x135;" horiz-adv-x="526" 
d="M174 1198h-149l219 246h135l219 -246h-160l-129 166zM125 -430q-121 0 -207 59l53 97q66 -45 144 -45q62 0 98.5 37.5t36.5 109.5v1216h123v-1222q0 -122 -68.5 -187t-179.5 -65z" />
    <glyph glyph-name="uni0136" unicode="&#x136;" horiz-adv-x="1234" 
d="M299 0h-123v1434h123v-699l702 699h156l-711 -703l738 -731h-172l-713 715v-715zM606 -379h-110l77 266h150z" />
    <glyph glyph-name="uni0137" unicode="&#x137;" horiz-adv-x="1052" 
d="M276 0h-122v1434h122v-887l547 497h164l-557 -501l571 -543h-176l-549 526v-526zM504 -379h-111l78 266h150z" />
    <glyph glyph-name="kgreenlandic" unicode="&#x138;" horiz-adv-x="1050" 
d="M276 0h-122v1044h122v-497l547 497h166l-559 -503l569 -541h-174l-549 526v-526z" />
    <glyph glyph-name="Lacute" unicode="&#x139;" horiz-adv-x="1120" 
d="M293 1587h-105l119 246h172zM1049 0h-873v1434h123v-1321h750v-113z" />
    <glyph glyph-name="lacute" unicode="&#x13a;" horiz-adv-x="430" 
d="M270 1587h-104l119 246h172zM276 0h-122v1434h122v-1434z" />
    <glyph glyph-name="uni013B" unicode="&#x13b;" horiz-adv-x="1120" 
d="M1049 0h-873v1434h123v-1321h750v-113zM592 -379h-111l78 266h150z" />
    <glyph glyph-name="uni013C" unicode="&#x13c;" horiz-adv-x="430" 
d="M276 0h-122v1434h122v-1434zM172 -379h-111l78 266h150z" />
    <glyph glyph-name="Lcaron" unicode="&#x13d;" horiz-adv-x="1120" 
d="M1049 0h-873v1434h123v-1321h750v-113zM494 1055h-72l20 379h138z" />
    <glyph glyph-name="lcaron" unicode="&#x13e;" horiz-adv-x="567" 
d="M276 0h-122v1434h122v-1434zM471 1055h-72l21 379h137z" />
    <glyph glyph-name="Ldot" unicode="&#x13f;" horiz-adv-x="1120" 
d="M1049 0h-873v1434h123v-1321h750v-113zM799 659q-50 0 -83.5 31.5t-33.5 81.5t33.5 81.5t83.5 31.5t83 -31.5t33 -81.5t-33 -81.5t-83 -31.5z" />
    <glyph glyph-name="ldot" unicode="&#x140;" horiz-adv-x="643" 
d="M276 0h-122v1434h122v-1434zM537 543q-50 0 -83.5 31t-33.5 81t33.5 81.5t83.5 31.5t83 -31.5t33 -81.5t-33 -81t-83 -31z" />
    <glyph glyph-name="Lslash" unicode="&#x141;" horiz-adv-x="1271" 
d="M1200 0h-893v559l-246 -131v119l246 131v756h123v-691l420 224v-119l-420 -223v-512h770v-113z" />
    <glyph glyph-name="lslash" unicode="&#x142;" horiz-adv-x="655" 
d="M389 0h-123v584l-205 -109v117l205 108v734h123v-666l205 109v-117l-205 -109v-651z" />
    <glyph glyph-name="Nacute" unicode="&#x143;" horiz-adv-x="1447" 
d="M780 1587h-104l119 246h172zM299 0h-123v1434h133l840 -1235h8q-8 213 -8 446v789h123v-1434h-133l-840 1235h-8q8 -216 8 -447v-788z" />
    <glyph glyph-name="nacute" unicode="&#x144;" horiz-adv-x="1175" 
d="M649 1198h-104l119 246h172zM276 0h-122v487q0 352 -11 557h117l19 -172h12q52 88 146 140.5t198 52.5q188 0 292.5 -112t104.5 -328v-625h-123v610q0 170 -74.5 254t-211.5 84q-154 0 -250.5 -104t-96.5 -256v-588z" />
    <glyph glyph-name="uni0145" unicode="&#x145;" horiz-adv-x="1447" 
d="M299 0h-123v1434h133l840 -1235h8q-8 213 -8 446v789h123v-1434h-133l-840 1235h-8q8 -216 8 -447v-788zM682 -379h-111l78 266h150z" />
    <glyph glyph-name="uni0146" unicode="&#x146;" horiz-adv-x="1175" 
d="M276 0h-122v487q0 352 -11 557h117l19 -172h12q52 88 146 140.5t198 52.5q188 0 292.5 -112t104.5 -328v-625h-123v610q0 170 -74.5 254t-211.5 84q-154 0 -250.5 -104t-96.5 -256v-588zM551 -379h-111l78 266h150z" />
    <glyph glyph-name="Ncaron" unicode="&#x147;" horiz-adv-x="1447" 
d="M793 1587h-136l-219 246h160l129 -166l135 166h150zM299 0h-123v1434h133l840 -1235h8q-8 213 -8 446v789h123v-1434h-133l-840 1235h-8q8 -216 8 -447v-788z" />
    <glyph glyph-name="ncaron" unicode="&#x148;" horiz-adv-x="1175" 
d="M662 1198h-136l-219 246h160l129 -166l135 166h150zM276 0h-122v487q0 352 -11 557h117l19 -172h12q52 88 146 140.5t198 52.5q188 0 292.5 -112t104.5 -328v-625h-123v610q0 170 -74.5 254t-211.5 84q-154 0 -250.5 -104t-96.5 -256v-588z" />
    <glyph glyph-name="napostrophe" unicode="&#x149;" horiz-adv-x="1175" 
d="M229 1171h-71l20 379h137zM276 0h-122v487q0 352 -11 557h117l19 -172h12q52 88 146 140.5t198 52.5q188 0 292.5 -112t104.5 -328v-625h-123v610q0 170 -74.5 254t-211.5 84q-154 0 -250.5 -104t-96.5 -256v-588z" />
    <glyph glyph-name="Eng" unicode="&#x14a;" horiz-adv-x="1447" 
d="M1024 -430q-121 0 -207 59l53 97q66 -45 144 -45q62 0 98.5 37.5t36.5 109.5v158l-850 1249h-8q8 -216 8 -447v-788h-123v1434h133l840 -1235h8q-8 213 -8 446v789h123v-1612q0 -122 -68.5 -187t-179.5 -65z" />
    <glyph glyph-name="eng" unicode="&#x14b;" horiz-adv-x="1175" 
d="M784 -430q-120 0 -206 59l53 97q66 -45 143 -45q62 0 98.5 37.5t36.5 109.5v782q0 170 -74.5 254t-211.5 84q-154 0 -250.5 -104t-96.5 -256v-588h-122v487q0 352 -11 557h117l19 -172h12q52 88 146 140.5t198 52.5q188 0 292.5 -112t104.5 -328v-803q0 -122 -68.5 -187
t-179.5 -65z" />
    <glyph glyph-name="Omacron" unicode="&#x14c;" horiz-adv-x="1458" 
d="M987 1659h-512v108h512v-108zM731 -20q-183 0 -324 93.5t-217.5 261t-76.5 382.5t76.5 382.5t217.5 261t324 93.5t323 -93t216 -260.5t76 -383.5t-76 -383.5t-216 -260.5t-323 -93zM731 92q220 0 356 169t136 456t-136 455.5t-356 168.5q-221 0 -358 -168.5t-137 -455.5
t137 -456t358 -169z" />
    <glyph glyph-name="omacron" unicode="&#x14d;" 
d="M840 1270h-512v108h512v-108zM584 -20q-212 0 -347 151.5t-135 390.5t135 391t347 152t346.5 -152t134.5 -391t-134.5 -390.5t-346.5 -151.5zM584 92q163 0 260.5 117.5t97.5 312.5t-97.5 312.5t-260.5 117.5t-261 -117.5t-98 -312.5t98 -312.5t261 -117.5z" />
    <glyph glyph-name="Obreve" unicode="&#x14e;" horiz-adv-x="1458" 
d="M731 1577q-126 0 -199 71t-73 185h112q0 -66 42 -106.5t118 -40.5q77 0 118.5 40t41.5 107h113q0 -114 -73.5 -185t-199.5 -71zM731 -20q-183 0 -324 93.5t-217.5 261t-76.5 382.5t76.5 382.5t217.5 261t324 93.5t323 -93t216 -260.5t76 -383.5t-76 -383.5t-216 -260.5
t-323 -93zM731 92q220 0 356 169t136 456t-136 455.5t-356 168.5q-221 0 -358 -168.5t-137 -455.5t137 -456t358 -169z" />
    <glyph glyph-name="obreve" unicode="&#x14f;" 
d="M584 1188q-126 0 -199.5 71t-73.5 185h113q0 -66 42 -107t118 -41q77 0 118 40.5t41 107.5h113q0 -114 -73 -185t-199 -71zM584 -20q-212 0 -347 151.5t-135 390.5t135 391t347 152t346.5 -152t134.5 -391t-134.5 -390.5t-346.5 -151.5zM584 92q163 0 260.5 117.5
t97.5 312.5t-97.5 312.5t-260.5 117.5t-261 -117.5t-98 -312.5t98 -312.5t261 -117.5z" />
    <glyph glyph-name="Ohungarumlaut" unicode="&#x150;" horiz-adv-x="1458" 
d="M641 1587h-104l118 246h172zM926 1587h-105l119 246h172zM731 -20q-183 0 -324 93.5t-217.5 261t-76.5 382.5t76.5 382.5t217.5 261t324 93.5t323 -93t216 -260.5t76 -383.5t-76 -383.5t-216 -260.5t-323 -93zM731 92q220 0 356 169t136 456t-136 455.5t-356 168.5
q-221 0 -358 -168.5t-137 -455.5t137 -456t358 -169z" />
    <glyph glyph-name="ohungarumlaut" unicode="&#x151;" 
d="M494 1198h-105l119 246h172zM778 1198h-104l119 246h172zM584 -20q-212 0 -347 151.5t-135 390.5t135 391t347 152t346.5 -152t134.5 -391t-134.5 -390.5t-346.5 -151.5zM584 92q163 0 260.5 117.5t97.5 312.5t-97.5 312.5t-260.5 117.5t-261 -117.5t-98 -312.5
t98 -312.5t261 -117.5z" />
    <glyph glyph-name="OE" unicode="&#x152;" horiz-adv-x="1904" 
d="M1772 0h-1010q-189 0 -336.5 89.5t-230 253t-82.5 374.5t82.5 374.5t230 253t336.5 89.5h1010v-113h-691v-526h609v-113h-609v-569h691v-113zM764 113h194v1208h-194q-246 0 -387 -161.5t-141 -442.5t141 -442.5t387 -161.5z" />
    <glyph glyph-name="oe" unicode="&#x153;" horiz-adv-x="1902" 
d="M1800 547q0 -40 -6 -70h-756q9 -173 94.5 -279t227.5 -106q100 0 171 46.5t122 152.5l114 -45q-57 -133 -163.5 -199.5t-243.5 -66.5q-138 0 -240 74.5t-147 203.5q-55 -131 -160 -204.5t-246 -73.5q-205 0 -335 151.5t-130 390.5t130 391t335 152q139 0 244 -72.5
t160 -201.5q43 128 145.5 201t243.5 73q196 0 318 -135.5t122 -382.5zM567 92q154 0 248 117.5t94 312.5t-94 312.5t-248 117.5t-248 -117.5t-94 -312.5t93.5 -312.5t248.5 -117.5zM1038 588h641q-12 175 -95.5 269.5t-221.5 94.5q-139 0 -224 -98.5t-100 -265.5z" />
    <glyph glyph-name="Racute" unicode="&#x154;" horiz-adv-x="1282" 
d="M698 1587h-104l119 246h172zM299 0h-123v1434h545q192 0 310 -114t118 -312q0 -160 -81.5 -263.5t-221.5 -136.5l323 -608h-139l-307 596h-424v-596zM299 1321v-614h416q141 0 226 79t85 224t-85.5 228t-225.5 83h-416z" />
    <glyph glyph-name="racute" unicode="&#x155;" horiz-adv-x="768" 
d="M496 1444h172l-187 -246h-104zM651 1065q33 0 56 -2v-119q-27 2 -56 2q-56 0 -107 -12.5t-101 -44t-86 -79.5t-58.5 -125t-22.5 -175v-510h-122v487q0 352 -11 557h117l21 -192h12q47 102 140.5 157.5t217.5 55.5z" />
    <glyph glyph-name="uni0156" unicode="&#x156;" horiz-adv-x="1282" 
d="M299 0h-123v1434h545q192 0 310 -114t118 -312q0 -160 -81.5 -263.5t-221.5 -136.5l323 -608h-139l-307 596h-424v-596zM299 1321v-614h416q141 0 226 79t85 224t-85.5 228t-225.5 83h-416zM631 -379h-111l78 266h150z" />
    <glyph glyph-name="uni0157" unicode="&#x157;" horiz-adv-x="768" 
d="M651 1065q33 0 56 -2v-119q-27 2 -56 2q-56 0 -107 -12.5t-101 -44t-86 -79.5t-58.5 -125t-22.5 -175v-510h-122v487q0 352 -11 557h117l21 -192h12q47 102 140.5 157.5t217.5 55.5zM143 -379h-110l78 266h149z" />
    <glyph glyph-name="Rcaron" unicode="&#x158;" horiz-adv-x="1282" 
d="M711 1587h-136l-219 246h160l129 -166l135 166h150zM299 0h-123v1434h545q192 0 310 -114t118 -312q0 -160 -81.5 -263.5t-221.5 -136.5l323 -608h-139l-307 596h-424v-596zM299 1321v-614h416q141 0 226 79t85 224t-85.5 228t-225.5 83h-416z" />
    <glyph glyph-name="rcaron" unicode="&#x159;" horiz-adv-x="768" 
d="M713 1444l-219 -246h-136l-219 246h160l129 -166l135 166h150zM281 852h12q47 102 140.5 157.5t217.5 55.5q33 0 56 -2v-119q-27 2 -56 2q-56 0 -107 -12.5t-101 -44t-86 -79.5t-58.5 -125t-22.5 -175v-510h-122v487q0 352 -11 557h117z" />
    <glyph glyph-name="Sacute" unicode="&#x15a;" horiz-adv-x="1228" 
d="M666 1587h-105l119 246h172zM655 -20q-189 0 -337 86.5t-205 242.5l110 45q55 -131 170 -196.5t262 -65.5q166 0 257.5 73t91.5 195q0 67 -29.5 118t-79.5 83.5t-114.5 57.5t-136.5 45.5t-143.5 42.5t-136 54t-114.5 74t-79.5 108.5t-29.5 152.5q0 161 125.5 259.5
t333.5 98.5q174 0 305.5 -82t184.5 -229l-109 -43q-41 116 -145 178.5t-236 62.5q-159 0 -247.5 -69t-88.5 -176q0 -65 29.5 -114.5t79.5 -81t114.5 -56t136 -45t143 -43t136 -55t114.5 -75.5t79.5 -111t29.5 -155q0 -178 -130.5 -279t-340.5 -101z" />
    <glyph glyph-name="sacute" unicode="&#x15b;" horiz-adv-x="993" 
d="M545 1198h-105l119 246h172zM524 -20q-158 0 -271 70.5t-151 193.5l109 43q28 -90 112.5 -144.5t200.5 -54.5q117 0 180.5 48t63.5 132q0 58 -35 97.5t-91.5 61t-124.5 39t-136.5 39.5t-125 53t-91.5 89t-35 139q0 124 99.5 201.5t254.5 77.5q138 0 239.5 -65t139.5 -179
l-108 -43q-29 84 -100.5 131t-170.5 47q-111 0 -171 -48t-60 -122q0 -50 27.5 -87t72.5 -57t102.5 -38.5t117 -31.5t117 -37.5t102.5 -55.5t72.5 -85t27.5 -126q0 -133 -103.5 -210.5t-263.5 -77.5z" />
    <glyph glyph-name="Scircumflex" unicode="&#x15c;" horiz-adv-x="1228" 
d="M473 1587h-149l219 246h135l219 -246h-160l-129 166zM655 -20q-189 0 -337 86.5t-205 242.5l110 45q55 -131 170 -196.5t262 -65.5q166 0 257.5 73t91.5 195q0 67 -29.5 118t-79.5 83.5t-114.5 57.5t-136.5 45.5t-143.5 42.5t-136 54t-114.5 74t-79.5 108.5t-29.5 152.5
q0 161 125.5 259.5t333.5 98.5q174 0 305.5 -82t184.5 -229l-109 -43q-41 116 -145 178.5t-236 62.5q-159 0 -247.5 -69t-88.5 -176q0 -65 29.5 -114.5t79.5 -81t114.5 -56t136 -45t143 -43t136 -55t114.5 -75.5t79.5 -111t29.5 -155q0 -178 -130.5 -279t-340.5 -101z" />
    <glyph glyph-name="scircumflex" unicode="&#x15d;" horiz-adv-x="993" 
d="M352 1198h-149l219 246h135l219 -246h-160l-129 166zM524 -20q-158 0 -271 70.5t-151 193.5l109 43q28 -90 112.5 -144.5t200.5 -54.5q117 0 180.5 48t63.5 132q0 58 -35 97.5t-91.5 61t-124.5 39t-136.5 39.5t-125 53t-91.5 89t-35 139q0 124 99.5 201.5t254.5 77.5
q138 0 239.5 -65t139.5 -179l-108 -43q-29 84 -100.5 131t-170.5 47q-111 0 -171 -48t-60 -122q0 -50 27.5 -87t72.5 -57t102.5 -38.5t117 -31.5t117 -37.5t102.5 -55.5t72.5 -85t27.5 -126q0 -133 -103.5 -210.5t-263.5 -77.5z" />
    <glyph glyph-name="Scedilla" unicode="&#x15e;" horiz-adv-x="1228" 
d="M1126 360q0 -171 -122.5 -272.5t-321.5 -107.5l-29 -84h11q92 0 146 -46t54 -124q0 -82 -60.5 -134.5t-170.5 -52.5q-107 0 -209 60l59 92q69 -49 150 -49q49 0 80.5 22.5t31.5 63.5q0 43 -30 64.5t-76 21.5q-32 0 -76 -13l-26 39l49 144q-167 14 -294.5 99t-178.5 226
l110 45q55 -131 170 -196.5t262 -65.5q166 0 257.5 73t91.5 195q0 67 -29.5 118t-79.5 83.5t-114.5 57.5t-136.5 45.5t-143.5 42.5t-136 54t-114.5 74t-79.5 108.5t-29.5 152.5q0 161 125.5 259.5t333.5 98.5q174 0 305.5 -82t184.5 -229l-109 -43q-41 116 -145 178.5
t-236 62.5q-159 0 -247.5 -69t-88.5 -176q0 -65 29.5 -114.5t79.5 -81t114.5 -56t136 -45t143 -43t136 -55t114.5 -75.5t79.5 -111t29.5 -155z" />
    <glyph glyph-name="scedilla" unicode="&#x15f;" horiz-adv-x="993" 
d="M891 268q0 -126 -92.5 -202t-239.5 -84l-29 -86h11q92 0 146 -46t54 -124q0 -82 -60.5 -134.5t-170.5 -52.5q-107 0 -209 60l59 92q69 -49 150 -49q49 0 81 22.5t32 63.5q0 43 -30.5 64.5t-76.5 21.5q-32 0 -76 -13l-26 39l49 142q-135 14 -230.5 83t-130.5 179l109 43
q28 -90 112.5 -144.5t200.5 -54.5q117 0 180.5 48t63.5 132q0 58 -35 97.5t-91.5 61t-124.5 39t-136.5 39.5t-125 53t-91.5 89t-35 139q0 124 99.5 201.5t254.5 77.5q138 0 239.5 -65t139.5 -179l-108 -43q-29 84 -100.5 131t-170.5 47q-111 0 -171 -48t-60 -122
q0 -50 27.5 -87t72.5 -57t102.5 -38.5t117 -31.5t117 -37.5t102.5 -55.5t72.5 -85t27.5 -126z" />
    <glyph glyph-name="Scaron" unicode="&#x160;" horiz-adv-x="1228" 
d="M678 1587h-135l-219 246h159l129 -166l136 166h149zM655 -20q-189 0 -337 86.5t-205 242.5l110 45q55 -131 170 -196.5t262 -65.5q166 0 257.5 73t91.5 195q0 67 -29.5 118t-79.5 83.5t-114.5 57.5t-136.5 45.5t-143.5 42.5t-136 54t-114.5 74t-79.5 108.5t-29.5 152.5
q0 161 125.5 259.5t333.5 98.5q174 0 305.5 -82t184.5 -229l-109 -43q-41 116 -145 178.5t-236 62.5q-159 0 -247.5 -69t-88.5 -176q0 -65 29.5 -114.5t79.5 -81t114.5 -56t136 -45t143 -43t136 -55t114.5 -75.5t79.5 -111t29.5 -155q0 -178 -130.5 -279t-340.5 -101z" />
    <glyph glyph-name="scaron" unicode="&#x161;" horiz-adv-x="993" 
d="M557 1198h-135l-219 246h159l130 -166l135 166h149zM524 -20q-158 0 -271 70.5t-151 193.5l109 43q28 -90 112.5 -144.5t200.5 -54.5q117 0 180.5 48t63.5 132q0 58 -35 97.5t-91.5 61t-124.5 39t-136.5 39.5t-125 53t-91.5 89t-35 139q0 124 99.5 201.5t254.5 77.5
q138 0 239.5 -65t139.5 -179l-108 -43q-29 84 -100.5 131t-170.5 47q-111 0 -171 -48t-60 -122q0 -50 27.5 -87t72.5 -57t102.5 -38.5t117 -31.5t117 -37.5t102.5 -55.5t72.5 -85t27.5 -126q0 -133 -103.5 -210.5t-263.5 -77.5z" />
    <glyph glyph-name="uni0162" unicode="&#x162;" horiz-adv-x="1224" 
d="M674 1321v-1321h-12l-35 -104h10q92 0 146.5 -46t54.5 -124q0 -81 -61 -134t-171 -53q-107 0 -209 60l60 92q69 -49 149 -49q49 0 81 22.5t32 63.5q0 43 -30.5 64.5t-76.5 21.5q-31 0 -75 -13l-27 39l55 160h-14v1321h-490v113h1102v-113h-489z" />
    <glyph glyph-name="uni0163" unicode="&#x163;" horiz-adv-x="849" 
d="M561 -104h10q92 0 146.5 -46t54.5 -124q0 -82 -60.5 -134.5t-170.5 -52.5q-107 0 -209 60l59 92q69 -49 150 -49q49 0 80.5 22.5t31.5 63.5q0 43 -30 64.5t-76 21.5q-32 0 -76 -13l-27 39l50 144q-97 15 -152 87t-55 191v670h-209v112h217l43 277h74v-277h325v-112h-327
v-662q0 -90 40.5 -135t108.5 -45q87 0 154 45l51 -92q-77 -52 -174 -61z" />
    <glyph glyph-name="Tcaron" unicode="&#x164;" horiz-adv-x="1224" 
d="M680 1587h-135l-219 246h159l129 -166l136 166h149zM674 0h-123v1321h-490v113h1102v-113h-489v-1321z" />
    <glyph glyph-name="tcaron" unicode="&#x165;" horiz-adv-x="907" 
d="M631 1157h-72l21 379h137zM545 -20q-119 0 -188.5 74t-69.5 208v670h-209v112h217l43 277h74v-277h325v-112h-327v-662q0 -90 40.5 -135t108.5 -45q87 0 154 45l51 -92q-95 -63 -219 -63z" />
    <glyph glyph-name="Tbar" unicode="&#x166;" horiz-adv-x="1224" 
d="M1163 1434v-113h-489v-553h338v-102h-338v-666h-123v666h-338v102h338v553h-490v113h1102z" />
    <glyph glyph-name="tbar" unicode="&#x167;" horiz-adv-x="849" 
d="M713 135l51 -92q-95 -63 -219 -63q-119 0 -188.5 74t-69.5 208v230h-199v102h199v338h-209v112h217l43 277h74v-277h325v-112h-327v-338h317v-102h-317v-222q0 -90 40.5 -135t108.5 -45q87 0 154 45z" />
    <glyph glyph-name="Utilde" unicode="&#x168;" horiz-adv-x="1413" 
d="M514 1577h-102v39q0 65 16 112t42 70.5t53 34t55 10.5q40 0 79.5 -22.5t65 -49t55 -49t51.5 -22.5q74 0 74 143h103v-47q0 -66 -15.5 -112t-42.5 -68t-53 -30.5t-55 -8.5q-41 0 -80.5 22.5t-65.5 49t-55 49t-51 22.5q-36 0 -55 -32t-19 -111zM707 -20q-112 0 -207 36.5
t-168 107t-114.5 184t-41.5 259.5v867h123v-867q0 -103 22 -185t60 -135.5t90.5 -89t111 -50.5t124.5 -15t124 15t111 50.5t90.5 89t59.5 135.5t22 185v867h123v-867q0 -146 -41.5 -259.5t-114 -184t-167.5 -107t-207 -36.5z" />
    <glyph glyph-name="utilde" unicode="&#x169;" horiz-adv-x="1175" 
d="M389 1188h-102v39q0 65 16 112t42 70.5t53 34t55 10.5q40 0 79.5 -22.5t65.5 -49t55.5 -49t51.5 -22.5q73 0 73 143h103v-47q0 -66 -15.5 -112t-42.5 -68t-53 -30.5t-55 -8.5q-41 0 -80.5 22.5t-65.5 49t-55 49t-51 22.5q-36 0 -55 -32t-19 -111zM541 -20
q-188 0 -293 112t-105 328v624h123v-610q0 -169 75 -253.5t212 -84.5q154 0 250 104t96 257v587h123v-487q0 -371 10 -557h-117l-18 172h-12q-52 -88 -146 -140t-198 -52z" />
    <glyph glyph-name="Umacron" unicode="&#x16a;" horiz-adv-x="1413" 
d="M965 1659h-512v108h512v-108zM707 -20q-112 0 -207 36.5t-168 107t-114.5 184t-41.5 259.5v867h123v-867q0 -103 22 -185t60 -135.5t90.5 -89t111 -50.5t124.5 -15t124 15t111 50.5t90.5 89t59.5 135.5t22 185v867h123v-867q0 -146 -41.5 -259.5t-114 -184t-167.5 -107
t-207 -36.5z" />
    <glyph glyph-name="umacron" unicode="&#x16b;" horiz-adv-x="1175" 
d="M840 1270h-512v108h512v-108zM541 -20q-188 0 -293 112t-105 328v624h123v-610q0 -169 75 -253.5t212 -84.5q154 0 250 104t96 257v587h123v-487q0 -371 10 -557h-117l-18 172h-12q-52 -88 -146 -140t-198 -52z" />
    <glyph glyph-name="Ubreve" unicode="&#x16c;" horiz-adv-x="1413" 
d="M709 1577q-126 0 -199.5 71t-73.5 185h113q0 -66 42 -106.5t118 -40.5q77 0 118 40t41 107h113q0 -114 -73 -185t-199 -71zM707 -20q-112 0 -207 36.5t-168 107t-114.5 184t-41.5 259.5v867h123v-867q0 -103 22 -185t60 -135.5t90.5 -89t111 -50.5t124.5 -15t124 15
t111 50.5t90.5 89t59.5 135.5t22 185v867h123v-867q0 -146 -41.5 -259.5t-114 -184t-167.5 -107t-207 -36.5z" />
    <glyph glyph-name="ubreve" unicode="&#x16d;" horiz-adv-x="1175" 
d="M584 1188q-126 0 -199.5 71t-73.5 185h113q0 -66 42 -107t118 -41q77 0 118 40.5t41 107.5h113q0 -114 -73 -185t-199 -71zM541 -20q-188 0 -293 112t-105 328v624h123v-610q0 -169 75 -253.5t212 -84.5q154 0 250 104t96 257v587h123v-487q0 -371 10 -557h-117l-18 172
h-12q-52 -88 -146 -140t-198 -52z" />
    <glyph glyph-name="Uring" unicode="&#x16e;" horiz-adv-x="1413" 
d="M709 1552q-86 0 -143.5 53.5t-57.5 135.5t57.5 136t143.5 54t143 -54t57 -136t-57 -135.5t-143 -53.5zM709 1634q47 0 77.5 30.5t30.5 76.5q0 45 -30.5 76.5t-77.5 31.5q-45 0 -77 -31.5t-32 -76.5q0 -46 31.5 -76.5t77.5 -30.5zM707 -20q-112 0 -207 36.5t-168 107
t-114.5 184t-41.5 259.5v867h123v-867q0 -103 22 -185t60 -135.5t90.5 -89t111 -50.5t124.5 -15t124 15t111 50.5t90.5 89t59.5 135.5t22 185v867h123v-867q0 -146 -41.5 -259.5t-114 -184t-167.5 -107t-207 -36.5z" />
    <glyph glyph-name="uring" unicode="&#x16f;" horiz-adv-x="1175" 
d="M584 1163q-86 0 -143.5 53.5t-57.5 135.5t57.5 136t143.5 54t143 -54t57 -136t-57 -135.5t-143 -53.5zM584 1245q47 0 77.5 30.5t30.5 76.5q0 45 -30.5 76.5t-77.5 31.5q-46 0 -77.5 -32t-31.5 -76q0 -46 31.5 -76.5t77.5 -30.5zM541 -20q-188 0 -293 112t-105 328v624
h123v-610q0 -169 75 -253.5t212 -84.5q154 0 250 104t96 257v587h123v-487q0 -371 10 -557h-117l-18 172h-12q-52 -88 -146 -140t-198 -52z" />
    <glyph glyph-name="Uhungarumlaut" unicode="&#x170;" horiz-adv-x="1413" 
d="M618 1587h-104l119 246h172zM903 1587h-104l119 246h172zM707 -20q-112 0 -207 36.5t-168 107t-114.5 184t-41.5 259.5v867h123v-867q0 -103 22 -185t60 -135.5t90.5 -89t111 -50.5t124.5 -15t124 15t111 50.5t90.5 89t59.5 135.5t22 185v867h123v-867
q0 -146 -41.5 -259.5t-114 -184t-167.5 -107t-207 -36.5z" />
    <glyph glyph-name="uhungarumlaut" unicode="&#x171;" horiz-adv-x="1175" 
d="M494 1198h-105l119 246h172zM778 1198h-104l119 246h172zM541 -20q-188 0 -293 112t-105 328v624h123v-610q0 -169 75 -253.5t212 -84.5q154 0 250 104t96 257v587h123v-487q0 -371 10 -557h-117l-18 172h-12q-52 -88 -146 -140t-198 -52z" />
    <glyph glyph-name="Uogonek" unicode="&#x172;" horiz-adv-x="1413" 
d="M1114 567v867h123v-867q0 -245 -110 -390.5t-293 -184.5q-78 -53 -120 -117t-42 -117q0 -86 96 -86q32 0 78 11v-113q-33 -10 -101 -10q-89 0 -142.5 46t-53.5 142q0 121 153 232q-111 1 -205.5 37.5t-166.5 107t-113 184t-41 258.5v867h123v-867q0 -103 22 -185
t60 -135.5t90.5 -89t111 -50.5t124.5 -15t124 15t111 50.5t90.5 89t59.5 135.5t22 185z" />
    <glyph glyph-name="uogonek" unicode="&#x173;" horiz-adv-x="1175" 
d="M858 -242q0 -86 96 -86q32 0 78 11v-113q-33 -10 -100 -10q-89 0 -143 46t-54 142q0 134 185 252h-5l-18 172h-12q-52 -88 -146 -140t-198 -52q-188 0 -293 112t-105 328v624h123v-610q0 -169 75 -253.5t212 -84.5q154 0 250 104t96 257v587h123v-487q0 -371 10 -557
q-83 -54 -128.5 -120.5t-45.5 -121.5z" />
    <glyph glyph-name="Wcircumflex" unicode="&#x174;" horiz-adv-x="1884" 
d="M809 1587h-150l220 246h135l219 -246h-160l-129 166zM600 0h-162l-387 1434h125l344 -1319h6l344 1319h150l344 -1319h6l344 1319h119l-387 -1434h-162l-340 1305h-4z" />
    <glyph glyph-name="wcircumflex" unicode="&#x175;" horiz-adv-x="1439" 
d="M584 1198h-150l219 246h135l220 -246h-160l-129 166zM489 0h-145l-299 1044h127l244 -901h6l227 901h154l221 -901h8l244 901h119l-299 -1044h-146l-223 911h-8z" />
    <glyph glyph-name="Ycircumflex" unicode="&#x176;" horiz-adv-x="1259" 
d="M494 1587h-150l219 246h135l220 -246h-160l-129 166zM694 0h-123v567l-520 867h144l438 -754h8l432 754h135l-514 -865v-569z" />
    <glyph glyph-name="ycircumflex" unicode="&#x177;" horiz-adv-x="1034" 
d="M381 1198h-150l220 246h135l219 -246h-160l-129 166zM416 -410h-127l162 404l-406 1050h133l336 -901h8l338 901h129z" />
    <glyph glyph-name="Ydieresis" unicode="&#x178;" horiz-adv-x="1259" 
d="M461 1602q-45 0 -76 29t-31 73t31 73t76 29t76.5 -29t31.5 -73t-31.5 -73t-76.5 -29zM797 1602q-45 0 -76 29t-31 73t31 73t76 29t76.5 -29t31.5 -73t-31.5 -73t-76.5 -29zM694 0h-123v567l-520 867h144l438 -754h8l432 754h135l-514 -865v-569z" />
    <glyph glyph-name="Zacute" unicode="&#x179;" horiz-adv-x="1208" 
d="M659 1587h-104l119 246h172zM1106 0h-1004v113l838 1200v8h-821v113h971v-113l-838 -1200v-8h854v-113z" />
    <glyph glyph-name="zacute" unicode="&#x17a;" horiz-adv-x="974" 
d="M543 1198h-105l119 246h172zM872 0h-770v100l605 828v8h-588v108h737v-100l-604 -827v-8h620v-109z" />
    <glyph glyph-name="Zdotaccent" unicode="&#x17b;" horiz-adv-x="1208" 
d="M604 1597q-46 0 -78 31t-32 76q0 46 32 77t78 31t78.5 -31.5t32.5 -76.5t-32.5 -76t-78.5 -31zM1106 0h-1004v113l838 1200v8h-821v113h971v-113l-838 -1200v-8h854v-113z" />
    <glyph glyph-name="zdotaccent" unicode="&#x17c;" horiz-adv-x="974" 
d="M487 1208q-46 0 -78 31t-32 76q0 46 32 77t78 31t78.5 -31.5t32.5 -76.5t-32.5 -76t-78.5 -31zM872 0h-770v100l605 828v8h-588v108h737v-100l-604 -827v-8h620v-109z" />
    <glyph glyph-name="Zcaron" unicode="&#x17d;" horiz-adv-x="1208" 
d="M672 1587h-135l-220 246h160l129 -166l135 166h150zM1106 0h-1004v113l838 1200v8h-821v113h971v-113l-838 -1200v-8h854v-113z" />
    <glyph glyph-name="zcaron" unicode="&#x17e;" horiz-adv-x="974" 
d="M555 1198h-135l-219 246h159l129 -166l136 166h149zM872 0h-770v100l605 828v8h-588v108h737v-100l-604 -827v-8h620v-109z" />
    <glyph glyph-name="uni018F" unicode="&#x18f;" horiz-adv-x="1409" 
d="M676 1454q185 0 326.5 -93.5t217.5 -260.5t76 -383q0 -215 -76 -382.5t-217 -261t-325 -93.5q-177 0 -306 86t-194 235.5t-65 345.5q0 78 2 121h1056q-12 265 -146.5 419t-348.5 154q-313 0 -434 -299l-115 45q54 128 145.5 212.5t191.5 119.5t212 35zM678 92
q209 0 343.5 151.5t149.5 411.5h-944q0 -264 115 -413.5t336 -149.5z" />
    <glyph glyph-name="florin" unicode="&#x192;" horiz-adv-x="923" 
d="M70 -410h-101v113h105q62 0 105 39.5t52 103.5l148 955h-211v112h231l41 263q19 123 91 190.5t196 67.5h104v-113h-112q-62 0 -102.5 -39t-51.5 -104l-43 -265h269v-112h-287l-150 -951q-19 -124 -91 -192t-193 -68z" />
    <glyph glyph-name="uni019D" unicode="&#x19d;" horiz-adv-x="1447" 
d="M51 -430q-121 0 -207 59l54 97q66 -45 143 -45q62 0 98.5 37.5t36.5 109.5v1606h133l840 -1235h8q-8 213 -8 446v789h123v-1434h-133l-840 1235h-8q8 -216 8 -447v-966q0 -122 -68.5 -187t-179.5 -65z" />
    <glyph glyph-name="uni01CD" unicode="&#x1cd;" horiz-adv-x="1325" 
d="M950 1833l-219 -246h-135l-219 246h160l129 -166l135 166h149zM1280 0h-131l-127 348h-723l-127 -348h-127l530 1434h173zM655 1325l-315 -864h641l-317 864h-9z" />
    <glyph glyph-name="uni01CE" unicode="&#x1ce;" horiz-adv-x="1085" 
d="M834 1444l-220 -246h-135l-219 246h160l129 -166l135 166h150zM938 709v-146q0 -375 10 -563h-98l-23 201h-12q-49 -107 -143.5 -164t-222.5 -57q-153 0 -245.5 81.5t-92.5 214.5q0 149 115 235.5t317 98.5l272 17v78q0 121 -79.5 184t-198.5 63q-112 0 -190 -55
t-114 -154l-112 45q26 88 90 152t147.5 94.5t178.5 30.5q184 0 292.5 -91.5t108.5 -264.5zM463 92q159 0 255.5 115t96.5 285v28l-264 -18q-148 -9 -233 -65.5t-85 -160.5q0 -84 62.5 -134t167.5 -50z" />
    <glyph glyph-name="uni01CF" unicode="&#x1cf;" horiz-adv-x="475" 
d="M305 1587h-135l-219 246h160l129 -166l135 166h149zM299 0h-123v1434h123v-1434z" />
    <glyph glyph-name="uni01D0" unicode="&#x1d0;" horiz-adv-x="430" 
d="M283 1198h-136l-219 246h160l129 -166l135 166h150zM276 0h-122v1044h122v-1044z" />
    <glyph glyph-name="uni01D1" unicode="&#x1d1;" horiz-adv-x="1458" 
d="M799 1587h-135l-220 246h160l129 -166l135 166h150zM731 -20q-183 0 -324 93.5t-217.5 261t-76.5 382.5t76.5 382.5t217.5 261t324 93.5t323 -93t216 -260.5t76 -383.5t-76 -383.5t-216 -260.5t-323 -93zM731 92q220 0 356 169t136 456t-136 455.5t-356 168.5
q-221 0 -358 -168.5t-137 -455.5t137 -456t358 -169z" />
    <glyph glyph-name="uni01D2" unicode="&#x1d2;" 
d="M651 1198h-135l-219 246h160l129 -166l135 166h149zM584 -20q-212 0 -347 151.5t-135 390.5t135 391t347 152t346.5 -152t134.5 -391t-134.5 -390.5t-346.5 -151.5zM584 92q163 0 260.5 117.5t97.5 312.5t-97.5 312.5t-260.5 117.5t-261 -117.5t-98 -312.5t98 -312.5
t261 -117.5z" />
    <glyph glyph-name="uni01D3" unicode="&#x1d3;" horiz-adv-x="1413" 
d="M776 1587h-135l-219 246h160l129 -166l135 166h149zM707 -20q-112 0 -207 36.5t-168 107t-114.5 184t-41.5 259.5v867h123v-867q0 -103 22 -185t60 -135.5t90.5 -89t111 -50.5t124.5 -15t124 15t111 50.5t90.5 89t59.5 135.5t22 185v867h123v-867q0 -146 -41.5 -259.5
t-114 -184t-167.5 -107t-207 -36.5z" />
    <glyph glyph-name="uni01D4" unicode="&#x1d4;" horiz-adv-x="1175" 
d="M651 1198h-135l-219 246h160l129 -166l135 166h149zM541 -20q-188 0 -293 112t-105 328v624h123v-610q0 -169 75 -253.5t212 -84.5q154 0 250 104t96 257v587h123v-487q0 -371 10 -557h-117l-18 172h-12q-52 -88 -146 -140t-198 -52z" />
    <glyph glyph-name="Gcaron" unicode="&#x1e6;" horiz-adv-x="1429" 
d="M797 1587h-135l-220 246h160l129 -166l135 166h150zM745 -20q-144 0 -263 54.5t-200 151.5t-125 233t-44 298q0 216 76 383t217.5 260.5t328.5 93.5q400 0 551 -375l-112 -43q-60 156 -172.5 230.5t-266.5 74.5q-226 0 -362.5 -168t-136.5 -456q0 -289 137.5 -457
t371.5 -168q264 0 414 180v346l-389 19v102h512v-503q-93 -126 -231 -191t-306 -65z" />
    <glyph glyph-name="gcaron" unicode="&#x1e7;" horiz-adv-x="1196" 
d="M643 1198h-135l-219 246h160l129 -166l135 166h149zM610 -430q-162 0 -283 67t-173 201l116 45q71 -200 340 -200q141 0 225.5 77.5t84.5 210.5v244h-13q-119 -195 -354 -195q-202 0 -326.5 146t-124.5 377t124.5 376.5t326.5 145.5q235 0 354 -195h13l18 174h115
q-11 -205 -11 -557v-522q0 -174 -115 -284.5t-317 -110.5zM573 133q158 0 252.5 112.5t94.5 297.5t-94.5 297t-252.5 112q-157 0 -252.5 -112.5t-95.5 -296.5q0 -185 95.5 -297.5t252.5 -112.5z" />
    <glyph glyph-name="uni01EA" unicode="&#x1ea;" horiz-adv-x="1458" 
d="M891 0q-83 -54 -128.5 -120.5t-45.5 -121.5q0 -86 96 -86q32 0 78 11v-113q-33 -10 -100 -10q-89 0 -143 46t-54 142q0 121 154 232h-17q-183 0 -324 93.5t-217.5 261t-76.5 382.5t76.5 382.5t217.5 261t324 93.5t323 -93t216 -260.5t76 -383.5q0 -277 -122.5 -469
t-332.5 -248zM236 717q0 -287 137 -456t358 -169q220 0 356 169t136 456t-136 455.5t-356 168.5q-221 0 -358 -168.5t-137 -455.5z" />
    <glyph glyph-name="uni01EB" unicode="&#x1eb;" 
d="M717 -2q-82 -54 -126 -120t-44 -120q0 -86 96 -86q32 0 78 11v-113q-33 -10 -100 -10q-89 0 -143 46t-54 142q0 121 154 232q-210 3 -343 154t-133 388q0 239 135 391t347 152t346.5 -152t134.5 -391q0 -199 -94.5 -340t-253.5 -184zM225 522q0 -195 98 -312.5
t261 -117.5t260.5 117.5t97.5 312.5t-97.5 312.5t-260.5 117.5t-261 -117.5t-98 -312.5z" />
    <glyph glyph-name="Aringacute" unicode="&#x1fa;" horiz-adv-x="1325" 
d="M664 1505q-93 0 -152 41t-59 115q0 65 45 105t120 49l60 151h164l-123 -154q71 -11 113 -49.5t42 -101.5q0 -74 -58.5 -115t-151.5 -41zM664 1745q-52 0 -85.5 -23.5t-33.5 -60.5q0 -38 33 -61t86 -23t85.5 23t32.5 61q0 37 -33 60.5t-85 23.5zM1280 0h-131l-127 348
h-723l-127 -348h-127l530 1434h173zM655 1325l-315 -864h641l-317 864h-9z" />
    <glyph glyph-name="aringacute" unicode="&#x1fb;" horiz-adv-x="1085" 
d="M547 1116q-93 0 -152 41t-59 115q0 65 45.5 104.5t120.5 48.5l59 152h164l-123 -154q72 -11 114 -49.5t42 -101.5q0 -74 -59 -115t-152 -41zM547 1356q-52 0 -85.5 -23.5t-33.5 -60.5q0 -38 33 -61t86 -23t86 23t33 61q0 37 -33.5 60.5t-85.5 23.5zM938 709v-146
q0 -375 10 -563h-98l-23 201h-12q-49 -107 -143.5 -164t-222.5 -57q-153 0 -245.5 81.5t-92.5 214.5q0 149 115 235.5t317 98.5l272 17v78q0 121 -79.5 184t-198.5 63q-112 0 -190 -55t-114 -154l-112 45q26 88 90 152t147.5 94.5t178.5 30.5q184 0 292.5 -91.5
t108.5 -264.5zM463 92q159 0 255.5 115t96.5 285v28l-264 -18q-148 -9 -233 -65.5t-85 -160.5q0 -84 62.5 -134t167.5 -50z" />
    <glyph glyph-name="AEacute" unicode="&#x1fc;" horiz-adv-x="1966" 
d="M1137 1587h-105l119 246h172zM186 0h-141l813 1434h975v-113h-690v-526h608v-113h-608v-569h690v-113h-813v348h-639zM922 1321l-480 -860h578v860h-98z" />
    <glyph glyph-name="aeacute" unicode="&#x1fd;" horiz-adv-x="1806" 
d="M948 1444h172l-186 -246h-105zM1704 547q0 -40 -6 -70h-756q9 -173 94.5 -279t227.5 -106q99 0 170 46.5t122 152.5l115 -45q-57 -133 -163.5 -199.5t-243.5 -66.5q-133 0 -233 70t-148 192q-107 -262 -412 -262q-167 0 -263.5 83t-96.5 220q0 146 111.5 225.5
t305.5 79.5h289v53q0 143 -85.5 227t-201.5 84q-119 0 -191 -56t-110 -165l-114 45q43 140 153.5 214.5t261.5 74.5q122 0 218.5 -58t144.5 -169q50 107 146.5 167t224.5 60q196 0 318 -135.5t122 -382.5zM942 588h641q-12 175 -95.5 269.5t-221.5 94.5q-139 0 -224 -98.5
t-100 -265.5zM477 92q151 0 245.5 93t94.5 253v39h-293q-149 0 -220 -48t-71 -146q0 -85 65 -138t179 -53z" />
    <glyph glyph-name="Oslashacute" unicode="&#x1fe;" horiz-adv-x="1458" 
d="M801 1833h172l-187 -246h-104zM1262 1528l-132 -228q103 -100 159.5 -250t56.5 -333q0 -216 -76 -383.5t-216 -260.5t-323 -93q-170 0 -311 86l-119 -209l-100 49l131 227q-105 99 -162 249.5t-57 334.5q0 215 76.5 382.5t217.5 261t324 93.5q170 0 309 -84l119 207z
M236 717q0 -309 155 -477l592 1028q-107 73 -252 73q-221 0 -358 -168.5t-137 -455.5zM731 92q220 0 356 169t136 456q0 302 -154 477l-590 -1028q109 -74 252 -74z" />
    <glyph glyph-name="oslashacute" unicode="&#x1ff;" 
d="M653 1444h172l-186 -246h-104zM989 1106l-92 -158q80 -74 124 -185t44 -241q0 -153 -58 -275.5t-168.5 -194.5t-254.5 -72q-115 0 -215 49l-80 -142l-96 52l86 149q-85 74 -131 186.5t-46 247.5q0 114 34 213.5t96 172.5t153 115t199 42q121 0 225 -55l84 147zM225 522
q0 -214 115 -332l414 719q-73 43 -170 43q-164 0 -261.5 -118t-97.5 -312zM584 92q164 0 261 118t97 312q0 204 -106 322l-412 -715q70 -37 160 -37z" />
    <glyph glyph-name="uni0218" unicode="&#x218;" horiz-adv-x="1228" 
d="M655 -20q-189 0 -337 86.5t-205 242.5l110 45q55 -131 170 -196.5t262 -65.5q166 0 257.5 73t91.5 195q0 67 -29.5 118t-79.5 83.5t-114.5 57.5t-136.5 45.5t-143.5 42.5t-136 54t-114.5 74t-79.5 108.5t-29.5 152.5q0 161 125.5 259.5t333.5 98.5q174 0 305.5 -82
t184.5 -229l-109 -43q-41 116 -145 178.5t-236 62.5q-159 0 -247.5 -69t-88.5 -176q0 -65 29.5 -114.5t79.5 -81t114.5 -56t136 -45t143 -43t136 -55t114.5 -75.5t79.5 -111t29.5 -155q0 -178 -130.5 -279t-340.5 -101zM596 -379h-111l78 266h150z" />
    <glyph glyph-name="uni0219" unicode="&#x219;" horiz-adv-x="993" 
d="M524 -20q-158 0 -271 70.5t-151 193.5l109 43q28 -90 112.5 -144.5t200.5 -54.5q117 0 180.5 48t63.5 132q0 58 -35 97.5t-91.5 61t-124.5 39t-136.5 39.5t-125 53t-91.5 89t-35 139q0 124 99.5 201.5t254.5 77.5q138 0 239.5 -65t139.5 -179l-108 -43q-29 84 -100.5 131
t-170.5 47q-111 0 -171 -48t-60 -122q0 -50 27.5 -87t72.5 -57t102.5 -38.5t117 -31.5t117 -37.5t102.5 -55.5t72.5 -85t27.5 -126q0 -133 -103.5 -210.5t-263.5 -77.5zM473 -379h-111l78 266h150z" />
    <glyph glyph-name="uni021A" unicode="&#x21a;" horiz-adv-x="1224" 
d="M674 0h-123v1321h-490v113h1102v-113h-489v-1321zM569 -379h-110l78 266h149z" />
    <glyph glyph-name="uni021B" unicode="&#x21b;" horiz-adv-x="849" 
d="M545 -20q-119 0 -188.5 74t-69.5 208v670h-209v112h217l43 277h74v-277h325v-112h-327v-662q0 -90 40.5 -135t108.5 -45q87 0 154 45l51 -92q-95 -63 -219 -63zM504 -379h-111l78 266h150z" />
    <glyph glyph-name="uni0232" unicode="&#x232;" horiz-adv-x="1259" 
d="M887 1659h-512v108h512v-108zM694 0h-123v567l-520 867h144l438 -754h8l432 754h135l-514 -865v-569z" />
    <glyph glyph-name="uni0233" unicode="&#x233;" horiz-adv-x="1034" 
d="M774 1270h-512v108h512v-108zM416 -410h-127l162 404l-406 1050h133l336 -901h8l338 901h129z" />
    <glyph glyph-name="uni0237" unicode="&#x237;" horiz-adv-x="526" 
d="M125 -430q-121 0 -207 59l53 97q66 -45 144 -45q62 0 98.5 37.5t36.5 109.5v1216h123v-1222q0 -122 -68.5 -187t-179.5 -65z" />
    <glyph glyph-name="uni0259" unicode="&#x259;" horiz-adv-x="1136" 
d="M553 1065q144 0 254.5 -72.5t168.5 -195t58 -275.5t-57 -275.5t-166.5 -194.5t-253.5 -72q-203 0 -329 136.5t-126 381.5q0 29 4 69h803q-11 176 -106.5 280.5t-249.5 104.5q-211 0 -301 -198l-115 45q57 131 166 198.5t250 67.5zM557 92q148 0 241.5 98.5t108.5 264.5
h-682q9 -166 99.5 -264.5t232.5 -98.5z" />
    <glyph glyph-name="uni0272" unicode="&#x272;" horiz-adv-x="1271" 
d="M125 -430q-121 0 -207 59l53 97q66 -45 144 -45q62 0 98.5 37.5t36.5 109.5v659q0 371 -10 557h116l19 -172h12q52 88 146 140.5t198 52.5q188 0 292.5 -112t104.5 -328v-625h-122v610q0 169 -75 253.5t-212 84.5q-154 0 -250 -103.5t-96 -256.5v-766q0 -122 -68.5 -187
t-179.5 -65z" />
    <glyph glyph-name="circumflex" unicode="&#x2c6;" horiz-adv-x="696" 
d="M211 1198h-150l220 246h135l219 -246h-160l-129 166z" />
    <glyph glyph-name="caron" unicode="&#x2c7;" horiz-adv-x="696" 
d="M416 1198h-135l-220 246h160l129 -166l135 166h150z" />
    <glyph glyph-name="breve" unicode="&#x2d8;" horiz-adv-x="667" 
d="M334 1188q-126 0 -199.5 71t-73.5 185h113q0 -66 42 -107t118 -41q77 0 118.5 40.5t41.5 107.5h112q0 -114 -73 -185t-199 -71z" />
    <glyph glyph-name="dotaccent" unicode="&#x2d9;" horiz-adv-x="344" 
d="M172 1208q-46 0 -78.5 31t-32.5 76t32.5 76.5t78.5 31.5t78.5 -31.5t32.5 -76.5t-32.5 -76t-78.5 -31z" />
    <glyph glyph-name="ring" unicode="&#x2da;" horiz-adv-x="524" 
d="M262 1163q-86 0 -143.5 53.5t-57.5 135.5t57.5 136t143.5 54t143.5 -54t57.5 -136t-57.5 -135.5t-143.5 -53.5zM262 1245q47 0 78 30.5t31 76.5q0 45 -31 76.5t-78 31.5q-45 0 -76.5 -31.5t-31.5 -76.5q0 -46 31 -76.5t77 -30.5z" />
    <glyph glyph-name="ogonek" unicode="&#x2db;" horiz-adv-x="419" 
d="M258 -440q-89 0 -143 46t-54 142q0 73 58 143t160 129l79 -20q-83 -54 -128.5 -120.5t-45.5 -121.5q0 -86 97 -86q31 0 77 11v-113q-33 -10 -100 -10z" />
    <glyph glyph-name="tilde" unicode="&#x2dc;" horiz-adv-x="716" 
d="M164 1188h-103v39q0 65 16 112t42 70.5t53 34t55 10.5q40 0 79.5 -22.5t65.5 -49t55.5 -49t51.5 -22.5q74 0 74 143h102v-47q0 -66 -15.5 -112t-42.5 -68t-53 -30.5t-55 -8.5q-41 0 -80.5 22.5t-65 49t-54.5 49t-51 22.5q-36 0 -55 -32t-19 -111z" />
    <glyph glyph-name="hungarumlaut" unicode="&#x2dd;" horiz-adv-x="677" 
d="M166 1198h-105l119 246h172zM451 1198h-105l119 246h172z" />
    <glyph glyph-name="gravecomb" unicode="&#x300;" horiz-adv-x="0" 
d="M-61 1198h-105l-186 246h172z" />
    <glyph glyph-name="acutecomb" unicode="&#x301;" horiz-adv-x="0" 
d="M-248 1198h-104l119 246h172z" />
    <glyph glyph-name="uni0302" unicode="&#x302;" horiz-adv-x="0" 
d="M-485 1198h-150l219 246h135l220 -246h-160l-129 166z" />
    <glyph glyph-name="tildecomb" unicode="&#x303;" horiz-adv-x="0" 
d="M-553 1188h-102v39q0 65 16 112t42 70.5t53 34t55 10.5q40 0 79.5 -22.5t65 -49t55 -49t51.5 -22.5q74 0 74 143h103v-47q0 -66 -15.5 -112t-42.5 -68t-53 -30.5t-55 -8.5q-41 0 -80.5 22.5t-65.5 49t-55 49t-51 22.5q-36 0 -55 -32t-19 -111z" />
    <glyph glyph-name="uni0304" unicode="&#x304;" horiz-adv-x="0" 
d="M-61 1270h-512v108h512v-108z" />
    <glyph glyph-name="uni0306" unicode="&#x306;" horiz-adv-x="0" 
d="M-334 1188q-126 0 -199 71t-73 185h112q0 -66 42 -107t118 -41q77 0 118.5 40.5t41.5 107.5h113q0 -114 -73.5 -185t-199.5 -71z" />
    <glyph glyph-name="uni0307" unicode="&#x307;" horiz-adv-x="0" 
d="M-172 1208q-46 0 -78.5 31t-32.5 76t32.5 76.5t78.5 31.5t78.5 -31.5t32.5 -76.5t-32.5 -76t-78.5 -31z" />
    <glyph glyph-name="uni0308" unicode="&#x308;" horiz-adv-x="0" 
d="M-506 1212q-45 0 -75.5 29.5t-30.5 73.5t30.5 73t75.5 29t77 -29t32 -73t-32 -73.5t-77 -29.5zM-170 1212q-45 0 -75.5 29.5t-30.5 73.5t30.5 73t75.5 29t77 -29t32 -73t-32 -73.5t-77 -29.5z" />
    <glyph glyph-name="uni030A" unicode="&#x30a;" horiz-adv-x="0" 
d="M-262 1163q-86 0 -143.5 53.5t-57.5 135.5t57.5 136t143.5 54t143.5 -54t57.5 -136t-57.5 -135.5t-143.5 -53.5zM-262 1245q47 0 77.5 30.5t30.5 76.5q0 45 -30.5 76.5t-77.5 31.5q-46 0 -77.5 -32t-31.5 -76q0 -46 31.5 -76.5t77.5 -30.5z" />
    <glyph glyph-name="uni030B" unicode="&#x30b;" horiz-adv-x="0" 
d="M-532 1198h-105l119 246h172zM-248 1198h-104l119 246h172z" />
    <glyph glyph-name="uni030C" unicode="&#x30c;" horiz-adv-x="0" 
d="M-281 1198h-135l-219 246h160l129 -166l135 166h150z" />
    <glyph glyph-name="uni0312" unicode="&#x312;" horiz-adv-x="0" 
d="M-133 1198h-143l110 246h105z" />
    <glyph glyph-name="dotbelowcomb" unicode="&#x323;" horiz-adv-x="0" 
d="M-172 -338q-46 0 -78.5 31t-32.5 76t32.5 76.5t78.5 31.5t78.5 -31.5t32.5 -76.5t-32.5 -76t-78.5 -31z" />
    <glyph glyph-name="uni0326" unicode="&#x326;" horiz-adv-x="0" 
d="M-178 -379h-111l78 266h150z" />
    <glyph glyph-name="uni0327" unicode="&#x327;" horiz-adv-x="0" 
d="M-272 -104h10q92 0 146.5 -46t54.5 -124q0 -81 -61 -134t-171 -53q-107 0 -209 60l60 92q69 -49 149 -49q49 0 81 22.5t32 63.5q0 43 -30.5 64.5t-76.5 21.5q-31 0 -75 -13l-27 39l59 170h97z" />
    <glyph glyph-name="uni0328" unicode="&#x328;" horiz-adv-x="0" 
d="M-162 -440q-89 0 -142.5 46t-53.5 142q0 73 57.5 143t159.5 129l80 -20q-84 -54 -129.5 -121t-45.5 -121q0 -86 97 -86q32 0 78 11v-113q-33 -10 -101 -10z" />
    <glyph glyph-name="uni0338" unicode="&#x338;" horiz-adv-x="0" 
d="M-61 1528l-961 -1671l-100 49l958 1671z" />
    <glyph glyph-name="uni0394" unicode="&#x394;" horiz-adv-x="1196" 
d="M1151 0h-1106l465 1434h176zM594 1319l-379 -1192h762l-375 1192h-8z" />
    <glyph glyph-name="uni03A9" unicode="&#x3a9;" horiz-adv-x="1452" 
d="M623 0h-490v113h330v8q-91 55 -161 137.5t-110 172t-59.5 176t-19.5 165.5q0 309 170.5 495.5t441.5 186.5t442.5 -186.5t171.5 -495.5q0 -79 -20 -165.5t-60 -176t-110.5 -172t-161.5 -137.5v-8h332v-113h-492v125q113 51 202.5 153t138.5 231.5t49 262.5
q0 262 -133.5 415.5t-358.5 153.5t-357 -153.5t-132 -415.5q0 -134 48 -263.5t137 -231t202 -152.5v-125z" />
    <glyph glyph-name="uni03BC" unicode="&#x3bc;" horiz-adv-x="1257" 
d="M266 -410h-123v1454h123v-610q0 -169 75 -253.5t212 -84.5q154 0 250 104t96 257v587h123v-819q0 -112 98 -112h76v-113h-82q-89 0 -143 48.5t-60 144.5h-10q-116 -213 -356 -213q-206 0 -281 149h-8l10 -266v-273z" />
    <glyph glyph-name="pi" unicode="&#x3c0;" horiz-adv-x="1183" 
d="M276 0h-122v1044h876v-1044h-123v932h-631v-932z" />
    <glyph glyph-name="Wgrave" unicode="&#x1e80;" horiz-adv-x="1884" 
d="M995 1587h-104l-186 246h172zM600 0h-162l-387 1434h125l344 -1319h6l344 1319h150l344 -1319h6l344 1319h119l-387 -1434h-162l-340 1305h-4z" />
    <glyph glyph-name="wgrave" unicode="&#x1e81;" horiz-adv-x="1439" 
d="M770 1198h-104l-187 246h172zM489 0h-145l-299 1044h127l244 -901h6l227 901h154l221 -901h8l244 901h119l-299 -1044h-146l-223 911h-8z" />
    <glyph glyph-name="Wacute" unicode="&#x1e82;" horiz-adv-x="1884" 
d="M1001 1587h-104l119 246h172zM600 0h-162l-387 1434h125l344 -1319h6l344 1319h150l344 -1319h6l344 1319h119l-387 -1434h-162l-340 1305h-4z" />
    <glyph glyph-name="wacute" unicode="&#x1e83;" horiz-adv-x="1439" 
d="M776 1198h-104l119 246h172zM489 0h-145l-299 1044h127l244 -901h6l227 901h154l221 -901h8l244 901h119l-299 -1044h-146l-223 911h-8z" />
    <glyph glyph-name="Wdieresis" unicode="&#x1e84;" horiz-adv-x="1884" 
d="M776 1602q-45 0 -75.5 29t-30.5 73t30.5 73t75.5 29t77 -29t32 -73t-32 -73t-77 -29zM1112 1602q-45 0 -75.5 29t-30.5 73t30.5 73t75.5 29t77 -29t32 -73t-32 -73t-77 -29zM600 0h-162l-387 1434h125l344 -1319h6l344 1319h150l344 -1319h6l344 1319h119l-387 -1434
h-162l-340 1305h-4z" />
    <glyph glyph-name="wdieresis" unicode="&#x1e85;" horiz-adv-x="1439" 
d="M551 1212q-45 0 -76 29.5t-31 73.5t31 73t76 29t76.5 -29t31.5 -73t-31.5 -73.5t-76.5 -29.5zM887 1212q-45 0 -76 29.5t-31 73.5t31 73t76 29t76.5 -29t31.5 -73t-31.5 -73.5t-76.5 -29.5zM489 0h-145l-299 1044h127l244 -901h6l227 901h154l221 -901h8l244 901h119
l-299 -1044h-146l-223 911h-8z" />
    <glyph glyph-name="uni1E9E" unicode="&#x1e9e;" horiz-adv-x="1425" 
d="M813 799h41q232 0 350.5 -106.5t118.5 -295.5q0 -194 -122.5 -305.5t-364.5 -111.5q-120 0 -219.5 22t-208.5 78l57 104q164 -92 371 -92q176 0 270 86.5t94 218.5t-87.5 210.5t-268.5 78.5h-187v96l443 531v8h-414q-197 0 -292 -104t-95 -299v-918h-123v909
q0 525 510 525h563v-113z" />
    <glyph glyph-name="uni1EA0" unicode="&#x1ea0;" horiz-adv-x="1325" 
d="M748 1434l532 -1434h-131l-127 348h-723l-127 -348h-127l530 1434h173zM655 1325l-315 -864h641l-317 864h-9zM664 -123q46 0 78 -31t32 -77q0 -45 -32 -76t-78 -31t-78.5 31t-32.5 76t32.5 76.5t78.5 31.5z" />
    <glyph glyph-name="uni1EA1" unicode="&#x1ea1;" horiz-adv-x="1085" 
d="M938 709v-146q0 -375 10 -563h-98l-23 201h-12q-49 -107 -143.5 -164t-222.5 -57q-153 0 -245.5 81.5t-92.5 214.5q0 149 115 235.5t317 98.5l272 17v78q0 121 -79.5 184t-198.5 63q-112 0 -190 -55t-114 -154l-112 45q26 88 90 152t147.5 94.5t178.5 30.5
q184 0 292.5 -91.5t108.5 -264.5zM463 92q159 0 255.5 115t96.5 285v28l-264 -18q-148 -9 -233 -65.5t-85 -160.5q0 -84 62.5 -134t167.5 -50zM547 -123q46 0 78 -31t32 -77q0 -45 -32 -76t-78 -31t-78.5 31t-32.5 76t32.5 76.5t78.5 31.5z" />
    <glyph glyph-name="uni1EB8" unicode="&#x1eb8;" horiz-adv-x="1220" 
d="M1087 0h-911v1434h911v-113h-788v-526h707v-113h-707v-569h788v-113zM643 -338q-46 0 -78.5 31t-32.5 76t32.5 76.5t78.5 31.5t78.5 -31.5t32.5 -76.5t-32.5 -76t-78.5 -31z" />
    <glyph glyph-name="uni1EB9" unicode="&#x1eb9;" horiz-adv-x="1136" 
d="M1034 547q0 -30 -4 -70h-803q11 -176 107 -280.5t250 -104.5q211 0 301 199l114 -45q-57 -131 -165.5 -198.5t-249.5 -67.5q-144 0 -255 72t-169 194.5t-58 275.5t57 275.5t167 195t254 72.5q203 0 328.5 -136.5t125.5 -381.5zM580 952q-148 0 -242 -98t-109 -264h682
q-9 166 -99 264t-232 98zM588 -123q46 0 78 -31t32 -77q0 -45 -32 -76t-78 -31t-78.5 31t-32.5 76t32.5 76.5t78.5 31.5z" />
    <glyph glyph-name="uni1EBC" unicode="&#x1ebc;" horiz-adv-x="1220" 
d="M449 1577h-103v39q0 65 16 112t42 70.5t53 34t55 10.5q40 0 79.5 -22.5t65.5 -49t55.5 -49t51.5 -22.5q74 0 74 143h102v-47q0 -66 -15.5 -112t-42.5 -68t-53 -30.5t-55 -8.5q-41 0 -80.5 22.5t-65.5 49t-55 49t-51 22.5q-36 0 -54.5 -32t-18.5 -111zM1087 0h-911v1434
h911v-113h-788v-526h707v-113h-707v-569h788v-113z" />
    <glyph glyph-name="uni1EBD" unicode="&#x1ebd;" horiz-adv-x="1136" 
d="M463 1331q-36 0 -55 -32t-19 -111h-102v39q0 65 16 112t42 70.5t53 34t55 10.5q40 0 79.5 -22.5t65.5 -49t55.5 -49t51.5 -22.5q73 0 73 143h103v-47q0 -66 -15.5 -112t-42.5 -68t-53 -30.5t-55 -8.5q-41 0 -80.5 22.5t-65.5 49t-55 49t-51 22.5zM1034 547q0 -30 -4 -70
h-803q11 -176 107 -280.5t250 -104.5q211 0 301 199l114 -45q-57 -131 -165.5 -198.5t-249.5 -67.5q-144 0 -255 72t-169 194.5t-58 275.5t57 275.5t167 195t254 72.5q203 0 328.5 -136.5t125.5 -381.5zM580 952q-148 0 -242 -98t-109 -264h682q-9 166 -99 264t-232 98z" />
    <glyph glyph-name="uni1ECA" unicode="&#x1eca;" horiz-adv-x="475" 
d="M299 0h-123v1434h123v-1434zM238 -338q-46 0 -78.5 31t-32.5 76t32.5 76.5t78.5 31.5t78 -31t32 -77q0 -45 -32 -76t-78 -31z" />
    <glyph glyph-name="uni1ECB" unicode="&#x1ecb;" horiz-adv-x="430" 
d="M215 1208q-46 0 -78.5 31t-32.5 76t32.5 76.5t78.5 31.5t78.5 -31.5t32.5 -76.5t-32.5 -76t-78.5 -31zM276 0h-122v1044h122v-1044zM215 -338q-46 0 -78.5 31t-32.5 76t32.5 76.5t78.5 31.5t78.5 -31.5t32.5 -76.5t-32.5 -76t-78.5 -31z" />
    <glyph glyph-name="uni1ECC" unicode="&#x1ecc;" horiz-adv-x="1458" 
d="M731 -20q-183 0 -324 93.5t-217.5 261t-76.5 382.5t76.5 382.5t217.5 261t324 93.5t323 -93t216 -260.5t76 -383.5t-76 -383.5t-216 -260.5t-323 -93zM731 92q220 0 356 169t136 456t-136 455.5t-356 168.5q-221 0 -358 -168.5t-137 -455.5t137 -456t358 -169zM731 -338
q-46 0 -78 31t-32 76q0 46 32 77t78 31t78.5 -31.5t32.5 -76.5t-32.5 -76t-78.5 -31z" />
    <glyph glyph-name="uni1ECD" unicode="&#x1ecd;" 
d="M584 -20q-212 0 -347 151.5t-135 390.5t135 391t347 152t346.5 -152t134.5 -391t-134.5 -390.5t-346.5 -151.5zM584 92q163 0 260.5 117.5t97.5 312.5t-97.5 312.5t-260.5 117.5t-261 -117.5t-98 -312.5t98 -312.5t261 -117.5zM584 -338q-46 0 -78.5 31t-32.5 76
t32.5 76.5t78.5 31.5t78 -31t32 -77q0 -45 -32 -76t-78 -31z" />
    <glyph glyph-name="uni1EE4" unicode="&#x1ee4;" horiz-adv-x="1413" 
d="M707 -20q-112 0 -207 36.5t-168 107t-114.5 184t-41.5 259.5v867h123v-867q0 -103 22 -185t60 -135.5t90.5 -89t111 -50.5t124.5 -15t124 15t111 50.5t90.5 89t59.5 135.5t22 185v867h123v-867q0 -146 -41.5 -259.5t-114 -184t-167.5 -107t-207 -36.5zM709 -338
q-46 0 -78.5 31t-32.5 76t32.5 76.5t78.5 31.5t78 -31t32 -77q0 -45 -32 -76t-78 -31z" />
    <glyph glyph-name="uni1EE5" unicode="&#x1ee5;" horiz-adv-x="1175" 
d="M541 -20q-188 0 -293 112t-105 328v624h123v-610q0 -169 75 -253.5t212 -84.5q154 0 250 104t96 257v587h123v-487q0 -371 10 -557h-117l-18 172h-12q-52 -88 -146 -140t-198 -52zM584 -338q-46 0 -78.5 31t-32.5 76t32.5 76.5t78.5 31.5t78 -31t32 -77q0 -45 -32 -76
t-78 -31z" />
    <glyph glyph-name="Ygrave" unicode="&#x1ef2;" horiz-adv-x="1259" 
d="M680 1587h-105l-186 246h172zM694 0h-123v567l-520 867h144l438 -754h8l432 754h135l-514 -865v-569z" />
    <glyph glyph-name="ygrave" unicode="&#x1ef3;" horiz-adv-x="1034" 
d="M567 1198h-104l-187 246h173zM416 -410h-127l162 404l-406 1050h133l336 -901h8l338 901h129z" />
    <glyph glyph-name="uni1EF8" unicode="&#x1ef8;" horiz-adv-x="1259" 
d="M436 1577h-102v39q0 65 16 112t42 70.5t53 34t55 10.5q40 0 79.5 -22.5t65.5 -49t55.5 -49t51.5 -22.5q73 0 73 143h103v-47q0 -66 -15.5 -112t-42.5 -68t-53 -30.5t-55 -8.5q-41 0 -80.5 22.5t-65.5 49t-55 49t-51 22.5q-36 0 -55 -32t-19 -111zM694 0h-123v567
l-520 867h144l438 -754h8l432 754h135l-514 -865v-569z" />
    <glyph glyph-name="uni1EF9" unicode="&#x1ef9;" horiz-adv-x="1034" 
d="M324 1188h-103v39q0 65 16 112t42 70.5t53 34t55 10.5q40 0 79.5 -22.5t65.5 -49t55.5 -49t51.5 -22.5q74 0 74 143h102v-47q0 -66 -15.5 -112t-42.5 -68t-53 -30.5t-55 -8.5q-41 0 -80.5 22.5t-65.5 49t-55 49t-51 22.5q-36 0 -54.5 -32t-18.5 -111zM416 -410h-127
l162 404l-406 1050h133l336 -901h8l338 901h129z" />
    <glyph glyph-name="endash" unicode="&#x2013;" horiz-adv-x="1044" 
d="M952 522h-860v103h860v-103z" />
    <glyph glyph-name="emdash" unicode="&#x2014;" horiz-adv-x="1495" 
d="M1403 522h-1311v103h1311v-103z" />
    <glyph glyph-name="quoteleft" unicode="&#x2018;" horiz-adv-x="409" 
d="M268 1454l43 -35q-84 -104 -102 -221q47 -3 77.5 -32.5t30.5 -73.5q0 -49 -30.5 -79t-77.5 -30q-52 0 -84.5 33t-32.5 94q0 165 176 344z" />
    <glyph glyph-name="quoteright" unicode="&#x2019;" horiz-adv-x="409" 
d="M141 983l-43 35q85 105 103 221q-47 3 -78 33t-31 74q0 49 31 78.5t78 29.5q52 0 84 -33t32 -94q0 -165 -176 -344z" />
    <glyph glyph-name="quotesinglbase" unicode="&#x201a;" horiz-adv-x="409" 
d="M141 -276l-43 34q85 105 103 222q-48 3 -78.5 32.5t-30.5 73.5q0 49 31 79t78 30q52 0 84 -33t32 -94q0 -165 -176 -344z" />
    <glyph glyph-name="quotedblleft" unicode="&#x201c;" horiz-adv-x="727" 
d="M268 1454l43 -35q-84 -104 -102 -221q47 -3 77.5 -32.5t30.5 -73.5q0 -49 -30.5 -79t-77.5 -30q-52 0 -84.5 33t-32.5 94q0 165 176 344zM586 1454l43 -35q-85 -105 -103 -221q48 -3 78.5 -32.5t30.5 -73.5q0 -49 -31 -79t-78 -30q-52 0 -84 33t-32 94q0 165 176 344z
" />
    <glyph glyph-name="quotedblright" unicode="&#x201d;" horiz-adv-x="727" 
d="M141 983l-43 35q85 105 103 221q-47 3 -78 33t-31 74q0 49 31 78.5t78 29.5q52 0 84 -33t32 -94q0 -165 -176 -344zM459 983l-43 35q84 104 102 221q-47 3 -77.5 33t-30.5 74q0 49 30.5 78.5t77.5 29.5q52 0 84.5 -33t32.5 -94q0 -165 -176 -344z" />
    <glyph glyph-name="quotedblbase" unicode="&#x201e;" horiz-adv-x="727" 
d="M141 -276l-43 34q85 105 103 222q-48 3 -78.5 32.5t-30.5 73.5q0 49 31 79t78 30q52 0 84 -33t32 -94q0 -165 -176 -344zM459 -276l-43 34q84 103 102 222q-47 3 -77.5 32.5t-30.5 73.5q0 49 30.5 79t77.5 30q52 0 84.5 -33t32.5 -94q0 -165 -176 -344z" />
    <glyph glyph-name="dagger" unicode="&#x2020;" horiz-adv-x="1073" 
d="M598 -205h-123v1102h-373v113h373v424h123v-424h373v-113h-373v-1102z" />
    <glyph glyph-name="daggerdbl" unicode="&#x2021;" horiz-adv-x="1073" 
d="M598 -205h-123v447h-373v112h373v523h-373v112h373v445h123v-445h373v-112h-373v-523h373v-112h-373v-447z" />
    <glyph glyph-name="bullet" unicode="&#x2022;" horiz-adv-x="491" 
d="M246 395q-65 0 -109.5 41.5t-44.5 106.5t44.5 107t109.5 42t109 -42t44 -107t-44 -106.5t-109 -41.5z" />
    <glyph glyph-name="ellipsis" unicode="&#x2026;" horiz-adv-x="1212" 
d="M209 -20q-50 0 -83.5 31t-33.5 81t33.5 81.5t83.5 31.5t83.5 -31.5t33.5 -81.5t-33.5 -81t-83.5 -31zM606 -20q-50 0 -83.5 31t-33.5 81t33.5 81.5t83.5 31.5t83.5 -31.5t33.5 -81.5t-33.5 -81t-83.5 -31zM1004 -20q-50 0 -83.5 31t-33.5 81t33.5 81.5t83.5 31.5
t83 -31.5t33 -81.5t-33 -81t-83 -31z" />
    <glyph glyph-name="perthousand" unicode="&#x2030;" horiz-adv-x="2560" 
d="M416 719q-156 0 -255.5 106t-99.5 262q0 155 99.5 261t255.5 106t255 -106t99 -261q0 -156 -99 -262t-255 -106zM1464 1378l-1093 -1398l-97 75l1094 1399zM416 831q96 0 160.5 74t64.5 182t-64.5 181t-160.5 73q-99 0 -162.5 -73t-63.5 -181q0 -109 63.5 -182.5
t162.5 -73.5zM1323 -20q-156 0 -255 106t-99 262q0 155 99 261t255 106t255 -106t99 -261q0 -156 -99 -262t-255 -106zM2144 -20q-156 0 -255 106t-99 262q0 155 99 261t255 106t255.5 -106t99.5 -261q0 -156 -99.5 -262t-255.5 -106zM1323 92q96 0 160.5 74t64.5 182
t-64.5 181t-160.5 73q-99 0 -162 -72.5t-63 -181.5t63.5 -182.5t161.5 -73.5zM2144 92q96 0 161 74t65 182t-65 181t-161 73q-99 0 -162 -72.5t-63 -181.5t63.5 -182.5t161.5 -73.5z" />
    <glyph glyph-name="guilsinglleft" unicode="&#x2039;" horiz-adv-x="595" 
d="M514 211h-168l-295 321l295 322h168l-301 -322z" />
    <glyph glyph-name="guilsinglright" unicode="&#x203a;" horiz-adv-x="595" 
d="M545 532l-295 -321h-168l301 321l-301 322h168z" />
    <glyph glyph-name="fraction" unicode="&#x2044;" horiz-adv-x="321" 
d="M-244 0h-104l911 1434h107z" />
    <glyph glyph-name="uni2070" unicode="&#x2070;" horiz-adv-x="737" 
d="M369 911q-131 0 -214 102t-83 267t83 267t214 102q132 0 214.5 -102t82.5 -267t-82.5 -267t-214.5 -102zM369 997q91 0 144.5 76t53.5 207t-53.5 207t-144.5 76t-145 -76t-54 -207t54 -207t145 -76z" />
    <glyph glyph-name="uni2074" unicode="&#x2074;" horiz-adv-x="663" 
d="M500 922h-97v147h-352v102l340 467h109v-477h102v-92h-102v-147zM403 1507l-253 -346h253v346z" />
    <glyph glyph-name="uni2075" unicode="&#x2075;" horiz-adv-x="653" 
d="M332 911q-99 0 -172 43.5t-99 120.5l91 31q22 -52 69.5 -80.5t112.5 -28.5q69 0 114.5 43.5t45.5 110.5q0 68 -44.5 110t-113.5 42q-90 0 -164 -62l-82 14l27 383h413v-86h-329l-15 -209h7q67 46 151 46q109 0 178.5 -65.5t69.5 -172.5q0 -106 -71 -173t-189 -67z" />
    <glyph glyph-name="uni2076" unicode="&#x2076;" horiz-adv-x="655" 
d="M332 1399q114 0 188 -67t74 -175t-75.5 -177t-192.5 -69q-116 0 -190.5 69.5t-74.5 176.5q0 54 19.5 99.5t62.5 107.5l195 274h121v-8l-176 -235q32 4 49 4zM326 997q73 0 121.5 45t48.5 115t-48.5 115t-121.5 45q-72 0 -119 -45t-47 -115q0 -69 46.5 -114.5t119.5 -45.5
z" />
    <glyph glyph-name="uni2077" unicode="&#x2077;" horiz-adv-x="602" 
d="M242 922h-109l293 618v6h-365v92h480v-86z" />
    <glyph glyph-name="uni2078" unicode="&#x2078;" horiz-adv-x="659" 
d="M330 911q-110 0 -184 58t-74 149q0 60 32.5 107.5t88.5 70.5q-101 54 -101 158q0 86 66 140.5t172 54.5q104 0 170.5 -54.5t66.5 -140.5q0 -105 -102 -158q59 -24 91 -72t32 -106q0 -91 -74 -149t-184 -58zM330 1337q60 0 99.5 31t39.5 80q0 52 -39 83.5t-100 31.5
t-100.5 -31.5t-39.5 -83.5q0 -49 39.5 -80t100.5 -31zM330 997q72 0 115.5 34.5t43.5 94.5q0 57 -43.5 92t-115.5 35t-116 -35t-44 -92q0 -59 44.5 -94t115.5 -35z" />
    <glyph glyph-name="uni2079" unicode="&#x2079;" horiz-adv-x="655" 
d="M330 1649q115 0 189.5 -69.5t74.5 -176.5q0 -54 -19.5 -99.5t-62.5 -107.5l-195 -274h-120v8l176 235q-32 -4 -49 -4q-114 0 -188.5 67t-74.5 175t76 177t193 69zM330 1243q72 0 119 45t47 115q0 69 -46.5 114.5t-119.5 45.5t-121.5 -45t-48.5 -115t48.5 -115t121.5 -45z
" />
    <glyph glyph-name="uni2080" unicode="&#x2080;" horiz-adv-x="737" 
d="M369 -215q-131 0 -214 102t-83 267t83 266.5t214 101.5q132 0 214.5 -101.5t82.5 -266.5t-82.5 -267t-214.5 -102zM369 -129q91 0 144.5 76t53.5 207t-53.5 206.5t-144.5 75.5t-145 -75.5t-54 -206.5t54 -207t145 -76z" />
    <glyph glyph-name="uni2081" unicode="&#x2081;" horiz-adv-x="436" 
d="M324 -205h-99v594h-6l-158 -92v109l191 106h72v-717z" />
    <glyph glyph-name="uni2082" unicode="&#x2082;" horiz-adv-x="632" 
d="M561 -205h-485v82l211 186q100 87 139 136.5t39 109.5q0 59 -42 93t-101 34q-57 0 -103 -32t-69 -91l-89 31q27 84 97.5 131t163.5 47q103 0 171 -57.5t68 -155.5q0 -42 -14 -80t-48.5 -79t-63.5 -68.5t-87 -79.5l-123 -108v-7h336v-92z" />
    <glyph glyph-name="uni2083" unicode="&#x2083;" horiz-adv-x="649" 
d="M551 432l-201 -207q103 -3 165.5 -63t62.5 -156q0 -100 -68 -160.5t-180 -60.5q-99 0 -171 46t-98 126l91 33q19 -55 67.5 -87t110.5 -32q68 0 108.5 37t40.5 100q0 64 -41.5 100.5t-115.5 36.5h-107v66l203 209v6h-334v86h467v-80z" />
    <glyph glyph-name="uni2084" unicode="&#x2084;" horiz-adv-x="663" 
d="M500 -205h-97v148h-352v102l340 467h109v-477h102v-92h-102v-148zM403 381l-253 -346h253v346z" />
    <glyph glyph-name="uni2085" unicode="&#x2085;" horiz-adv-x="653" 
d="M332 -215q-99 0 -172 43.5t-99 120.5l91 31q22 -52 69.5 -80.5t112.5 -28.5q69 0 114.5 43.5t45.5 110.5q0 68 -44.5 109.5t-113.5 41.5q-92 0 -164 -61l-82 14l27 383h413v-86h-329l-15 -209h7q65 45 151 45q110 0 179 -65.5t69 -171.5t-71 -173t-189 -67z" />
    <glyph glyph-name="uni2086" unicode="&#x2086;" horiz-adv-x="655" 
d="M332 272q114 0 188 -66.5t74 -174.5t-75.5 -177t-192.5 -69q-116 0 -190.5 69.5t-74.5 176.5q0 54 19.5 99.5t62.5 107.5l195 274h121v-8l-176 -236q32 4 49 4zM326 -129q73 0 121.5 45t48.5 115t-48.5 114.5t-121.5 44.5q-72 0 -119 -44.5t-47 -114.5q0 -69 46.5 -114.5
t119.5 -45.5z" />
    <glyph glyph-name="uni2087" unicode="&#x2087;" horiz-adv-x="602" 
d="M242 -205h-109l293 619v6h-365v92h480v-86z" />
    <glyph glyph-name="uni2088" unicode="&#x2088;" horiz-adv-x="659" 
d="M330 -215q-110 0 -184 58t-74 149q0 60 32.5 107.5t88.5 70.5q-101 54 -101 158q0 86 66 140t172 54q105 0 171 -54t66 -140q0 -105 -102 -158q59 -24 91 -72t32 -106q0 -91 -74 -149t-184 -58zM330 211q60 0 99.5 31t39.5 80q0 52 -39 83t-100 31t-100.5 -31t-39.5 -83
q0 -49 39.5 -80t100.5 -31zM330 -129q72 0 115.5 34.5t43.5 94.5q0 57 -43.5 92t-115.5 35t-116 -35t-44 -92q0 -59 44.5 -94t115.5 -35z" />
    <glyph glyph-name="uni2089" unicode="&#x2089;" horiz-adv-x="655" 
d="M330 522q115 0 189.5 -69.5t74.5 -176.5q0 -54 -19 -99t-63 -107l-195 -275h-120v8l176 236q-32 -4 -49 -4q-114 0 -188.5 67t-74.5 174q0 108 76 177t193 69zM330 117q72 0 119 44.5t47 114.5q0 69 -46.5 114.5t-119.5 45.5t-121.5 -45t-48.5 -115t48.5 -114.5
t121.5 -44.5z" />
    <glyph glyph-name="Euro" unicode="&#x20ac;" horiz-adv-x="1515" 
d="M864 -20q-228 0 -386 141.5t-210 380.5h-217v112h199q-4 66 -4 103q0 36 4 102h-199v113h217q52 239 210 380.5t386 141.5q175 0 321 -98t220 -301l-115 -45q-119 331 -426 331q-175 0 -300 -108t-171 -301h473v-113h-493q-4 -66 -4 -102q0 -37 4 -103h493v-112h-473
q46 -193 171 -301.5t300 -108.5q313 0 434 332l115 -45q-80 -205 -227.5 -302t-321.5 -97z" />
    <glyph glyph-name="uni2116" unicode="&#x2116;" horiz-adv-x="2256" 
d="M1821 778q-146 0 -245 97.5t-99 240.5q0 142 99.5 240t244.5 98q144 0 244 -98.5t100 -239.5q0 -142 -99.5 -240t-244.5 -98zM299 0h-123v1434h133l840 -1235h8q-8 213 -8 446v789h123v-1434h-133l-840 1235h-8q8 -216 8 -447v-788zM1821 891q96 0 158.5 65t62.5 160
t-62.5 160t-158.5 65t-159 -65t-63 -160t63 -160t159 -65zM2144 502h-647v112h647v-112z" />
    <glyph glyph-name="uni2117" unicode="&#x2117;" horiz-adv-x="1482" 
d="M741 -20q-149 0 -277 58t-216 158t-137.5 235t-49.5 286q0 152 49.5 287t137.5 234.5t216 157.5t277 58t277 -58t216 -157.5t137.5 -234.5t49.5 -287q0 -151 -49.5 -286t-137.5 -235t-216 -158t-277 -58zM741 61q129 0 240 51.5t186.5 140.5t118.5 209t43 255
q0 136 -43 256.5t-119 208.5t-186.5 139t-239.5 51q-171 0 -306 -87t-208 -236t-73 -332q0 -181 73 -330t208 -237.5t306 -88.5zM629 358h-86v717h276q103 0 165.5 -56t62.5 -155t-62 -153t-166 -54h-190v-299zM629 997v-266h186q67 0 105 34t38 99q0 64 -38 98.5t-105 34.5
h-186z" />
    <glyph glyph-name="trademark" unicode="&#x2122;" horiz-adv-x="1603" 
d="M424 717h-111v620h-231v97h573v-97h-231v-620zM846 717h-105v717h166l209 -598l207 598h168v-717h-109v592h-8l-203 -592h-112l-205 592h-8v-592z" />
    <glyph glyph-name="uni2150" unicode="&#x2150;" horiz-adv-x="1380" 
d="M324 717h-99v594h-6l-158 -92v108l191 107h72v-717zM213 0h-104l911 1434h106zM1020 0h-109l293 618v7h-364v92h479v-86z" />
    <glyph glyph-name="uni2151" unicode="&#x2151;" horiz-adv-x="1413" 
d="M225 717v594h-6l-158 -92v108l191 107h72v-717h-99zM109 0l911 1434h106l-913 -1434h-104zM1087 727q116 0 190.5 -69.5t74.5 -176.5q0 -54 -19.5 -99.5t-62.5 -107.5l-195 -274h-121v8l176 236q-32 -4 -49 -4q-114 0 -188 66.5t-74 174.5t75.5 177t192.5 69zM1087 322
q72 0 119 44.5t47 114.5q0 69 -46.5 114.5t-119.5 45.5t-121 -45t-48 -115t48 -114.5t121 -44.5z" />
    <glyph glyph-name="uni2152" unicode="&#x2152;" horiz-adv-x="1951" 
d="M324 717h-99v594h-6l-158 -92v108l191 107h72v-717zM213 0h-104l911 1434h106zM1583 -10q-131 0 -214 101.5t-83 266.5t83 267t214 102q132 0 214.5 -102t82.5 -267t-82.5 -266.5t-214.5 -101.5zM1102 0h-98v594h-7l-157 -92v108l190 107h72v-717zM1583 76q91 0 145 75.5
t54 206.5t-54 207t-145 76t-145 -76t-54 -207t54 -206.5t145 -75.5z" />
    <glyph glyph-name="uni2153" unicode="&#x2153;" horiz-adv-x="1427" 
d="M225 717v594h-6l-158 -92v108l191 107h72v-717h-99zM109 0l911 1434h106l-913 -1434h-104zM1329 637l-201 -207q103 -3 165.5 -63t62.5 -156q0 -100 -68 -160.5t-180 -60.5q-99 0 -170.5 46t-97.5 126l90 33q19 -55 67.5 -87t110.5 -32q68 0 108.5 37t40.5 100
q0 64 -41.5 100.5t-115.5 36.5h-107v66l203 209v6h-334v86h467v-80z" />
    <glyph glyph-name="uni2154" unicode="&#x2154;" horiz-adv-x="1603" 
d="M76 799l211 186q100 87 139 136.5t39 109.5q0 59 -42 93t-101 34q-57 0 -103 -32t-69 -91l-89 31q27 84 97.5 131t163.5 47q103 0 171 -57.5t68 -155.5q0 -42 -14 -80t-48.5 -79t-63.5 -68.5t-87 -79.5l-123 -109v-6h336v-92h-485v82zM285 0l911 1434h107l-914 -1434
h-104zM1505 637l-200 -207q103 -3 165 -62.5t62 -156.5q0 -100 -68 -160.5t-180 -60.5q-99 0 -170.5 46t-97.5 126l90 33q19 -55 67.5 -87t110.5 -32q68 0 109 37t41 100q0 64 -42 100.5t-116 36.5h-107v66l203 209v6h-334v86h467v-80z" />
    <glyph glyph-name="uni2155" unicode="&#x2155;" horiz-adv-x="1421" 
d="M324 717h-99v594h-6l-158 -92v108l191 107h72v-717zM213 0h-104l911 1434h106zM1100 -10q-99 0 -172 43.5t-99 120.5l91 30q22 -52 69.5 -80t112.5 -28q69 0 114.5 43t45.5 110q0 68 -44.5 110t-113.5 42q-90 0 -164 -62l-82 15l27 383h413v-86h-329l-15 -209h7
q65 45 151 45q109 0 178.5 -65.5t69.5 -172.5q0 -106 -71 -172.5t-189 -66.5z" />
    <glyph glyph-name="uni2156" unicode="&#x2156;" horiz-adv-x="1597" 
d="M561 717h-485v82l211 186q100 87 139 136.5t39 109.5q0 59 -42 93t-101 34q-57 0 -103 -32t-69 -91l-89 31q27 84 97.5 131t163.5 47q103 0 171 -57.5t68 -155.5q0 -42 -14 -80t-48.5 -79t-63.5 -68.5t-87 -79.5l-123 -109v-6h336v-92zM389 0h-104l911 1434h107z
M1276 -10q-99 0 -171.5 43.5t-98.5 120.5l90 30q22 -52 69.5 -80t112.5 -28q69 0 114.5 43t45.5 110q0 68 -44.5 110t-113.5 42q-90 0 -164 -62l-82 15l27 383h414v-86h-330l-15 -209h7q65 45 151 45q109 0 178.5 -65.5t69.5 -172.5q0 -106 -71 -172.5t-189 -66.5z" />
    <glyph glyph-name="uni2157" unicode="&#x2157;" horiz-adv-x="1613" 
d="M578 928q0 -100 -68 -160.5t-180 -60.5q-99 0 -171 46t-98 126l91 32q19 -55 67.5 -86.5t110.5 -31.5q68 0 108.5 37t40.5 100q0 64 -41.5 100.5t-115.5 36.5h-107v66l203 208v7h-334v86h467v-80l-201 -207q103 -3 165.5 -63t62.5 -156zM301 0l911 1434h107l-913 -1434
h-105zM1305 467q109 0 178 -65.5t69 -172.5q0 -106 -71 -172.5t-189 -66.5q-99 0 -171.5 43.5t-98.5 120.5l90 30q22 -52 69.5 -80t112.5 -28q69 0 114.5 43t45.5 110q0 68 -44.5 110t-113.5 42q-89 0 -163 -62l-82 15l26 383h414v-86h-330l-14 -209h6q65 45 152 45z" />
    <glyph glyph-name="uni2158" unicode="&#x2158;" horiz-adv-x="1628" 
d="M500 717h-97v147h-352v103l340 467h109v-478h102v-92h-102v-147zM420 0h-105l912 1434h106zM403 1303l-253 -347h253v347zM1307 -10q-99 0 -172 43.5t-99 120.5l90 30q22 -52 70 -80t113 -28q69 0 114 43t45 110q0 68 -44.5 110t-112.5 42q-90 0 -164 -62l-82 15l27 383
h413v-86h-329l-15 -209h6q65 45 152 45q109 0 178.5 -65.5t69.5 -172.5q0 -106 -71 -172.5t-189 -66.5z" />
    <glyph glyph-name="uni2159" unicode="&#x2159;" horiz-adv-x="1361" 
d="M225 717v594h-6l-158 -92v108l191 107h72v-717h-99zM109 0l911 1434h106l-913 -1434h-104zM1038 477q114 0 188 -66.5t74 -174.5t-75.5 -177t-192.5 -69q-115 0 -189.5 69.5t-74.5 176.5q0 54 19 99t63 107l194 275h121v-8l-176 -236q32 4 49 4zM1032 76q73 0 121.5 45
t48.5 115t-48.5 114.5t-121.5 44.5q-72 0 -119 -44.5t-47 -114.5q0 -69 46.5 -114.5t119.5 -45.5z" />
    <glyph glyph-name="uni215A" unicode="&#x215a;" horiz-adv-x="1558" 
d="M592 946q0 -106 -71 -172.5t-189 -66.5q-100 0 -172.5 43t-98.5 120l91 31q22 -52 69.5 -80t112.5 -28q69 0 114.5 43t45.5 110q0 68 -44.5 110t-113.5 42q-90 0 -164 -62l-82 15l27 383h413v-86h-329l-15 -209h7q65 45 151 45q109 0 178.5 -65.5t69.5 -172.5zM305 0
l912 1434h106l-913 -1434h-105zM1235 477q114 0 188 -66.5t74 -174.5t-75.5 -177t-192.5 -69q-115 0 -189.5 69.5t-74.5 176.5q0 54 19 99t63 107l194 275h121v-8l-176 -236q32 4 49 4zM1229 76q73 0 121.5 45t48.5 115t-48.5 114.5t-121.5 44.5q-72 0 -119 -44.5
t-47 -114.5q0 -69 46.5 -114.5t119.5 -45.5z" />
    <glyph glyph-name="oneeighth" unicode="&#x215b;" horiz-adv-x="1417" 
d="M324 717h-99v594h-6l-158 -92v108l191 107h72v-717zM213 0h-104l911 1434h106zM1087 -10q-110 0 -184 58t-74 149q0 60 32.5 107.5t88.5 70.5q-100 53 -100 157q0 86 65.5 140.5t171.5 54.5q104 0 171 -54.5t67 -140.5q0 -104 -102 -157q59 -24 91 -72t32 -106
q0 -91 -74.5 -149t-184.5 -58zM1087 416q61 0 100.5 30.5t39.5 79.5q0 52 -39.5 83.5t-100.5 31.5t-100 -31.5t-39 -83.5q0 -49 39 -79.5t100 -30.5zM1087 76q73 0 116.5 34.5t43.5 94.5q0 57 -44 92t-116 35t-115.5 -35t-43.5 -92q0 -59 44 -94t115 -35z" />
    <glyph glyph-name="threeeighths" unicode="&#x215c;" horiz-adv-x="1609" 
d="M578 928q0 -100 -68 -160.5t-180 -60.5q-99 0 -171 46t-98 126l91 32q19 -55 67.5 -86.5t110.5 -31.5q68 0 108.5 37t40.5 100q0 64 -41.5 100.5t-115.5 36.5h-107v66l203 208v7h-334v86h467v-80l-201 -207q103 -3 165.5 -63t62.5 -156zM301 0l911 1434h107l-913 -1434
h-105zM1415 375q59 -24 91 -72t32 -106q0 -91 -74 -149t-184 -58t-184 58t-74 149q0 60 32.5 107.5t88.5 70.5q-101 54 -101 157q0 86 66 140.5t172 54.5q104 0 171 -54.5t67 -140.5q0 -103 -103 -157zM1141 526q0 -49 39 -79.5t100 -30.5t100 30.5t39 79.5q0 52 -39 83.5
t-100 31.5t-100 -31.5t-39 -83.5zM1280 76q73 0 116.5 34.5t43.5 94.5q0 57 -44 92t-116 35t-116 -35t-44 -92q0 -59 44.5 -94t115.5 -35z" />
    <glyph glyph-name="fiveeighths" unicode="&#x215d;" horiz-adv-x="1613" 
d="M332 707q-100 0 -172.5 43t-98.5 120l91 31q22 -52 69.5 -80t112.5 -28q69 0 114.5 43t45.5 110q0 68 -44.5 110t-113.5 42q-90 0 -164 -62l-82 15l27 383h413v-86h-329l-15 -209h7q65 45 151 45q109 0 178.5 -65.5t69.5 -172.5q0 -106 -71 -172.5t-189 -66.5zM410 0
h-105l912 1434h106zM1284 -10q-110 0 -184 58t-74 149q0 60 32.5 107.5t88.5 70.5q-100 53 -100 157q0 86 65.5 140.5t171.5 54.5q104 0 171 -54.5t67 -140.5q0 -103 -103 -157q59 -24 91 -72t32 -106q0 -91 -74 -149t-184 -58zM1284 416q61 0 100 30.5t39 79.5
q0 52 -39 83.5t-100 31.5t-100 -31.5t-39 -83.5q0 -49 39 -79.5t100 -30.5zM1284 76q73 0 116.5 34.5t43.5 94.5q0 57 -44 92t-116 35t-116 -35t-44 -92q0 -59 44.5 -94t115.5 -35z" />
    <glyph glyph-name="seveneighths" unicode="&#x215e;" horiz-adv-x="1480" 
d="M242 717h-109l293 618v6h-365v93h480v-86zM276 0h-104l911 1434h107zM1151 -10q-110 0 -184 58t-74 149q0 60 32.5 107.5t88.5 70.5q-101 54 -101 157q0 86 66 140.5t172 54.5q104 0 171 -54.5t67 -140.5q0 -103 -103 -157q59 -24 91 -72t32 -106q0 -91 -74 -149
t-184 -58zM1151 416q61 0 100 30.5t39 79.5q0 52 -39 83.5t-100 31.5t-100 -31.5t-39 -83.5q0 -49 39 -79.5t100 -30.5zM1151 76q73 0 116.5 34.5t43.5 94.5q0 57 -44 92t-116 35t-116 -35t-44 -92q0 -59 44.5 -94t115.5 -35z" />
    <glyph glyph-name="uni215F" unicode="&#x215f;" horiz-adv-x="1239" 
d="M324 717h-99v594h-6l-158 -92v108l191 107h72v-717zM213 0h-104l911 1434h106z" />
    <glyph glyph-name="partialdiff" unicode="&#x2202;" horiz-adv-x="1046" 
d="M524 -20q-187 0 -304.5 134.5t-117.5 336.5q0 206 113 338.5t299 132.5q89 0 163.5 -36.5t119.5 -97.5h6q-12 81 -32.5 150.5t-59.5 142.5t-92.5 124t-136 83.5t-185.5 32.5q-58 0 -113 -8v112q67 9 125 9q156 0 277.5 -67.5t199.5 -189.5t118 -288t40 -367
q0 -83 -15 -160t-48.5 -147t-81.5 -122t-119 -82.5t-156 -30.5zM522 92q126 0 212.5 102.5t86.5 256.5q0 149 -87 253.5t-212 104.5q-126 0 -211.5 -100t-85.5 -258q0 -154 86 -256.5t211 -102.5z" />
    <glyph glyph-name="emptyset" unicode="&#x2205;" horiz-adv-x="1310" 
d="M434 221l-86 -149l-96 53l86 151q-103 75 -164 191.5t-61 249.5q0 148 72.5 273t197.5 197.5t272 72.5q112 0 217 -46l84 148l101 -53l-86 -150q105 -75 166 -191.5t61 -250.5q0 -147 -73 -272t-198 -198t-272 -73q-118 0 -221 47zM389 367l432 757q-84 33 -166 33
q-183 0 -311.5 -128.5t-128.5 -311.5q0 -105 46.5 -197t127.5 -153zM655 276q183 0 312 129t129 312q0 106 -47.5 198.5t-128.5 153.5l-435 -758q78 -35 170 -35z" />
    <glyph glyph-name="uni2206" unicode="&#x2206;" horiz-adv-x="1196" 
d="M1151 0h-1106l465 1434h176zM594 1319l-379 -1192h762l-375 1192h-8z" />
    <glyph glyph-name="product" unicode="&#x220f;" horiz-adv-x="1392" 
d="M492 -410h-123v1723h-205v121h1065v-121h-205v-1723h-123v1723h-409v-1723z" />
    <glyph glyph-name="summation" unicode="&#x2211;" horiz-adv-x="1112" 
d="M979 0h-815v92l461 625l-461 624v93h815v-113h-666l447 -604l-447 -604h666v-113z" />
    <glyph glyph-name="minus" unicode="&#x2212;" horiz-adv-x="1036" 
d="M958 559h-880v113h880v-113z" />
    <glyph glyph-name="radical" unicode="&#x221a;" horiz-adv-x="1146" 
d="M600 0h-164l-256 717h-149v112h229l258 -727l477 1332h121z" />
    <glyph glyph-name="infinity" unicode="&#x221e;" horiz-adv-x="1474" 
d="M371 307q-128 0 -208.5 85.5t-80.5 221.5q0 135 81 221.5t208 86.5q56 0 106.5 -18t98.5 -57.5t79 -71.5t80 -89q38 45 62.5 71.5t63.5 62t72 55t77 33.5t90 14q127 0 210 -88.5t83 -219.5q0 -132 -83 -219.5t-210 -87.5q-57 0 -109 18.5t-99 56.5t-79.5 71.5t-77.5 87.5
q-38 -45 -64 -73t-64 -62.5t-71 -53t-76 -32t-89 -13.5zM371 420q69 0 131 47t151 147q-90 101 -151.5 148t-130.5 47q-68 0 -117 -55t-49 -140q0 -87 49 -140.5t117 -53.5zM1100 420q72 0 121 54.5t49 139.5q0 84 -49.5 139.5t-120.5 55.5q-69 0 -131.5 -47t-151.5 -148
q89 -100 151.5 -147t131.5 -47z" />
    <glyph glyph-name="integral" unicode="&#x222b;" horiz-adv-x="860" 
d="M211 -410h-129v113h125q65 0 103 34.5t38 94.5v1362q0 116 64.5 178t189.5 62h156v-113h-152q-62 0 -98.5 -34.5t-36.5 -94.5v-1362q0 -116 -66.5 -178t-193.5 -62z" />
    <glyph glyph-name="approxequal" unicode="&#x2248;" horiz-adv-x="1036" 
d="M201 645h-123v70q0 63 20 110.5t54 74t73 39.5t82 13q47 0 96 -20t89.5 -48.5t79 -57t80 -48.5t77.5 -20q48 0 77.5 31.5t29.5 93.5v69h122v-69q0 -63 -21 -111t-55 -74.5t-73 -39.5t-80 -13q-53 0 -103.5 20t-89.5 48.5t-75 57.5t-76 49t-78 20q-48 0 -77 -31.5
t-29 -93.5v-70zM201 276h-123v70q0 63 20 111t54 74.5t73 39.5t82 13q47 0 96 -20t89.5 -49t79 -57.5t80 -48.5t77.5 -20q48 0 77.5 31.5t29.5 93.5v70h122v-70q0 -63 -21 -111t-55 -74.5t-73 -39.5t-80 -13q-53 0 -103.5 20t-89.5 49t-75 57.5t-76 48.5t-78 20
q-48 0 -77 -31.5t-29 -93.5v-70z" />
    <glyph glyph-name="notequal" unicode="&#x2260;" horiz-adv-x="1036" 
d="M356 82h-110l108 266h-276v113h323l125 307h-448v113h495l109 266h111l-109 -266h274v-113h-321l-125 -307h446v-113h-493z" />
    <glyph glyph-name="lessequal" unicode="&#x2264;" horiz-adv-x="1036" 
d="M958 473v-123l-880 359v86l880 362v-123l-702 -282zM958 51h-880v113h880v-113z" />
    <glyph glyph-name="greaterequal" unicode="&#x2265;" horiz-adv-x="1036" 
d="M958 709l-880 -359v123l702 279l-702 282v123l880 -362v-86zM958 51h-880v113h880v-113z" />
    <glyph glyph-name="lozenge" unicode="&#x25ca;" horiz-adv-x="1087" 
d="M598 0h-111l-385 717l385 717h111l387 -717zM236 717l309 -578l305 578l-305 577z" />
    <glyph glyph-name="uniE132" unicode="&#xe132;" horiz-adv-x="925" 
d="M270 1198h-104l119 246h172zM766 1198h-104l118 246h172zM276 0h-122v1044h122v-1044zM524 -430q-121 0 -207 59l54 97q66 -45 143 -45q62 0 98.5 37.5t36.5 109.5v1216h123v-1222q0 -122 -68.5 -187t-179.5 -65z" />
    <glyph glyph-name="uniE133" unicode="&#xe133;" horiz-adv-x="1437" 
d="M293 1587h-105l119 246h172zM1255 1587h-104l119 246h172zM299 0h-123v1434h123v-1434zM840 0h-265v113h256q143 0 225.5 89.5t82.5 266.5v965h123v-963q0 -227 -115.5 -349t-306.5 -122z" />
    <glyph glyph-name="fi" unicode="&#xfb01;" horiz-adv-x="1265" 
d="M416 0h-123v932h-215v112h215v144q0 122 72.5 194t197.5 72q131 0 230 -68l-50 -92q-81 49 -170 49q-71 0 -114 -40.5t-43 -126.5v-132h696v-1044h-123v932h-573v-932zM1051 1208q-46 0 -78.5 31t-32.5 76t32.5 76.5t78.5 31.5t78 -31t32 -77q0 -45 -32 -76t-78 -31z" />
    <glyph glyph-name="Iacute_J.loclNLD" horiz-adv-x="1437" 
d="M293 1587h-105l119 246h172zM1255 1587h-104l119 246h172zM299 0h-123v1434h123v-1434zM840 0h-265v113h256q143 0 225.5 89.5t82.5 266.5v965h123v-963q0 -227 -115.5 -349t-306.5 -122z" />
    <glyph glyph-name="J.ss01" horiz-adv-x="1097" 
d="M496 0h-363v113h348q318 0 318 362v959h123v-963q0 -227 -117 -349t-309 -122z" />
    <glyph glyph-name="Jcircumflex.ss01" horiz-adv-x="1097" 
d="M723 1587h-150l220 246h135l219 -246h-160l-129 166zM496 0h-363v113h348q318 0 318 362v959h123v-963q0 -227 -117 -349t-309 -122z" />
    <glyph glyph-name="Eng.ss01" horiz-adv-x="1447" 
d="M965 -410h-154v113h143q99 0 147 53t48 162v68l-850 1249h-8q8 -216 8 -447v-788h-123v1434h133l840 -1235h8q-8 213 -8 446v789h123v-1522q0 -153 -80.5 -237.5t-226.5 -84.5z" />
    <glyph glyph-name="uni019D.ss01" horiz-adv-x="1447" 
d="M-8 -410h-154v113h144q99 0 146.5 53t47.5 162v1516h133l840 -1235h8q-8 213 -8 446v789h123v-1434h-133l-840 1235h-8q8 -216 8 -447v-876q0 -153 -80.5 -237.5t-226.5 -84.5z" />
    <glyph glyph-name="uni1E9E.ss01" horiz-adv-x="1425" 
d="M813 799h41q232 0 350.5 -106t118.5 -294t-118.5 -293.5t-350.5 -105.5h-360v113h350q175 0 265.5 78.5t90.5 207.5q0 131 -88 209t-268 78h-187v96l443 531v8h-414q-197 0 -292 -104t-95 -299v-918h-123v909q0 525 510 525h563v-113z" />
    <glyph glyph-name="J.ss05" horiz-adv-x="1132" 
d="M524 -20q-160 0 -275.5 78t-166.5 223l115 43q78 -232 327 -232q145 0 227.5 86t82.5 250v893h-687v113h809v-1004q0 -213 -119.5 -331.5t-312.5 -118.5z" />
    <glyph glyph-name="Jcircumflex.ss05" horiz-adv-x="1132" 
d="M416 1587h-150l219 246h136l219 -246h-160l-129 166zM524 -20q-160 0 -275.5 78t-166.5 223l115 43q78 -232 327 -232q145 0 227.5 86t82.5 250v893h-687v113h809v-1004q0 -213 -119.5 -331.5t-312.5 -118.5z" />
    <glyph glyph-name="i.loclTRK" horiz-adv-x="430" 
d="M215 1208q-46 0 -78.5 31t-32.5 76t32.5 76.5t78.5 31.5t78.5 -31.5t32.5 -76.5t-32.5 -76t-78.5 -31zM276 0h-122v1044h122v-1044z" />
    <glyph glyph-name="iacute_j.loclNLD" horiz-adv-x="925" 
d="M270 1198h-104l119 246h172zM766 1198h-104l118 246h172zM276 0h-122v1044h122v-1044zM524 -430q-121 0 -207 59l54 97q66 -45 143 -45q62 0 98.5 37.5t36.5 109.5v1216h123v-1222q0 -122 -68.5 -187t-179.5 -65z" />
    <glyph glyph-name="f.ss01" horiz-adv-x="794" 
d="M410 0h-123v932h-209v112h209v84q0 154 83.5 230t225.5 76h127v-113h-121q-192 0 -192 -199v-78h303v-112h-303v-932z" />
    <glyph glyph-name="iacute_j.loclNLD.ss01" horiz-adv-x="901" 
d="M270 1198h-104l119 246h172zM741 1198h-104l119 246h172zM276 0h-122v1044h122v-1044zM440 -410h-123v113h113q99 0 147 53t48 162v1126h123v-1132q0 -152 -81 -237t-227 -85z" />
    <glyph glyph-name="ij.ss01" horiz-adv-x="901" 
d="M215 1208q-46 0 -78.5 31t-32.5 76t32.5 76.5t78.5 31.5t78.5 -31.5t32.5 -76.5t-32.5 -76t-78.5 -31zM686 1208q-46 0 -78.5 31t-32.5 76t32.5 76.5t78.5 31.5t78.5 -31.5t32.5 -76.5t-32.5 -76t-78.5 -31zM276 0h-122v1044h122v-1044zM440 -410h-123v113h113
q99 0 147 53t48 162v1126h123v-1132q0 -152 -81 -237t-227 -85z" />
    <glyph glyph-name="j.ss01" horiz-adv-x="501" 
d="M287 1208q-46 0 -78.5 31t-32.5 76t32.5 76.5t78.5 31.5t78 -31t32 -77q0 -45 -32 -76t-78 -31zM41 -410h-123v113h113q99 0 146.5 53t47.5 162v1126h123v-1132q0 -153 -80.5 -237.5t-226.5 -84.5z" />
    <glyph glyph-name="uni0237.ss01" horiz-adv-x="501" 
d="M41 -410h-123v113h113q99 0 146.5 53t47.5 162v1126h123v-1132q0 -153 -80.5 -237.5t-226.5 -84.5z" />
    <glyph glyph-name="jcircumflex.ss01" horiz-adv-x="501" 
d="M150 1198h-150l219 246h135l219 -246h-159l-129 166zM41 -410h-123v113h113q99 0 146.5 53t47.5 162v1126h123v-1132q0 -153 -80.5 -237.5t-226.5 -84.5z" />
    <glyph glyph-name="eng.ss01" horiz-adv-x="1175" 
d="M725 -410h-154v113h144q99 0 146.5 53t47.5 162v692q0 170 -74.5 254t-211.5 84q-154 0 -250.5 -104t-96.5 -256v-588h-122v487q0 352 -11 557h117l19 -172h12q52 88 146 140.5t198 52.5q188 0 292.5 -112t104.5 -328v-713q0 -153 -80.5 -237.5t-226.5 -84.5z" />
    <glyph glyph-name="uni0272.ss01" horiz-adv-x="1277" 
d="M72 -410h-154v113h143q99 0 147 53t48 162v569q0 371 -10 557h116l19 -172h12q52 88 146 140.5t198 52.5q188 0 293 -112t105 -328v-625h-123v610q0 169 -75 253.5t-212 84.5q-154 0 -250 -103.5t-96 -256.5v-676q0 -153 -80.5 -237.5t-226.5 -84.5z" />
    <glyph glyph-name="germandbls.ss01" horiz-adv-x="1157" 
d="M276 0h-122v1034q0 88 25.5 162.5t76 133t133 91.5t189.5 33q186 0 295.5 -104.5t109.5 -272.5q0 -116 -55.5 -204t-151.5 -123v-9q134 -32 206.5 -125.5t72.5 -228.5q0 -178 -113 -282.5t-305 -104.5h-197v109h189q143 0 223 74t80 208q0 136 -91 213.5t-251 77.5h-129
v113h100q142 0 222.5 75t80.5 197q0 120 -76.5 199.5t-209.5 79.5q-98 0 -168 -44.5t-102 -113.5t-32 -154v-1034z" />
    <glyph glyph-name="t.ss01" horiz-adv-x="860" 
d="M737 0h-133q-150 0 -233.5 82.5t-83.5 241.5v608h-209v112h217l43 277h74v-277h325v-112h-327v-602q0 -217 200 -217h127v-113z" />
    <glyph glyph-name="tbar.ss01" horiz-adv-x="860" 
d="M737 1044v-112h-327v-338h317v-102h-317v-162q0 -217 200 -217h127v-113h-133q-150 0 -233.5 82.5t-83.5 241.5v168h-199v102h199v338h-209v112h217l43 277h74v-277h325z" />
    <glyph glyph-name="tcaron.ss01" horiz-adv-x="880" 
d="M631 1157h-72l21 379h137zM737 0h-133q-150 0 -233.5 82.5t-83.5 241.5v608h-209v112h217l43 277h74v-277h325v-112h-327v-602q0 -217 200 -217h127v-113z" />
    <glyph glyph-name="uni0163.ss01" horiz-adv-x="860" 
d="M580 -104h10q92 0 146.5 -46t54.5 -124q0 -81 -61 -134t-171 -53q-107 0 -209 60l60 92q69 -49 149 -49q49 0 81 22.5t32 63.5q0 43 -30.5 64.5t-76.5 21.5q-32 0 -76 -13l-26 39l57 168q-111 21 -172 101.5t-61 214.5v608h-209v112h217l43 277h74v-277h325v-112h-327
v-602q0 -217 200 -217h127v-113h-123z" />
    <glyph glyph-name="uni021B.ss01" horiz-adv-x="860" 
d="M737 0h-133q-150 0 -233.5 82.5t-83.5 241.5v608h-209v112h217l43 277h74v-277h325v-112h-327v-602q0 -217 200 -217h127v-113zM522 -379h-110l77 266h150z" />
    <glyph glyph-name="a.ss02" horiz-adv-x="1196" 
d="M553 -20q-202 0 -326.5 151t-124.5 391t124.5 391.5t326.5 151.5q235 0 354 -195h13l18 174h104v-487q0 -352 11 -557h-115l-18 174h-13q-119 -194 -354 -194zM573 92q158 0 252.5 118t94.5 312t-94.5 312t-252.5 118t-253 -118t-95 -312t95 -312t253 -118z" />
    <glyph glyph-name="aacute.ss02" horiz-adv-x="1196" 
d="M629 1198h-105l119 246h172zM553 -20q-202 0 -326.5 151t-124.5 391t124.5 391.5t326.5 151.5q235 0 354 -195h13l18 174h104v-487q0 -352 11 -557h-115l-18 174h-13q-119 -194 -354 -194zM573 92q158 0 252.5 118t94.5 312t-94.5 312t-252.5 118t-253 -118t-95 -312
t95 -312t253 -118z" />
    <glyph glyph-name="abreve.ss02" horiz-adv-x="1196" 
d="M573 1188q-126 0 -199 71t-73 185h113q0 -67 41.5 -107.5t117.5 -40.5q77 0 118.5 40.5t41.5 107.5h113q0 -114 -73.5 -185t-199.5 -71zM553 -20q-202 0 -326.5 151t-124.5 391t124.5 391.5t326.5 151.5q235 0 354 -195h13l18 174h104v-487q0 -352 11 -557h-115l-18 174
h-13q-119 -194 -354 -194zM573 92q158 0 252.5 118t94.5 312t-94.5 312t-252.5 118t-253 -118t-95 -312t95 -312t253 -118z" />
    <glyph glyph-name="uni01CE.ss02" horiz-adv-x="1196" 
d="M641 1198h-135l-219 246h159l129 -166l136 166h149zM553 -20q-202 0 -326.5 151t-124.5 391t124.5 391.5t326.5 151.5q235 0 354 -195h13l18 174h104v-487q0 -352 11 -557h-115l-18 174h-13q-119 -194 -354 -194zM573 92q158 0 252.5 118t94.5 312t-94.5 312t-252.5 118
t-253 -118t-95 -312t95 -312t253 -118z" />
    <glyph glyph-name="acircumflex.ss02" horiz-adv-x="1196" 
d="M436 1198h-149l219 246h135l219 -246h-160l-129 166zM553 -20q-202 0 -326.5 151t-124.5 391t124.5 391.5t326.5 151.5q235 0 354 -195h13l18 174h104v-487q0 -352 11 -557h-115l-18 174h-13q-119 -194 -354 -194zM573 92q158 0 252.5 118t94.5 312t-94.5 312t-252.5 118
t-253 -118t-95 -312t95 -312t253 -118z" />
    <glyph glyph-name="adieresis.ss02" horiz-adv-x="1196" 
d="M403 1212q-45 0 -75.5 29.5t-30.5 73.5t30.5 73t75.5 29t77 -29t32 -73t-32 -73.5t-77 -29.5zM739 1212q-45 0 -75.5 29.5t-30.5 73.5t30.5 73t75.5 29t77 -29t32 -73t-32 -73.5t-77 -29.5zM553 -20q-202 0 -326.5 151t-124.5 391t124.5 391.5t326.5 151.5
q235 0 354 -195h13l18 174h104v-487q0 -352 11 -557h-115l-18 174h-13q-119 -194 -354 -194zM573 92q158 0 252.5 118t94.5 312t-94.5 312t-252.5 118t-253 -118t-95 -312t95 -312t253 -118z" />
    <glyph glyph-name="uni1EA1.ss02" horiz-adv-x="1196" 
d="M553 -20q-202 0 -326.5 151t-124.5 391t124.5 391.5t326.5 151.5q235 0 354 -195h13l18 174h104v-487q0 -352 11 -557h-115l-18 174h-13q-119 -194 -354 -194zM573 92q158 0 252.5 118t94.5 312t-94.5 312t-252.5 118t-253 -118t-95 -312t95 -312t253 -118zM573 -338
q-46 0 -78 31t-32 76q0 46 32 77t78 31t78.5 -31.5t32.5 -76.5t-32.5 -76t-78.5 -31z" />
    <glyph glyph-name="agrave.ss02" horiz-adv-x="1196" 
d="M623 1198h-105l-186 246h172zM553 -20q-202 0 -326.5 151t-124.5 391t124.5 391.5t326.5 151.5q235 0 354 -195h13l18 174h104v-487q0 -352 11 -557h-115l-18 174h-13q-119 -194 -354 -194zM573 92q158 0 252.5 118t94.5 312t-94.5 312t-252.5 118t-253 -118t-95 -312
t95 -312t253 -118z" />
    <glyph glyph-name="amacron.ss02" horiz-adv-x="1196" 
d="M829 1270h-512v108h512v-108zM553 -20q-202 0 -326.5 151t-124.5 391t124.5 391.5t326.5 151.5q235 0 354 -195h13l18 174h104v-487q0 -352 11 -557h-115l-18 174h-13q-119 -194 -354 -194zM573 92q158 0 252.5 118t94.5 312t-94.5 312t-252.5 118t-253 -118t-95 -312
t95 -312t253 -118z" />
    <glyph glyph-name="aogonek.ss02" horiz-adv-x="1196" 
d="M879 -242q0 -86 96 -86q32 0 78 11v-113q-33 -10 -101 -10q-89 0 -142.5 46t-53.5 142q0 135 184 252h-2l-18 174h-13q-119 -194 -354 -194q-202 0 -326.5 151t-124.5 391t124.5 391.5t326.5 151.5q235 0 354 -195h13l18 174h104v-487q0 -352 11 -557
q-83 -54 -128.5 -120.5t-45.5 -121.5zM573 92q158 0 252.5 118t94.5 312t-94.5 312t-252.5 118t-253 -118t-95 -312t95 -312t253 -118z" />
    <glyph glyph-name="aring.ss02" horiz-adv-x="1196" 
d="M573 1163q-86 0 -143 53.5t-57 135.5t57 136t143 54t143.5 -54t57.5 -136t-57.5 -135.5t-143.5 -53.5zM573 1245q47 0 78 30.5t31 76.5q0 45 -31 76.5t-78 31.5q-45 0 -76.5 -31.5t-31.5 -76.5q0 -46 31 -76.5t77 -30.5zM553 -20q-202 0 -326.5 151t-124.5 391
t124.5 391.5t326.5 151.5q235 0 354 -195h13l18 174h104v-487q0 -352 11 -557h-115l-18 174h-13q-119 -194 -354 -194zM573 92q158 0 252.5 118t94.5 312t-94.5 312t-252.5 118t-253 -118t-95 -312t95 -312t253 -118z" />
    <glyph glyph-name="aringacute.ss02" horiz-adv-x="1196" 
d="M573 1116q-93 0 -152 41t-59 115q0 65 45.5 104.5t120.5 48.5l60 152h164l-123 -154q71 -11 113 -49.5t42 -101.5q0 -74 -59 -115t-152 -41zM573 1188q53 0 86 23t33 61q0 37 -33.5 60.5t-85.5 23.5t-85 -23.5t-33 -60.5q0 -38 32.5 -61t85.5 -23zM553 -20
q-202 0 -326.5 151t-124.5 391t124.5 391.5t326.5 151.5q235 0 354 -195h13l18 174h104v-487q0 -352 11 -557h-115l-18 174h-13q-119 -194 -354 -194zM573 92q158 0 252.5 118t94.5 312t-94.5 312t-252.5 118t-253 -118t-95 -312t95 -312t253 -118z" />
    <glyph glyph-name="atilde.ss02" horiz-adv-x="1196" 
d="M379 1188h-103v39q0 65 16 112t42 70.5t53 34t55 10.5q40 0 79.5 -22.5t65.5 -49t55.5 -49t51.5 -22.5q74 0 74 143h102v-47q0 -66 -15.5 -112t-42 -68t-52.5 -30.5t-55 -8.5q-41 0 -80.5 22.5t-65.5 49t-55 49t-51 22.5q-36 0 -55 -32t-19 -111zM553 -20
q-202 0 -326.5 151t-124.5 391t124.5 391.5t326.5 151.5q235 0 354 -195h13l18 174h104v-487q0 -352 11 -557h-115l-18 174h-13q-119 -194 -354 -194zM573 92q158 0 252.5 118t94.5 312t-94.5 312t-252.5 118t-253 -118t-95 -312t95 -312t253 -118z" />
    <glyph glyph-name="u.ss03" 
d="M584 -20q-211 0 -326 128.5t-115 337.5v598h123v-598q0 -166 84 -260t234 -94t233.5 94.5t83.5 259.5v598h123v-598q0 -209 -114.5 -337.5t-325.5 -128.5z" />
    <glyph glyph-name="uacute.ss03" 
d="M639 1198h-104l118 246h172zM584 -20q-211 0 -326 128.5t-115 337.5v598h123v-598q0 -166 84 -260t234 -94t233.5 94.5t83.5 259.5v598h123v-598q0 -209 -114.5 -337.5t-325.5 -128.5z" />
    <glyph glyph-name="ubreve.ss03" 
d="M584 1188q-126 0 -199.5 71t-73.5 185h113q0 -66 42 -107t118 -41q77 0 118 40.5t41 107.5h113q0 -114 -73 -185t-199 -71zM584 -20q-211 0 -326 128.5t-115 337.5v598h123v-598q0 -166 84 -260t234 -94t233.5 94.5t83.5 259.5v598h123v-598q0 -209 -114.5 -337.5
t-325.5 -128.5z" />
    <glyph glyph-name="uni01D4.ss03" 
d="M651 1198h-135l-219 246h160l129 -166l135 166h149zM584 -20q-211 0 -326 128.5t-115 337.5v598h123v-598q0 -166 84 -260t234 -94t233.5 94.5t83.5 259.5v598h123v-598q0 -209 -114.5 -337.5t-325.5 -128.5z" />
    <glyph glyph-name="ucircumflex.ss03" 
d="M446 1198h-149l219 246h135l219 -246h-159l-129 166zM584 -20q-211 0 -326 128.5t-115 337.5v598h123v-598q0 -166 84 -260t234 -94t233.5 94.5t83.5 259.5v598h123v-598q0 -209 -114.5 -337.5t-325.5 -128.5z" />
    <glyph glyph-name="udieresis.ss03" 
d="M414 1212q-45 0 -76 29.5t-31 73.5t31 73t76 29t76.5 -29t31.5 -73t-31.5 -73.5t-76.5 -29.5zM750 1212q-45 0 -76 29.5t-31 73.5t31 73t76 29t76.5 -29t31.5 -73t-31.5 -73.5t-76.5 -29.5zM584 -20q-211 0 -326 128.5t-115 337.5v598h123v-598q0 -166 84 -260t234 -94
t233.5 94.5t83.5 259.5v598h123v-598q0 -209 -114.5 -337.5t-325.5 -128.5z" />
    <glyph glyph-name="uni1EE5.ss03" 
d="M584 -20q-211 0 -326 128.5t-115 337.5v598h123v-598q0 -166 84 -260t234 -94t233.5 94.5t83.5 259.5v598h123v-598q0 -209 -114.5 -337.5t-325.5 -128.5zM584 -338q-46 0 -78.5 31t-32.5 76t32.5 76.5t78.5 31.5t78 -31t32 -77q0 -45 -32 -76t-78 -31z" />
    <glyph glyph-name="ugrave.ss03" 
d="M633 1198h-105l-186 246h172zM584 -20q-211 0 -326 128.5t-115 337.5v598h123v-598q0 -166 84 -260t234 -94t233.5 94.5t83.5 259.5v598h123v-598q0 -209 -114.5 -337.5t-325.5 -128.5z" />
    <glyph glyph-name="uhungarumlaut.ss03" 
d="M494 1198h-105l119 246h172zM778 1198h-104l119 246h172zM584 -20q-211 0 -326 128.5t-115 337.5v598h123v-598q0 -166 84 -260t234 -94t233.5 94.5t83.5 259.5v598h123v-598q0 -209 -114.5 -337.5t-325.5 -128.5z" />
    <glyph glyph-name="umacron.ss03" 
d="M840 1270h-512v108h512v-108zM584 -20q-211 0 -326 128.5t-115 337.5v598h123v-598q0 -166 84 -260t234 -94t233.5 94.5t83.5 259.5v598h123v-598q0 -209 -114.5 -337.5t-325.5 -128.5z" />
    <glyph glyph-name="uogonek.ss03" 
d="M901 446v598h123v-598q0 -166 -74.5 -284.5t-214.5 -161.5h4q-83 -54 -128.5 -120.5t-45.5 -121.5q0 -86 97 -86q31 0 77 11v-113q-33 -10 -100 -10q-89 0 -143 46t-54 142q0 121 154 232h-12q-211 0 -326 128.5t-115 337.5v598h123v-598q0 -166 84 -260t234 -94
t233.5 94.5t83.5 259.5z" />
    <glyph glyph-name="uring.ss03" 
d="M584 1163q-86 0 -143.5 53.5t-57.5 135.5t57.5 136t143.5 54t143 -54t57 -136t-57 -135.5t-143 -53.5zM584 1245q47 0 77.5 30.5t30.5 76.5q0 45 -30.5 76.5t-77.5 31.5q-46 0 -77.5 -32t-31.5 -76q0 -46 31.5 -76.5t77.5 -30.5zM584 -20q-211 0 -326 128.5t-115 337.5
v598h123v-598q0 -166 84 -260t234 -94t233.5 94.5t83.5 259.5v598h123v-598q0 -209 -114.5 -337.5t-325.5 -128.5z" />
    <glyph glyph-name="utilde.ss03" 
d="M389 1188h-102v39q0 65 16 112t42 70.5t53 34t55 10.5q40 0 79.5 -22.5t65.5 -49t55.5 -49t51.5 -22.5q73 0 73 143h103v-47q0 -66 -15.5 -112t-42.5 -68t-53 -30.5t-55 -8.5q-41 0 -80.5 22.5t-65.5 49t-55 49t-51 22.5q-36 0 -55 -32t-19 -111zM584 -20
q-211 0 -326 128.5t-115 337.5v598h123v-598q0 -166 84 -260t234 -94t233.5 94.5t83.5 259.5v598h123v-598q0 -209 -114.5 -337.5t-325.5 -128.5z" />
    <glyph glyph-name="l.ss04" horiz-adv-x="624" 
d="M543 0h-119q-131 0 -200.5 75.5t-69.5 211.5v1147h122v-1143q0 -178 158 -178h109v-113z" />
    <glyph glyph-name="lacute.ss04" horiz-adv-x="624" 
d="M270 1587h-104l119 246h172zM543 0h-119q-131 0 -200.5 75.5t-69.5 211.5v1147h122v-1143q0 -178 158 -178h109v-113z" />
    <glyph glyph-name="lcaron.ss04" horiz-adv-x="567" 
d="M543 0h-119q-131 0 -200.5 75.5t-69.5 211.5v1147h122v-1143q0 -178 158 -178h109v-113zM471 1055h-72l21 379h137z" />
    <glyph glyph-name="uni013C.ss04" horiz-adv-x="624" 
d="M543 0h-119q-131 0 -200.5 75.5t-69.5 211.5v1147h122v-1143q0 -178 158 -178h109v-113zM340 -379h-111l78 266h150z" />
    <glyph glyph-name="ldot.ss04" horiz-adv-x="643" 
d="M543 0h-119q-131 0 -200.5 75.5t-69.5 211.5v1147h122v-1143q0 -178 158 -178h109v-113zM537 543q-50 0 -83.5 31t-33.5 81t33.5 81.5t83.5 31.5t83 -31.5t33 -81.5t-33 -81t-83 -31z" />
    <glyph glyph-name="lslash.ss04" horiz-adv-x="747" 
d="M655 0h-118q-131 0 -201 75.5t-70 211.5v297l-205 -109v117l205 108v734h123v-666l266 141v-116l-266 -142v-360q0 -178 158 -178h108v-113z" />
    <glyph glyph-name="j_j.dlig" horiz-adv-x="1011" 
d="M311 1208q-46 0 -78 31t-32 76q0 46 32 77t78 31t78.5 -31.5t32.5 -76.5t-32.5 -76t-78.5 -31zM797 1208q-46 0 -78.5 31t-32.5 76t32.5 76.5t78.5 31.5t78 -31t32 -77q0 -45 -32 -76t-78 -31zM125 -430q-121 0 -207 59l53 97q66 -45 144 -45q62 0 98.5 37.5t36.5 109.5
v1216h123v-1222q0 -122 -68.5 -187t-179.5 -65zM631 -430q-110 0 -187 59l54 97q55 -45 123 -45q53 0 83.5 37.5t30.5 109.5v1216h123v-1222q0 -122 -62.5 -187t-164.5 -65z" />
    <glyph glyph-name="t_t.dlig" horiz-adv-x="1607" 
d="M287 932h-209v112h217l43 277h74v-277h641l43 277h73v-277h326v-112h-328v-662q0 -90 41 -135t109 -45q86 0 153 45l52 -92q-95 -63 -219 -63q-119 0 -189 74t-70 208v670h-634v-662q0 -90 40.5 -135t108.5 -45q87 0 154 45l51 -92q-95 -63 -219 -63q-119 0 -188.5 74
t-69.5 208v670z" />
    <glyph glyph-name="t_t.dlig.ss01" horiz-adv-x="1617" 
d="M737 0h-133q-150 0 -233.5 82.5t-83.5 241.5v608h-209v112h217l43 277h74v-277h641l43 277h73v-277h326v-112h-328v-602q0 -217 201 -217h127v-113h-133q-150 0 -234 82.5t-84 241.5v608h-634v-602q0 -217 200 -217h127v-113z" />
    <glyph glyph-name="f_f.ss01" horiz-adv-x="1490" 
d="M410 0h-123v932h-209v112h209v84q0 154 83.5 230t225.5 76h168v-113h-162q-192 0 -192 -199v-78h573v84q0 154 83.5 230t225.5 76h127v-113h-121q-192 0 -192 -199v-78h303v-112h-303v-932h-123v932h-573v-932z" />
    <glyph glyph-name="f_f_i.ss01" horiz-adv-x="1955" 
d="M410 0h-123v932h-209v112h209v84q0 154 83.5 230t225.5 76h168v-113h-162q-192 0 -192 -199v-78h573v84q0 154 83.5 230t225.5 76h127v-113h-121q-192 0 -192 -199v-78h696v-1044h-123v932h-573v-932h-123v932h-573v-932zM1741 1208q-46 0 -78.5 31t-32.5 76t32.5 76.5
t78.5 31.5t78 -31t32 -77q0 -45 -32 -76t-78 -31z" />
    <glyph glyph-name="f_i.ss01" horiz-adv-x="1259" 
d="M410 0h-123v932h-209v112h209v84q0 154 83.5 230t225.5 76h127v-113h-121q-192 0 -192 -199v-78h696v-1044h-123v932h-573v-932zM1044 1208q-46 0 -78 31t-32 76q0 46 32 77t78 31t78.5 -31.5t32.5 -76.5t-32.5 -76t-78.5 -31z" />
    <glyph glyph-name="fi.ss01" horiz-adv-x="1259" 
d="M410 0h-123v932h-209v112h209v84q0 154 83.5 230t225.5 76h127v-113h-121q-192 0 -192 -199v-78h696v-1044h-123v932h-573v-932zM1044 1208q-46 0 -78 31t-32 76q0 46 32 77t78 31t78.5 -31.5t32.5 -76.5t-32.5 -76t-78.5 -31z" />
    <glyph glyph-name="fl.ss01" horiz-adv-x="1419" 
d="M410 0h-123v932h-209v112h209v84q0 154 83.5 230t225.5 76h127v-113h-121q-192 0 -192 -199v-78h303v-112h-303v-932zM1337 0h-118q-131 0 -201 75.5t-70 211.5v1147h123v-1143q0 -178 158 -178h108v-113z" />
    <glyph glyph-name="zero.lf" horiz-adv-x="1363" 
d="M682 -20q-248 0 -408.5 205t-160.5 532t160.5 532t408.5 205t408.5 -204.5t160.5 -532.5t-160.5 -532.5t-408.5 -204.5zM682 92q201 0 323.5 168.5t122.5 456.5t-122.5 456t-323.5 168t-323.5 -168t-122.5 -456t122.5 -456.5t323.5 -168.5z" />
    <glyph glyph-name="one.lf" horiz-adv-x="718" 
d="M532 0h-122v1278h-11l-317 -193v132l369 217h81v-1434z" />
    <glyph glyph-name="two.lf" horiz-adv-x="1198" 
d="M1065 0h-930v98l445 404q105 95 163 154.5t105.5 126t65.5 127.5t18 137q0 134 -97 214t-237 80q-133 0 -234 -70t-151 -196l-111 43q59 161 187.5 248.5t308.5 87.5q197 0 327 -112t130 -295q0 -156 -87.5 -290.5t-305.5 -332.5l-334 -303v-8h737v-113z" />
    <glyph glyph-name="three.lf" horiz-adv-x="1157" 
d="M559 850h21q212 0 343.5 -120t131.5 -314q0 -195 -131.5 -315.5t-343.5 -120.5q-177 0 -313 84t-195 229l114 47q46 -115 150.5 -181.5t241.5 -66.5q158 0 256 89.5t98 234.5q0 151 -97 236t-268 85h-178v92l451 484v8h-719v113h883v-107z" />
    <glyph glyph-name="four.lf" horiz-adv-x="1208" 
d="M932 0h-123v317h-727v123l717 994h133v-1004h215v-113h-215v-317zM809 1255l-596 -825h596v825z" />
    <glyph glyph-name="five.lf" horiz-adv-x="1212" 
d="M610 -20q-180 0 -317 86.5t-191 232.5l115 45q40 -118 145 -185t248 -67q168 0 272.5 98.5t104.5 260.5q0 161 -102.5 259.5t-253.5 98.5q-114 0 -205.5 -38t-183.5 -116l-88 17l49 762h794v-113h-690l-35 -512h11q154 113 352 113q135 0 242 -54t170 -162t63 -255
q0 -209 -138.5 -340t-361.5 -131z" />
    <glyph glyph-name="six.lf" horiz-adv-x="1179" 
d="M592 952q218 0 362 -136.5t144 -350.5q0 -141 -66 -252t-181.5 -172t-258.5 -61q-145 0 -261 60.5t-182.5 171.5t-66.5 253q0 101 33.5 189.5t113.5 197.5l428 582h142v-13l-373 -495q83 26 166 26zM592 92q167 0 275 105t108 268t-107.5 269t-275.5 106
q-170 0 -278.5 -105.5t-108.5 -269.5q0 -163 109 -268t278 -105z" />
    <glyph glyph-name="seven.lf" horiz-adv-x="1083" 
d="M375 0h-133l624 1313v8h-784v113h919v-107z" />
    <glyph glyph-name="eight.lf" horiz-adv-x="1187" 
d="M594 -20q-211 0 -351.5 113.5t-140.5 291.5q0 126 74.5 224t202.5 141q-110 48 -173 132t-63 197q0 162 125.5 268.5t325.5 106.5t325 -106.5t125 -268.5q0 -113 -62.5 -197.5t-172.5 -131.5q128 -43 202 -141t74 -224q0 -178 -140 -291.5t-351 -113.5zM594 805
q146 0 237 74t91 194q0 121 -90.5 194.5t-237.5 73.5t-237.5 -73.5t-90.5 -194.5q0 -120 91 -194t237 -74zM594 92q163 0 266 81.5t103 217.5q0 135 -103 218t-266 83t-266 -83t-103 -218q0 -136 103 -217.5t266 -81.5z" />
    <glyph glyph-name="nine.lf" horiz-adv-x="1179" 
d="M588 1454q145 0 261 -60.5t182.5 -171.5t66.5 -253q0 -101 -34 -189.5t-114 -197.5l-428 -582h-141v12l373 496q-86 -27 -166 -27q-218 0 -362 137t-144 351q0 141 66 252t181.5 172t258.5 61zM588 594q170 0 278.5 105.5t108.5 269.5q0 163 -109 267.5t-278 104.5
q-167 0 -275 -104.5t-108 -267.5t107.5 -269t275.5 -106z" />
    <glyph glyph-name="zero.tf" horiz-adv-x="1249" 
d="M625 -20q-232 0 -377.5 204t-145.5 533t145.5 533t377.5 204t377 -203.5t145 -533.5t-145 -533.5t-377 -203.5zM625 92q186 0 292.5 167t106.5 458q0 290 -106.5 457t-292.5 167t-293 -167t-107 -457t107 -457.5t293 -167.5z" />
    <glyph glyph-name="one.tf" horiz-adv-x="1249" 
d="M1034 0h-819v113h348v1165h-10l-338 -205v131l389 230h82v-1321h348v-113z" />
    <glyph glyph-name="two.tf" horiz-adv-x="1249" 
d="M1085 0h-903v98l432 404q77 72 120 115t92 100.5t72.5 103.5t39.5 104t16 122q0 134 -93 214t-228 80q-129 0 -227 -70t-144 -196l-108 43q56 160 180.5 248t298.5 88q191 0 317.5 -112t126.5 -295q0 -156 -85 -290.5t-296 -332.5l-321 -303v-8h710v-113z" />
    <glyph glyph-name="three.tf" horiz-adv-x="1249" 
d="M616 850h19q204 0 332.5 -120.5t128.5 -313.5q0 -195 -128 -315.5t-333 -120.5q-171 0 -303 84t-189 229l113 47q44 -116 144 -182t233 -66q152 0 246 89.5t94 234.5q0 151 -93 236t-257 85h-174v92l436 484v8h-695v113h857v-107z" />
    <glyph glyph-name="four.tf" horiz-adv-x="1249" 
d="M922 0h-123v317h-676v123l665 994h134v-1004h204v-113h-204v-317zM799 1255l-551 -825h551v825z" />
    <glyph glyph-name="five.tf" horiz-adv-x="1249" 
d="M633 -20q-175 0 -311.5 86.5t-188.5 232.5l113 45q39 -118 143.5 -185t243.5 -67q164 0 267.5 98.5t103.5 260.5q0 160 -101 259t-250 99q-112 0 -202.5 -38t-180.5 -116l-86 17l47 762h785v-113h-680l-35 -512h10q150 113 346 113q203 0 336 -126t133 -345
q0 -209 -137.5 -340t-355.5 -131z" />
    <glyph glyph-name="six.tf" horiz-adv-x="1249" 
d="M637 952q206 0 342.5 -137t136.5 -350t-136.5 -349t-342.5 -136q-208 0 -345.5 135.5t-137.5 349.5q0 102 31.5 190.5t107.5 196.5l405 582h138v-13l-355 -495q80 26 156 26zM637 92q154 0 255 105.5t101 267.5q0 163 -100.5 269t-255.5 106q-158 0 -259.5 -105.5
t-101.5 -269.5q0 -163 102 -268t259 -105z" />
    <glyph glyph-name="seven.tf" horiz-adv-x="1249" 
d="M449 0h-134l625 1313v8h-786v113h921v-107z" />
    <glyph glyph-name="eight.tf" horiz-adv-x="1249" 
d="M625 -20q-211 0 -351.5 113.5t-140.5 291.5q0 126 74.5 224t202.5 141q-110 48 -173 132t-63 197q0 162 125.5 268.5t325.5 106.5t325 -106.5t125 -268.5q0 -113 -62.5 -197.5t-172.5 -131.5q128 -43 202 -141t74 -224q0 -178 -140 -291.5t-351 -113.5zM625 805
q146 0 236.5 74t90.5 194q0 121 -90 194.5t-237 73.5t-237.5 -73.5t-90.5 -194.5q0 -120 91 -194t237 -74zM625 92q163 0 265.5 81.5t102.5 217.5q0 135 -102.5 218t-265.5 83t-266 -83t-103 -218q0 -136 103 -217.5t266 -81.5z" />
    <glyph glyph-name="nine.tf" horiz-adv-x="1249" 
d="M612 1454q208 0 346 -135.5t138 -349.5q0 -102 -32 -190.5t-108 -196.5l-405 -582h-137v12l354 496q-83 -27 -156 -27q-135 0 -244 61.5t-172 173.5t-63 253q0 213 136.5 349t342.5 136zM612 594q158 0 259.5 105.5t101.5 269.5q0 162 -102 267t-259 105
q-154 0 -255 -105t-101 -267q0 -163 100.5 -269t255.5 -106z" />
    <glyph glyph-name="zero.dnom" horiz-adv-x="737" 
d="M369 -10q-131 0 -214 101.5t-83 266.5t83 267t214 102q132 0 214.5 -102t82.5 -267t-82.5 -266.5t-214.5 -101.5zM369 76q91 0 144.5 75.5t53.5 206.5t-53.5 207t-144.5 76t-145 -76t-54 -207t54 -206.5t145 -75.5z" />
    <glyph glyph-name="one.dnom" horiz-adv-x="436" 
d="M324 0h-99v594h-6l-158 -92v108l191 107h72v-717z" />
    <glyph glyph-name="two.dnom" horiz-adv-x="632" 
d="M561 0h-485v82l211 186q100 87 139 136.5t39 109.5q0 59 -42 93t-101 34q-57 0 -103 -32t-69 -91l-89 31q27 84 97.5 131t163.5 47q103 0 171 -57.5t68 -155.5q0 -42 -14 -80t-48.5 -79t-63.5 -68.5t-87 -79.5l-123 -109v-6h336v-92z" />
    <glyph glyph-name="three.dnom" horiz-adv-x="649" 
d="M551 637l-201 -207q103 -3 165.5 -63t62.5 -156q0 -100 -68 -160.5t-180 -60.5q-99 0 -171 46t-98 126l91 33q19 -55 67.5 -87t110.5 -32q68 0 108.5 37t40.5 100q0 64 -41.5 100.5t-115.5 36.5h-107v66l203 209v6h-334v86h467v-80z" />
    <glyph glyph-name="four.dnom" horiz-adv-x="663" 
d="M500 0h-97v147h-352v103l340 467h109v-477h102v-93h-102v-147zM403 586l-253 -346h253v346z" />
    <glyph glyph-name="five.dnom" horiz-adv-x="653" 
d="M332 -10q-99 0 -172 43.5t-99 120.5l91 30q22 -52 69.5 -80t112.5 -28q69 0 114.5 43t45.5 110q0 68 -44.5 110t-113.5 42q-90 0 -164 -62l-82 15l27 383h413v-86h-329l-15 -209h7q65 45 151 45q109 0 178.5 -65.5t69.5 -172.5q0 -106 -71 -172.5t-189 -66.5z" />
    <glyph glyph-name="six.dnom" horiz-adv-x="655" 
d="M332 477q114 0 188 -66.5t74 -174.5t-75.5 -177t-192.5 -69q-116 0 -190.5 69.5t-74.5 176.5q0 54 19 99t63 107l195 275h121v-8l-176 -236q32 4 49 4zM326 76q73 0 121.5 45t48.5 115t-48.5 114.5t-121.5 44.5q-72 0 -119 -44.5t-47 -114.5q0 -69 46.5 -114.5
t119.5 -45.5z" />
    <glyph glyph-name="seven.dnom" horiz-adv-x="602" 
d="M242 0h-109l293 618v7h-365v92h480v-86z" />
    <glyph glyph-name="eight.dnom" horiz-adv-x="659" 
d="M330 -10q-110 0 -184 58t-74 149q0 60 32.5 107.5t88.5 70.5q-101 54 -101 157q0 86 66 140.5t172 54.5q104 0 170.5 -54.5t66.5 -140.5q0 -104 -102 -157q59 -24 91 -72t32 -106q0 -91 -74 -149t-184 -58zM330 416q61 0 100 30.5t39 79.5q0 52 -39 83.5t-100 31.5
t-100.5 -31.5t-39.5 -83.5q0 -49 39.5 -79.5t100.5 -30.5zM330 76q72 0 115.5 34.5t43.5 94.5q0 57 -43.5 92t-115.5 35t-116 -35t-44 -92q0 -59 44.5 -94t115.5 -35z" />
    <glyph glyph-name="nine.dnom" horiz-adv-x="655" 
d="M330 727q115 0 189.5 -69.5t74.5 -176.5q0 -54 -19.5 -99.5t-62.5 -107.5l-195 -274h-120v8l176 236q-32 -4 -49 -4q-114 0 -188.5 67t-74.5 174q0 108 76 177t193 69zM330 322q72 0 119 44.5t47 114.5q0 69 -46.5 114.5t-119.5 45.5t-121.5 -45t-48.5 -115t48.5 -114.5
t121.5 -44.5z" />
    <glyph glyph-name="zero.numr" horiz-adv-x="737" 
d="M369 707q-131 0 -214 101.5t-83 266.5t83 267t214 102q132 0 214.5 -102t82.5 -267t-82.5 -266.5t-214.5 -101.5zM369 793q91 0 144.5 75.5t53.5 206.5t-53.5 207t-144.5 76t-145 -76t-54 -207t54 -206.5t145 -75.5z" />
    <glyph glyph-name="one.numr" horiz-adv-x="436" 
d="M324 717h-99v594h-6l-158 -92v108l191 107h72v-717z" />
    <glyph glyph-name="two.numr" horiz-adv-x="632" 
d="M561 717h-485v82l211 186q100 87 139 136.5t39 109.5q0 59 -42 93t-101 34q-57 0 -103 -32t-69 -91l-89 31q27 84 97.5 131t163.5 47q103 0 171 -57.5t68 -155.5q0 -42 -14 -80t-48.5 -79t-63.5 -68.5t-87 -79.5l-123 -109v-6h336v-92z" />
    <glyph glyph-name="three.numr" horiz-adv-x="649" 
d="M551 1354l-201 -207q103 -3 165.5 -63t62.5 -156q0 -100 -68 -160.5t-180 -60.5q-99 0 -171 46t-98 126l91 32q19 -55 67.5 -86.5t110.5 -31.5q68 0 108.5 37t40.5 100q0 64 -41.5 100.5t-115.5 36.5h-107v66l203 208v7h-334v86h467v-80z" />
    <glyph glyph-name="four.numr" horiz-adv-x="663" 
d="M500 717h-97v147h-352v103l340 467h109v-478h102v-92h-102v-147zM403 1303l-253 -347h253v347z" />
    <glyph glyph-name="five.numr" horiz-adv-x="653" 
d="M332 707q-100 0 -172.5 43t-98.5 120l91 31q22 -52 69.5 -80t112.5 -28q69 0 114.5 43t45.5 110q0 68 -44.5 110t-113.5 42q-90 0 -164 -62l-82 15l27 383h413v-86h-329l-15 -209h7q65 45 151 45q109 0 178.5 -65.5t69.5 -172.5q0 -106 -71 -172.5t-189 -66.5z" />
    <glyph glyph-name="six.numr" horiz-adv-x="655" 
d="M332 1194q114 0 188 -67t74 -175t-75.5 -176.5t-192.5 -68.5q-116 0 -190.5 69t-74.5 176q0 54 19.5 99.5t62.5 107.5l195 275h121v-9l-176 -235q32 4 49 4zM326 793q73 0 121.5 44.5t48.5 114.5t-48.5 115t-121.5 45q-72 0 -119 -45t-47 -115q0 -69 46.5 -114t119.5 -45
z" />
    <glyph glyph-name="seven.numr" horiz-adv-x="602" 
d="M242 717h-109l293 618v6h-365v93h480v-86z" />
    <glyph glyph-name="eight.numr" horiz-adv-x="659" 
d="M330 707q-110 0 -184 57.5t-74 148.5q0 60 32.5 108t88.5 71q-101 54 -101 157q0 86 66 140.5t172 54.5q104 0 170.5 -54.5t66.5 -140.5q0 -104 -102 -157q59 -24 91 -72.5t32 -106.5q0 -91 -74 -148.5t-184 -57.5zM330 1133q61 0 100 30.5t39 79.5q0 52 -39 83.5
t-100 31.5t-100.5 -31.5t-39.5 -83.5q0 -49 39.5 -79.5t100.5 -30.5zM330 793q72 0 115.5 34.5t43.5 94.5q0 57 -43.5 92t-115.5 35t-116 -35t-44 -92q0 -59 44.5 -94t115.5 -35z" />
    <glyph glyph-name="nine.numr" horiz-adv-x="655" 
d="M330 1444q115 0 189.5 -69.5t74.5 -176.5q0 -54 -19.5 -99.5t-62.5 -107.5l-195 -274h-120v8l176 236q-40 -5 -49 -5q-114 0 -188.5 67t-74.5 175t76 177t193 69zM330 1038q72 0 119 45t47 115q0 69 -46.5 114.5t-119.5 45.5t-121.5 -45t-48.5 -115t48.5 -115t121.5 -45z
" />
    <glyph glyph-name="exclamdown.case" horiz-adv-x="581" 
d="M291 1454q50 0 83.5 -31.5t33.5 -81.5t-33.5 -81t-83.5 -31t-83.5 31t-33.5 81t33.5 81.5t83.5 31.5zM221 0l15 1044h114l15 -1044h-144z" />
    <glyph glyph-name="questiondown.case" horiz-adv-x="1105" 
d="M555 1454q50 0 83.5 -31.5t33.5 -81.5t-33.5 -81t-83.5 -31t-83.5 31t-33.5 81t33.5 81.5t83.5 31.5zM498 1044h114v-24q0 -66 -20.5 -124t-54 -101t-73.5 -82.5t-80 -78t-73.5 -78.5t-54 -92t-20.5 -110q0 -118 92.5 -190t228.5 -72q141 0 233.5 67.5t141.5 213.5
l112 -45q-50 -163 -178 -255.5t-307 -92.5q-194 0 -320 104.5t-126 269.5q0 74 21 136.5t55 107t75 83.5t82.5 75.5t75.5 73.5t55 86t21 106v22z" />
    <glyph glyph-name="periodcentered.case" horiz-adv-x="417" 
d="M209 604q-50 0 -83.5 31.5t-33.5 81.5t33.5 81t83.5 31t83.5 -31t33.5 -81t-33.5 -81.5t-83.5 -31.5z" />
    <glyph glyph-name="bullet.case" horiz-adv-x="491" 
d="M246 569q-65 0 -109.5 41.5t-44.5 106.5t44.5 107t109.5 42t109 -42t44 -107t-44 -106.5t-109 -41.5z" />
    <glyph glyph-name="period.tf" horiz-adv-x="1249" 
d="M625 -20q-50 0 -83.5 31t-33.5 81t33.5 81.5t83.5 31.5t83 -31.5t33 -81.5t-33 -81t-83 -31z" />
    <glyph glyph-name="comma.tf" horiz-adv-x="1249" 
d="M774 166l-196 -432l-101 33l156 448z" />
    <glyph glyph-name="colon.tf" horiz-adv-x="1249" 
d="M625 840q-50 0 -83.5 31t-33.5 81t33.5 81.5t83.5 31.5t83 -31.5t33 -81.5t-33 -81t-83 -31zM625 -20q-50 0 -83.5 31t-33.5 81t33.5 81.5t83.5 31.5t83 -31.5t33 -81.5t-33 -81t-83 -31z" />
    <glyph glyph-name="semicolon.tf" horiz-adv-x="1249" 
d="M666 840q-50 0 -83.5 31t-33.5 81t33.5 81.5t83.5 31.5t83 -31.5t33 -81.5t-33 -81t-83 -31zM766 166l-197 -432l-100 33l156 448z" />
    <glyph glyph-name="parenleft.case" horiz-adv-x="614" 
d="M532 -184l-71 -41q-369 390 -369 942t369 942l71 -41q-327 -395 -327 -901t327 -901z" />
    <glyph glyph-name="parenright.case" horiz-adv-x="614" 
d="M154 -225l-72 41q328 396 328 901t-328 901l72 41q368 -389 368 -942t-368 -942z" />
    <glyph glyph-name="braceleft.case" horiz-adv-x="675" 
d="M573 -205h-86q-119 0 -180 69t-61 183v442q0 90 -28.5 131.5t-92.5 41.5h-74v112h74q65 0 93 39.5t28 130.5v442q0 114 61 183t180 69h86v-112h-71q-66 0 -99.5 -38t-33.5 -106v-458q0 -167 -107 -201v-8q107 -37 107 -205v-459q0 -68 33.5 -105.5t99.5 -37.5h71v-113z
" />
    <glyph glyph-name="braceright.case" horiz-adv-x="675" 
d="M188 -205h-86v113h72q66 0 99.5 37.5t33.5 105.5v459q0 168 107 205v8q-107 34 -107 201v458q0 68 -33.5 106t-99.5 38h-72v112h86q119 0 180.5 -69t61.5 -183v-442q0 -91 28 -130.5t93 -39.5h74v-112h-74q-64 0 -92.5 -41.5t-28.5 -131.5v-442q0 -114 -61.5 -183
t-180.5 -69z" />
    <glyph glyph-name="bracketleft.case" horiz-adv-x="624" 
d="M522 -205h-348v1843h348v-112h-225v-1618h225v-113z" />
    <glyph glyph-name="bracketright.case" horiz-adv-x="624" 
d="M451 1638v-1843h-349v113h226v1618h-226v112h349z" />
    <glyph glyph-name="hyphen.case" horiz-adv-x="839" 
d="M748 666h-656v102h656v-102z" />
    <glyph glyph-name="endash.case" horiz-adv-x="1044" 
d="M952 666h-860v102h860v-102z" />
    <glyph glyph-name="emdash.case" horiz-adv-x="1495" 
d="M1403 666h-1311v102h1311v-102z" />
    <glyph glyph-name="guillemotleft.case" horiz-adv-x="962" 
d="M514 395h-168l-295 322l295 321h168l-301 -321zM881 395h-168l-295 322l295 321h168l-301 -321z" />
    <glyph glyph-name="guillemotright.case" horiz-adv-x="962" 
d="M545 717l-295 -322h-168l301 322l-301 321h168zM911 717l-295 -322h-167l301 322l-301 321h167z" />
    <glyph glyph-name="guilsinglleft.case" horiz-adv-x="595" 
d="M514 395h-168l-295 322l295 321h168l-301 -321z" />
    <glyph glyph-name="guilsinglright.case" horiz-adv-x="595" 
d="M545 717l-295 -322h-168l301 322l-301 321h168z" />
    <glyph glyph-name="cent.tf" horiz-adv-x="1249" 
d="M709 -205h-123v189q-187 25 -301.5 171.5t-114.5 366.5t114.5 367t301.5 172v188h123v-186q125 -14 219 -87t143 -208l-113 -45q-48 121 -123.5 175t-183.5 54q-163 0 -260.5 -117.5t-97.5 -312.5t97.5 -312.5t260.5 -117.5q222 0 320 230l110 -46q-50 -133 -149 -206
t-223 -86v-189z" />
    <glyph glyph-name="currency.tf" horiz-adv-x="1249" 
d="M365 367l-125 -125l-86 86l122 127q-81 114 -81 262t81 262l-122 127l86 86l125 -125q115 78 260 78t260 -78l125 125l86 -90l-123 -123q80 -113 80 -262q0 -152 -82 -260l125 -125l-86 -90l-125 125q-115 -78 -260 -78t-260 78zM625 401q133 0 219 89t86 227
q0 139 -85.5 227t-219.5 88t-221 -88t-87 -227t87 -227.5t221 -88.5z" />
    <glyph glyph-name="dollar.tf" horiz-adv-x="1249" 
d="M1133 360q0 -170 -120.5 -270.5t-318.5 -109.5v-185h-123v191q-161 19 -281.5 103t-170.5 220l110 45q55 -131 170.5 -196.5t262.5 -65.5q166 0 257 73t91 195q0 67 -29.5 118t-79.5 83.5t-114.5 57.5t-136.5 45.5t-143.5 42.5t-136 54t-114.5 74t-79.5 108.5
t-29.5 152.5q0 154 115.5 251.5t308.5 106.5v184h123v-190q143 -19 250 -98.5t152 -206.5l-109 -43q-41 116 -145 178.5t-236 62.5q-159 0 -247.5 -69t-88.5 -176q0 -65 29.5 -114.5t79.5 -81t114.5 -56t136.5 -45t143.5 -43t136 -55t114.5 -75.5t79.5 -111t29.5 -155z" />
    <glyph glyph-name="Euro.tf" horiz-adv-x="1249" 
d="M723 -20q-172 0 -295.5 142t-163.5 380h-162v112h148q-4 66 -4 103q0 36 4 102h-148v113h162q40 238 163.5 380t295.5 142q141 0 253 -99t165 -302l-103 -45q-42 166 -122.5 249.5t-192.5 83.5q-125 0 -214.5 -108.5t-123.5 -300.5h338v-113h-350q-4 -66 -4 -102
q0 -37 4 -103h350v-112h-338q34 -192 123.5 -301t214.5 -109q234 0 321 334l103 -45q-56 -204 -168.5 -302.5t-255.5 -98.5z" />
    <glyph glyph-name="florin.tf" horiz-adv-x="1249" 
d="M293 -410h-98v113h102q62 0 105.5 39.5t52.5 103.5l147 955h-211v112h232l41 263q19 124 90.5 191t195.5 67h105v-113h-113q-62 0 -102.5 -39t-51.5 -104l-43 -265h269v-112h-287l-149 -951q-19 -124 -91.5 -192t-193.5 -68z" />
    <glyph glyph-name="sterling.tf" horiz-adv-x="1249" 
d="M1044 180l82 -80q-58 -65 -118.5 -92.5t-143.5 -27.5q-72 0 -185 37.5t-185 37.5q-118 0 -312 -86l-59 94q231 197 231 435q0 55 -14 116h-217v103h178q-8 17 -27.5 60t-29.5 67t-23 62.5t-18.5 77t-5.5 79.5q0 179 120.5 285t317.5 106q170 0 289.5 -85t175.5 -241
l-111 -43q-104 256 -356 256q-145 0 -229.5 -79t-84.5 -199q0 -47 12 -96.5t25 -81.5t38 -86.5t36 -81.5h381v-103h-348q14 -52 14 -116q0 -204 -141 -363l6 -8q109 41 188 41q65 0 174.5 -38t151.5 -38q57 0 100 19.5t88 68.5z" />
    <glyph glyph-name="yen.tf" horiz-adv-x="1249" 
d="M686 0h-119v256h-348v113h348v184h-348v113h293l-440 768h139l416 -754h8l412 754h131l-437 -768h293v-113h-348v-184h348v-113h-348v-256z" />
    <glyph glyph-name="plus.case" horiz-adv-x="1036" 
d="M571 272h-108v390h-385v112h385v389h108v-389h387v-112h-387v-390z" />
    <glyph glyph-name="minus.case" horiz-adv-x="1036" 
d="M958 662h-880v112h880v-112z" />
    <glyph glyph-name="multiply.case" horiz-adv-x="1036" 
d="M520 639l-352 -358l-80 81l354 359l-352 352l78 78l352 -352l348 354l80 -80l-350 -352l350 -359l-80 -81z" />
    <glyph glyph-name="divide.case" horiz-adv-x="1036" 
d="M518 936q-49 0 -82 32.5t-33 78.5t33 78t82 32t82 -32t33 -78t-33 -78.5t-82 -32.5zM958 662h-880v112h880v-112zM518 279q-49 0 -82 32t-33 78t33 78.5t82 32.5t82 -32.5t33 -78.5t-33 -78t-82 -32z" />
    <glyph glyph-name="equal.case" horiz-adv-x="1036" 
d="M958 870h-880v113h880v-113zM958 451h-880v112h880v-112z" />
    <glyph glyph-name="notequal.case" horiz-adv-x="1036" 
d="M356 184h-110l108 267h-276v112h323l125 307h-448v113h495l109 266h111l-109 -266h274v-113h-321l-125 -307h446v-112h-493z" />
    <glyph glyph-name="greater.case" horiz-adv-x="1036" 
d="M958 674l-880 -377v123l706 297l-706 297v123l880 -377v-86z" />
    <glyph glyph-name="less.case" horiz-adv-x="1036" 
d="M958 420v-123l-880 377v86l880 377v-123l-706 -297z" />
    <glyph glyph-name="greaterequal.case" horiz-adv-x="1036" 
d="M958 811l-880 -358v122l702 279l-702 283v123l880 -363v-86zM958 154h-880v112h880v-112z" />
    <glyph glyph-name="lessequal.case" horiz-adv-x="1036" 
d="M958 575v-122l-880 358v86l880 363v-123l-702 -283zM958 154h-880v112h880v-112z" />
    <glyph glyph-name="plusminus.case" horiz-adv-x="1036" 
d="M571 451h-108v327h-385v113h385v328h108v-328h387v-113h-387v-327zM958 215h-880v113h880v-113z" />
    <glyph glyph-name="approxequal.case" horiz-adv-x="1036" 
d="M201 748h-123v69q0 63 20 111t54 74.5t73 39.5t82 13q47 0 96 -20t89.5 -48.5t79 -57.5t80 -49t77.5 -20q48 0 77.5 31.5t29.5 93.5v70h122v-70q0 -51 -14 -92t-36.5 -67.5t-53 -44.5t-61.5 -25.5t-64 -7.5q-65 0 -127.5 30.5t-104 66.5t-93 66.5t-97.5 30.5
q-48 0 -77 -31.5t-29 -93.5v-69zM201 379h-123v70q0 63 20 110.5t54 74t73 39.5t82 13q47 0 96 -20t89.5 -48.5t79 -57t80 -48.5t77.5 -20q48 0 77.5 31t29.5 93v70h122v-70q0 -51 -14 -92t-36.5 -67.5t-53 -44.5t-61.5 -25.5t-64 -7.5q-65 0 -127.5 30.5t-104 66.5
t-93 66.5t-97.5 30.5q-48 0 -77 -31t-29 -93v-70z" />
    <glyph glyph-name="logicalnot.case" horiz-adv-x="1036" 
d="M958 512h-122v297h-758v113h880v-410z" />
    <glyph glyph-name="at.case" horiz-adv-x="1787" 
d="M1104 -123h-219q-167 0 -312 66t-245 178t-157.5 264.5t-57.5 321.5q0 227 100 417t277.5 301t394.5 111q228 0 409.5 -105.5t281 -285.5t99.5 -400q0 -205 -71.5 -320.5t-196.5 -115.5q-79 0 -137.5 43t-87.5 123h-8q-93 -166 -300 -166q-155 0 -259.5 111.5
t-104.5 286.5t105 287t259 112q173 0 281 -137h4l15 123h94v-455q0 -102 34.5 -158.5t104.5 -56.5q71 0 108 84t37 239q0 188 -83 342t-236.5 245t-347.5 91q-138 0 -259.5 -57t-206.5 -153.5t-134 -228t-49 -277.5q0 -143 47.5 -274t130.5 -229.5t206 -157t265 -58.5h219
v-111zM889 422q114 0 186 79.5t72 205.5t-72 206t-186 80q-117 0 -187.5 -79.5t-70.5 -206.5t70.5 -206t187.5 -79z" />
    <glyph glyph-name="uni030C.alt" horiz-adv-x="0" 
d="M-147 1055h-72l20 379h138z" />
    <glyph glyph-name="uni0308.alt" horiz-adv-x="0" 
d="M-408 1212q-45 0 -71.5 29.5t-26.5 73.5q0 43 27 72.5t71 29.5t71.5 -29.5t27.5 -72.5q0 -44 -27 -73.5t-72 -29.5zM-160 1212q-45 0 -71.5 29.5t-26.5 73.5q0 43 27 72.5t71 29.5t71.5 -29.5t27.5 -72.5q0 -44 -27 -73.5t-72 -29.5z" />
    <glyph glyph-name="uni0338.alt" horiz-adv-x="0" 
d="M-670 49l-92 -162l-96 52l98 170l19 28l460 801l15 29l108 190l97 -51l-119 -203l-19 -31l-454 -790z" />
    </font>
</defs>
</svg>
